<?xml version="1.0" standalone="no"?>
<!DOCTYPE svg PUBLIC "-//W3C//DTD SVG 1.1//EN" "http://www.w3.org/Graphics/SVG/1.1/DTD/svg11.dtd" >
<svg>
<metadata>
Created by FontForge 20120731 at Tue Sep 27 14:43:41 2016
 By ,,,
Copyright (c) 2012 by Hannes von Doehren. All rights reserved.
</metadata>
<defs>
<font id="BrandonText-ThinItalic" horiz-adv-x="600" >
  <font-face 
    font-family="Brandon Text Thin"
    font-weight="300"
    font-style="italic"
    font-stretch="normal"
    units-per-em="1000"
    panose-1="2 11 4 3 2 2 3 13 2 3"
    ascent="700"
    descent="-300"
    x-height="462"
    cap-height="700"
    bbox="-164.778 -251.5 1096 1044.57"
    underline-thickness="50"
    underline-position="-50"
    slope="-8"
    unicode-range="U+000D-FB02"
  />
<missing-glyph horiz-adv-x="599" 
d="M50 30v640q0 30 30 30h439q30 0 30 -30v-640q0 -30 -30 -30h-439q-30 0 -30 30zM262 314q0 -12 14 -12h36q15 0 15 13v26q0 16 16.5 32t36 28.5t36 36.5t16.5 53q0 48 -35.5 79.5t-89.5 31.5q-24 0 -46.5 -6.5t-37 -15t-25.5 -17.5t-16 -15l-5 -7q-8 -12 0 -18l22 -22
q9 -6 17 0q1 1 7.5 7t9.5 9t11.5 8.5t15.5 8.5t18 5.5t22 2.5q29 0 45 -15t16 -37q0 -21 -15.5 -39t-34 -30t-34 -32.5t-15.5 -45.5v-29zM245 156q0 -20 14.5 -34t33.5 -14q20 0 34.5 14t14.5 34t-14.5 34t-34.5 14q-19 0 -33.5 -14t-14.5 -34z" />
    <glyph glyph-name="fi" unicode="fi" horiz-adv-x="520" 
d="M41 -238q-7 0 -5 9l93 673h-73q-9 0 -7 8l1 4q1 6 8 6h74l8 53q16 102 66 148.5t122 46.5q92 0 138 -66q4 -6 -1 -10l-4 -3q-5 -4 -9 1q-41 60 -124 60q-64 0 -110 -42.5t-60 -134.5l-8 -53h299q7 0 7 -8l-63 -446q-2 -8 -7 -8h-6q-8 0 -5 8l61 436h-289l-94 -673
q-2 -9 -8 -9h-4z" />
    <glyph glyph-name="fl" unicode="fl" horiz-adv-x="547" 
d="M40 -238q-6 0 -4 9l93 673h-73q-9 0 -7 7l1 5q1 6 8 6h74l9 63q27 185 188 185q53 0 93 -19.5t61 -43.5l6 45q2 8 8 8h5q7 0 5 -8l-97 -684q-2 -8 -7 -8h-5q-7 0 -5 8l86 617q-57 67 -150 67q-146 0 -170 -167l-9 -63h196q8 0 7 -7l-1 -4q-2 -7 -9 -7h-196l-93 -673
q-2 -9 -9 -9h-5z" />
    <glyph glyph-name="f_f" unicode="ff" horiz-adv-x="645" 
d="M36 -229l94 673h-63q-4 0 -6 1.5t-1 4.5l1 6q1 6 9 6h63l5 33q16 106 71.5 155.5t133.5 49.5q46 0 83.5 -16t52.5 -34q45 60 120 60q73 0 111 -47q4 -7 -1 -12l-2 -2q-5 -5 -11 0q-41 44 -97 44q-57 0 -93 -36.5t-49 -128.5l-9 -66h187q4 0 6.5 -2t1.5 -5l-1 -5
q-2 -6 -7 -6h-190l-93 -673q-2 -9 -8 -9h-5q-8 0 -6 9l94 673h-279l-94 -673q-2 -9 -7 -9h-5q-8 0 -6 9zM151 462h279l9 66q8 59 30 105q-14 21 -50 35t-76 14q-71 0 -121.5 -45t-65.5 -142z" />
    <glyph glyph-name="f_f_i" unicode="ffi" horiz-adv-x="819" 
d="M343 -238h-4q-8 0 -6 9l94 673h-279l-94 -673q-2 -9 -7 -9h-5q-8 0 -6 9l94 673h-63q-4 0 -6 1.5t-1 4.5l1 6q1 6 9 6h63l5 33q32 205 206 205q52 0 91 -16.5t55 -35.5q49 62 136 62q92 0 138 -66q4 -6 -1 -10l-4 -3q-5 -4 -9 1q-41 60 -124 60q-67 0 -111.5 -44.5
t-58.5 -132.5l-8 -53h300q7 0 7 -8l-63 -446q-2 -8 -7 -8h-6q-8 0 -5 8l61 436h-290l-94 -673q-2 -9 -8 -9zM151 462h279l8 54q12 73 40 116q-44 50 -134 50q-159 0 -188 -187z" />
    <glyph glyph-name="f_f_l" unicode="ffl" horiz-adv-x="845" 
d="M629 710q50 0 90.5 -20t61.5 -43l6 45q2 8 8 8h5q7 0 5 -8l-97 -684q-2 -8 -7 -8h-5q-7 0 -5 8l86 617q-12 14 -28.5 27t-50 26.5t-69.5 13.5q-68 0 -114 -45t-58 -129l-9 -56h196q8 0 7 -7l-1 -4q-2 -7 -9 -7h-196l-93 -673q-2 -9 -9 -9h-4q-8 0 -6 9l94 673h-279
l-94 -673q-2 -9 -7 -9h-5q-8 0 -6 9l94 673h-63q-4 0 -6 1.5t-1 4.5l1 6q1 6 9 6h63l5 33q14 106 71 155.5t135 49.5q92 0 143 -57q49 67 142 67zM151 462h279l9 56q10 65 36 109q-16 22 -51.5 38.5t-79.5 16.5q-72 0 -123.5 -45.5t-64.5 -141.5z" />
    <glyph glyph-name="f_f_h" unicode="ffh" horiz-adv-x="1144" 
d="M700 0h-4q-9 0 -7 8l88 617q-12 14 -28.5 27t-50 26.5t-69.5 13.5q-68 0 -114 -45t-58 -129l-9 -56h196q8 0 7 -7l-1 -4q-2 -7 -9 -7h-196l-93 -673q-2 -9 -9 -9h-4q-8 0 -6 9l94 673h-279l-94 -673q-2 -9 -7 -9h-5q-8 0 -6 9l94 673h-63q-4 0 -6 1.5t-1 4.5l1 6q1 6 9 6
h63l5 33q14 106 71 155.5t135 49.5q92 0 143 -57q49 67 142 67q49 0 89.5 -20t61.5 -43l7 45q2 8 8 8h4q8 0 6 -8l-44 -307q79 87 165 87q162 0 130 -214l-36 -250q-2 -8 -7 -8h-4q-9 0 -7 8l36 250q14 100 -13.5 148t-98.5 48q-14 0 -28 -2.5t-25.5 -6.5t-23.5 -10t-21 -12
t-18.5 -14t-16 -14t-13 -13.5t-10 -11.5t-8.5 -10l-4 -5l-50 -347q-2 -8 -8 -8zM151 462h279l9 56q10 65 36 109q-16 22 -51.5 38.5t-79.5 16.5q-72 0 -123.5 -45.5t-64.5 -141.5z" />
    <glyph glyph-name="f_k" unicode="fk" horiz-adv-x="758" 
d="M398 0q-9 0 -7 8l88 617q-57 67 -150 67q-146 0 -170 -167l-9 -63h196q8 0 7 -7l-1 -4q-2 -7 -9 -7h-196l-93 -673q-2 -9 -9 -9h-5q-6 0 -4 9l93 673h-73q-9 0 -7 7l1 5q1 6 8 6h74l9 63q27 185 188 185q52 0 92 -19.5t61 -43.5l7 45q2 8 8 8h4q10 0 8 -8l-62 -426
l287 202q5 3 9 -1l4 -6q3 -5 -3 -9l-280 -198l223 -243q5 -5 -1 -10l-4 -4q-6 -6 -11 1l-226 250l-34 -240q-2 -8 -9 -8h-4z" />
    <glyph glyph-name="f_j" unicode="fj" horiz-adv-x="520" 
d="M365 -65l71 509h-289l-94 -673q-2 -9 -8 -9h-4q-7 0 -5 9l93 673h-73q-9 0 -7 8l1 4q1 6 8 6h74l8 53q16 102 66 148.5t122 46.5q92 0 138 -66q4 -6 -1 -10l-4 -3q-5 -4 -9 1q-41 60 -124 60q-64 0 -110 -42.5t-60 -134.5l-8 -53h299q7 0 7 -8l-73 -519q-12 -84 -49 -127
t-106 -57q-9 -1 -10 5l-1 5q-1 6 8 8q63 15 96 52.5t44 113.5z" />
    <glyph glyph-name="f_f_j" unicode="ffj" horiz-adv-x="819" 
d="M151 462h279l8 54q12 73 40 116q-44 50 -134 50q-159 0 -188 -187zM664 -65l71 509h-290l-94 -673q-2 -9 -8 -9h-4q-8 0 -6 9l94 673h-279l-94 -673q-2 -9 -7 -9h-5q-8 0 -6 9l94 673h-63q-4 0 -6 1.5t-1 4.5l1 6q1 6 9 6h63l5 33q32 205 206 205q52 0 91 -16.5t55 -35.5
q49 62 136 62q92 0 138 -66q4 -6 -1 -10l-4 -3q-5 -4 -9 1q-41 60 -124 60q-67 0 -111.5 -44.5t-58.5 -132.5l-8 -53h300q7 0 7 -8l-73 -519q-12 -84 -49 -127t-106 -57q-9 -1 -10 5l-1 5q-1 6 8 8q63 15 96 52.5t44 113.5z" />
    <glyph glyph-name="f_b" unicode="fb" horiz-adv-x="862" 
d="M397 0q-8 0 -6 8l88 617q-57 67 -150 67q-146 0 -170 -167l-9 -63h196q8 0 7 -7l-1 -4q-2 -7 -9 -7h-196l-93 -673q-2 -9 -9 -9h-5q-6 0 -4 9l93 673h-73q-9 0 -7 7l1 5q1 6 8 6h74l9 63q27 185 188 185q52 0 92 -19.5t61 -43.5l7 45q2 8 7 8h5q9 0 7 -8l-41 -279
q7 7 20.5 16.5t54 26t79.5 16.5q80 0 128.5 -58t48.5 -147q0 -115 -69 -196.5t-161 -81.5q-56 0 -93.5 23t-55.5 52l-9 -56q-2 -8 -8 -8h-5zM423 95q1 -4 6 -12.5t17 -22t27.5 -25t41 -20t53.5 -8.5q84 0 148 77t64 183q0 81 -44.5 134t-114.5 53q-42 0 -81.5 -18t-57.5 -36
l-18 -17z" />
    <glyph glyph-name="f_f_k" unicode="ffk" horiz-adv-x="1056" 
d="M696 0q-9 0 -7 8l88 617q-12 14 -28.5 27t-50 26.5t-69.5 13.5q-68 0 -114 -45t-58 -129l-9 -56h196q8 0 7 -7l-1 -4q-2 -7 -9 -7h-196l-93 -673q-2 -9 -9 -9h-4q-8 0 -6 9l94 673h-279l-94 -673q-2 -9 -7 -9h-5q-8 0 -6 9l94 673h-63q-4 0 -6 1.5t-1 4.5l1 6q1 6 9 6h63
l5 33q14 106 71 155.5t135 49.5q92 0 143 -57q49 67 142 67q49 0 89.5 -20t61.5 -43l7 45q2 8 8 8h4q10 0 8 -8l-62 -426l287 202q5 3 9 -1l4 -6q3 -5 -3 -9l-280 -198l223 -243q5 -5 -1 -10l-4 -4q-6 -6 -11 1l-226 250l-34 -240q-2 -8 -9 -8h-4zM151 462h279l9 56
q10 65 36 109q-16 22 -51.5 38.5t-79.5 16.5q-72 0 -123.5 -45.5t-64.5 -141.5z" />
    <glyph glyph-name="f_h" unicode="fh" horiz-adv-x="846" 
d="M402 0h-4q-9 0 -7 8l88 617q-57 67 -150 67q-146 0 -170 -167l-9 -63h196q8 0 7 -7l-1 -4q-2 -7 -9 -7h-196l-93 -673q-2 -9 -9 -9h-5q-6 0 -4 9l93 673h-73q-9 0 -7 7l1 5q1 6 8 6h74l9 63q27 185 188 185q52 0 92 -19.5t61 -43.5l7 45q2 8 8 8h4q8 0 6 -8l-44 -307
q79 87 165 87q162 0 130 -214l-36 -250q-2 -8 -7 -8h-4q-9 0 -7 8l36 250q14 100 -13.5 148t-98.5 48q-14 0 -28 -2.5t-25.5 -6.5t-23.5 -10t-21 -12t-18.5 -14t-16 -14t-13 -13.5t-10 -11.5t-8.5 -10l-4 -5l-50 -347q-2 -8 -8 -8z" />
    <glyph glyph-name="f_f_b" unicode="ffb" horiz-adv-x="1160" 
d="M695 0q-8 0 -6 8l88 617q-12 14 -28.5 27t-50 26.5t-69.5 13.5q-68 0 -114 -45t-58 -129l-9 -56h196q8 0 7 -7l-1 -4q-2 -7 -9 -7h-196l-93 -673q-2 -9 -9 -9h-4q-8 0 -6 9l94 673h-279l-94 -673q-2 -9 -7 -9h-5q-8 0 -6 9l94 673h-63q-4 0 -6 1.5t-1 4.5l1 6q1 6 9 6h63
l5 33q14 106 71 155.5t135 49.5q92 0 143 -57q49 67 142 67q49 0 89.5 -20t61.5 -43l7 45q2 8 7 8h5q9 0 7 -8l-41 -279q7 7 20.5 16.5t54 26t79.5 16.5q80 0 128.5 -58t48.5 -147q0 -115 -69 -196.5t-161 -81.5q-56 0 -93.5 23t-55.5 52l-9 -56q-2 -8 -8 -8h-5zM721 95
q1 -4 6 -12.5t17 -22t27.5 -25t41 -20t53.5 -8.5q84 0 148 77t64 183q0 81 -44.5 134t-114.5 53q-42 0 -81.5 -18t-57.5 -36l-18 -17zM151 462h279l9 56q10 65 36 109q-16 22 -51.5 38.5t-79.5 16.5q-72 0 -123.5 -45.5t-64.5 -141.5z" />
    <glyph glyph-name=".notdef" horiz-adv-x="599" 
d="M50 30v640q0 30 30 30h439q30 0 30 -30v-640q0 -30 -30 -30h-439q-30 0 -30 30zM262 314q0 -12 14 -12h36q15 0 15 13v26q0 16 16.5 32t36 28.5t36 36.5t16.5 53q0 48 -35.5 79.5t-89.5 31.5q-24 0 -46.5 -6.5t-37 -15t-25.5 -17.5t-16 -15l-5 -7q-8 -12 0 -18l22 -22
q9 -6 17 0q1 1 7.5 7t9.5 9t11.5 8.5t15.5 8.5t18 5.5t22 2.5q29 0 45 -15t16 -37q0 -21 -15.5 -39t-34 -30t-34 -32.5t-15.5 -45.5v-29zM245 156q0 -20 14.5 -34t33.5 -14q20 0 34.5 14t14.5 34t-14.5 34t-34.5 14q-19 0 -33.5 -14t-14.5 -34z" />
    <glyph glyph-name=".null" horiz-adv-x="0" 
 />
    <glyph glyph-name=".null" horiz-adv-x="0" 
 />
    <glyph glyph-name="nonmarkingreturn" horiz-adv-x="333" 
 />
    <glyph glyph-name="CR" unicode="&#xd;" horiz-adv-x="0" 
 />
    <glyph glyph-name="space" unicode=" " horiz-adv-x="240" 
 />
    <glyph glyph-name="exclam" unicode="!" horiz-adv-x="226" 
d="M108 267q-6 0 -6 7l59 419q0 7 9 7h3q6 0 6 -7l-60 -419q0 -7 -7 -7h-4zM51 11q0 11 8 18.5t19 7.5q8 0 13.5 -6t5.5 -14q0 -11 -8 -19t-18 -8q-8 0 -14 6.5t-6 14.5z" />
    <glyph glyph-name="quotedbl" unicode="&#x22;" horiz-adv-x="298" 
d="M244 501q-6 0 -6 7l26 185q0 7 7 7h4q6 0 6 -7l-27 -185q0 -7 -7 -7h-3zM110 501q-7 0 -5 7l25 185q2 7 8 7h4q7 0 5 -7l-26 -185q-2 -7 -8 -7h-3z" />
    <glyph glyph-name="numbersign" unicode="#" horiz-adv-x="533" 
d="M77 8l66 209h-87q-7 0 -5 7l1 3q2 7 6 7h89l61 194h-97q-8 0 -6 7l1 4q2 7 7 7h101l78 248q2 6 7 6h3q8 0 6 -8l-78 -246h157l78 248q2 6 6 6h4q8 0 5 -8l-77 -246h85q7 0 5 -7l-1 -4q-2 -7 -6 -7h-88l-60 -194h95q8 0 6 -7l-1 -3q-2 -7 -7 -7h-99l-66 -211q-2 -6 -7 -6
h-4q-8 0 -5 8l66 209h-157l-66 -211q-2 -6 -7 -6h-4q-8 0 -5 8zM165 234h156l60 194h-156z" />
    <glyph glyph-name="dollar" unicode="$" 
d="M84 73q-4 4 1 9l5 4q6 4 9 -1q70 -75 161 -77l48 339q-83 26 -125 61t-42 101q0 78 56 138.5t162 61.5l6 43q0 7 7 7h4q6 0 6 -7l-7 -44q37 -2 71 -14.5t50 -23.5l16 -12q4 -3 0 -12q-5 -9 -12 -4q-67 45 -127 48q-16 -110 -46 -330q81 -27 122 -66t41 -106
q0 -83 -65.5 -139.5t-150.5 -58.5l-15 -113q-2 -6 -8 -6q-3 0 -5 0.5t-3 2t-1 3.5l16 113q-46 1 -88.5 21t-58.5 34.5t-27 27.5zM310 365l46 326q-97 -1 -147 -55t-50 -124q0 -59 38 -91.5t113 -55.5zM277 8q76 3 135.5 55t59.5 125q0 60 -37.5 94.5t-110.5 59.5z" />
    <glyph glyph-name="percent" unicode="%" horiz-adv-x="643" 
d="M203 427q-47 0 -77.5 35.5t-30.5 87.5q0 67 44.5 113.5t103.5 46.5q47 0 77.5 -35.5t30.5 -86.5q0 -68 -44.5 -114.5t-103.5 -46.5zM83 4q-3 3 0 8l470 686q3 5 7 1l6 -3q5 -3 1 -8l-470 -686q-4 -5 -7 -3zM206 445q50 0 89 41.5t39 98.5q0 45 -26.5 76t-67.5 31
q-51 0 -89 -41.5t-38 -98.5q0 -45 26 -76t67 -31zM312 112q0 68 44.5 114.5t104.5 46.5q46 0 77 -36t31 -87q0 -67 -45 -113.5t-103 -46.5q-47 0 -78 35.5t-31 86.5zM330 115q0 -45 26 -76t67 -31q51 0 89 41.5t38 98.5q0 45 -25.5 76t-66.5 31q-51 0 -89.5 -41.5
t-38.5 -98.5z" />
    <glyph glyph-name="ampersand" unicode="&#x26;" horiz-adv-x="629" 
d="M65 150q0 81 45 134.5t125 94.5l-21 30q-50 69 -50 134q0 68 50 117.5t120 49.5q60 0 90.5 -37.5t30.5 -91.5q0 -117 -192 -206l183 -240q50 55 78.5 127.5t28.5 134.5q0 8 6 8h6q6 0 6 -8q0 -63 -30 -140.5t-83 -134.5l85 -108q4 -4 0 -8l-8 -6q-3 -3 -7 1l-83 107
q-48 -55 -110 -86.5t-126 -31.5q-66 0 -105 46.5t-39 113.5zM251 387q186 89 186 194q0 46 -26.5 79t-78.5 33q-58 0 -104.5 -43.5t-46.5 -105.5q0 -59 44 -122q2 -2 11 -15t15 -20zM82 149q0 -60 35 -101t94 -41q122 0 223 115l-187 245q-78 -41 -121.5 -91t-43.5 -127z
" />
    <glyph glyph-name="quotesingle" unicode="'" horiz-adv-x="165" 
d="M111 501q-6 0 -6 7l26 185q0 7 7 7h5q7 0 5 -7l-26 -185q-2 -7 -7 -7h-4z" />
    <glyph glyph-name="parenleft" unicode="(" horiz-adv-x="320" 
d="M63 209q0 107 17 193t45 141.5t65.5 93.5t75.5 54.5t78 18.5q8 0 6 -7v-4q0 -7 -8 -7q-49 -3 -92.5 -29.5t-83 -80t-62.5 -150t-23 -223.5q0 -135 44 -200.5t111 -69.5q6 0 6 -7l-1 -4q0 -6 -7 -6q-73 3 -122 73t-49 214z" />
    <glyph glyph-name="parenright" unicode=")" horiz-adv-x="320" 
d="M-13 -61q49 5 92.5 31.5t83 80t62.5 149t23 222.5q0 137 -43.5 201.5t-111.5 68.5q-8 0 -6 7l1 5q2 6 7 6q73 -4 122 -73.5t49 -213.5q0 -107 -17 -193t-45 -141.5t-65.5 -93.5t-75.5 -54.5t-78 -18.5q-6 0 -6 6v4q0 7 8 7z" />
    <glyph glyph-name="asterisk" unicode="*" horiz-adv-x="401" 
d="M214 406q-6 0 -6 7l18 124l-105 -62q-6 -3 -7 1l-3 7q-2 5 4 7l104 63l-87 63q-4 2 -1 7q2 2 4 6q3 6 8 2l87 -62l18 124q0 7 7 7h4q6 0 6 -7l-18 -124l105 62q5 3 8 -2l2 -6q2 -5 -3 -7l-105 -63l87 -63q4 -2 2 -7l-5 -7q-2 -4 -8 -1l-87 62l-18 -124q0 -7 -7 -7h-4z
" />
    <glyph glyph-name="plus" unicode="+" 
d="M273 153l27 186h-167q-8 0 -6 7l1 4q2 7 7 7h167l26 185q2 7 8 7h4q6 0 6 -7l-26 -185h165q8 0 6 -7l-1 -4q-2 -7 -7 -7h-166l-26 -186q-2 -7 -8 -7h-4q-6 0 -6 7z" />
    <glyph glyph-name="comma" unicode="," horiz-adv-x="178" 
d="M23 11q0 11 9 19t21 8q19 0 28.5 -19.5t9.5 -47.5q0 -81 -72 -134q-8 -5 -11 0l-3 6q-3 6 4 11q62 44 62 117q0 17 -5 29q-10 -10 -22 -10q-9 0 -15 6t-6 15z" />
    <glyph glyph-name="hyphen" unicode="-" horiz-adv-x="368" 
d="M69 243q-7 0 -5 7l1 4q2 7 7 7h218q6 0 4 -7l-1 -4q-2 -7 -6 -7h-218z" />
    <glyph glyph-name="period" unicode="." horiz-adv-x="180" 
d="M29 14q0 13 9 21.5t21 8.5q10 0 16 -6.5t6 -16.5q0 -13 -9 -22.5t-20 -9.5q-10 0 -16.5 7.5t-6.5 17.5z" />
    <glyph glyph-name="slash" unicode="/" horiz-adv-x="352" 
d="M21 0q-5 2 -1 7l316 689q1 4 6 4h6q8 0 3 -8l-316 -688q-2 -4 -8 -4h-6z" />
    <glyph glyph-name="zero" unicode="0" horiz-adv-x="631" 
d="M274 -11q-90 0 -138 72t-48 199q0 204 78 327t210 123q89 0 137 -72t48 -198q0 -204 -78 -327.5t-209 -123.5zM276 7q124 0 195 117.5t71 314.5q0 118 -43.5 185t-125.5 67q-124 0 -195 -117.5t-71 -313.5q0 -119 43.5 -186t125.5 -67z" />
    <glyph glyph-name="one" unicode="1" horiz-adv-x="338" 
d="M161 7l94 666l-169 -124q-5 -4 -7 1l-4 7q-2 3 3 7l188 139q4 4 8 1.5t3 -7.5l-97 -690q-2 -7 -8 -7h-5q-6 0 -6 7z" />
    <glyph glyph-name="two" unicode="2" horiz-adv-x="520" 
d="M18 0q-4 0 -5.5 4.5t2.5 7.5l302 275q73 67 108.5 122t35.5 123t-42 114t-121 46q-21 0 -41 -5.5t-35.5 -14t-29 -18.5t-23 -20t-16.5 -18.5t-11 -13.5l-3 -6q-3 -5 -7 -3l-7 4q-4 4 -1 10q3 4 8 11t22 25t36 31.5t49 24.5t61 11q87 0 133.5 -50.5t46.5 -124.5
t-37.5 -133t-113.5 -128l-279 -255h346q6 0 6 -8l-1 -4q0 -7 -7 -7h-376z" />
    <glyph glyph-name="three" unicode="3" horiz-adv-x="554" 
d="M44 82q-3 7 1 10l5 4q5 3 8 -2q63 -86 160 -86q98 0 161 58t63 143q0 58 -39.5 101.5t-104.5 43.5h-123q-8 0 -6 9l1 4q2 6 7 6h121q66 0 120.5 52t54.5 129q0 61 -38 99.5t-102 38.5q-107 0 -180 -85q-3 -5 -8 -2l-5 4q-4 3 -1 8q8 10 19 20t36.5 29.5t63 31.5t79.5 12
q70 0 112.5 -43.5t42.5 -110.5q0 -69 -40.5 -121t-98.5 -70v-1q48 -15 77.5 -58.5t29.5 -95.5q0 -92 -68.5 -156t-173.5 -64q-67 0 -114.5 33t-59.5 59z" />
    <glyph glyph-name="four" unicode="4" horiz-adv-x="579" 
d="M27 164q-5 0 -6 3.5t2 7.5l477 540q2 2 4.5 2.5t3.5 -1t1 -4.5l-74 -531h66q7 0 6 -6l-1 -5q-2 -6 -9 -6h-64l-23 -157q0 -7 -7 -7h-5q-7 0 -5 7l23 157h-389zM52 181h366l70 495z" />
    <glyph glyph-name="five" unicode="5" horiz-adv-x="552" 
d="M58 78q-3 7 1 10l7 4q5 4 8 -2q48 -82 153 -82q100 0 169 75t69 184q0 155 -173 155h-170q-6 0 -6 8l37 263q2 7 8 7h303q7 0 5 -7l-1 -3q-2 -7 -8 -7h-289l-35 -243h156q94 1 143 -44t49 -129q0 -116 -75.5 -196.5t-181.5 -80.5q-118 0 -169 88z" />
    <glyph glyph-name="six" unicode="6" horiz-adv-x="563" 
d="M73 228q0 92 31 173t74.5 133t99 94.5t94 62t71.5 30.5q7 2 7 -3l1 -7q2 -6 -5 -8q-27 -10 -58.5 -25.5t-78.5 -47.5t-86 -71t-73 -98t-48 -126q36 46 93.5 83.5t129.5 37.5q74 0 124 -53.5t50 -139.5q0 -112 -74.5 -192.5t-170.5 -80.5q-86 0 -133.5 67t-47.5 171z
M91 230q0 -97 43 -159.5t120 -62.5q90 0 158.5 75t68.5 180q0 77 -45.5 126t-112.5 49q-47 0 -90 -19t-73.5 -49t-42 -44t-20.5 -27q-6 -15 -6 -69z" />
    <glyph glyph-name="seven" unicode="7" horiz-adv-x="469" 
d="M109 9l361 674h-379q-7 0 -5 6l1 5q1 6 5 6h398q8 0 4 -9l-371 -690q-3 -6 -8 -3l-5 2q-5 2 -1 9z" />
    <glyph glyph-name="eight" unicode="8" horiz-adv-x="579" 
d="M66 153q0 85 51 138t139 69q-57 14 -90.5 53.5t-33.5 94.5q0 79 55 140.5t159 61.5q84 0 127 -46.5t43 -112.5q0 -72 -48.5 -123.5t-125.5 -68.5q65 -13 103.5 -56.5t38.5 -100.5q0 -105 -66.5 -158.5t-170.5 -53.5q-81 0 -131 42t-50 121zM302 370q84 5 139.5 53.5
t55.5 127.5q0 60 -38 101.5t-114 41.5q-95 0 -145.5 -56t-50.5 -129q0 -60 42.5 -97.5t110.5 -41.5zM84 154q0 -72 45.5 -110t120.5 -38q92 0 154 50.5t62 144.5q0 60 -45.5 101t-122.5 47q-98 -8 -156 -58.5t-58 -136.5z" />
    <glyph glyph-name="nine" unicode="9" horiz-adv-x="564" 
d="M481 367q-37 -46 -94.5 -84t-129.5 -38q-74 0 -124 54t-50 140q0 111 75 191t170 80q87 0 134.5 -66.5t47.5 -169.5q0 -92 -31.5 -173.5t-74.5 -133.5t-99 -94.5t-94.5 -62.5t-70.5 -31q-6 -2 -7 4l-2 7q-2 6 6 8q27 9 58.5 25t78 48.5t85.5 71.5t73.5 98t48.5 126z
M259 264q38 0 75.5 14.5t61.5 31.5t47 41t30 33.5t13 18.5q5 25 5 69q0 96 -42.5 157.5t-120.5 61.5q-90 0 -158 -73.5t-68 -178.5q0 -77 45 -126t112 -49z" />
    <glyph glyph-name="colon" unicode=":" horiz-adv-x="207" 
d="M123 419q-9 0 -15.5 7t-6.5 16q0 14 8.5 23t20.5 9q22 0 22 -24q0 -12 -8.5 -21.5t-20.5 -9.5zM40 13q0 13 9 21.5t21 8.5q10 0 16 -6.5t6 -16.5q0 -13 -8.5 -22.5t-20.5 -9.5q-10 0 -16.5 7.5t-6.5 17.5z" />
    <glyph glyph-name="semicolon" unicode=";" horiz-adv-x="252" 
d="M135 419q-9 0 -15 7t-6 16q0 14 8 23t20 9q22 0 22 -24q0 -12 -8.5 -21.5t-20.5 -9.5zM55 11q0 11 9 19t21 8q19 0 28.5 -19.5t9.5 -47.5q0 -81 -72 -134q-8 -5 -11 0l-3 6q-3 6 4 11q62 44 62 117q0 17 -5 29q-10 -10 -22 -10q-9 0 -15 6t-6 15z" />
    <glyph glyph-name="less" unicode="&#x3c;" 
d="M118 225q-9 7 1 13l360 235q4 3 7 -2l3 -8q3 -5 -2 -8l-346 -226l283 -215q6 -4 1 -9l-4 -5q-4 -4 -8 -2z" />
    <glyph glyph-name="equal" unicode="=" 
d="M164 382q-8 0 -6 7l1 4q2 7 8 7h297q8 0 6 -7l-1 -4q-2 -7 -8 -7h-297zM135 176q-8 0 -6 7l1 4q2 7 8 7h297q8 0 6 -7l-1 -4q-2 -7 -8 -7h-297z" />
    <glyph glyph-name="greater" unicode="&#x3e;" 
d="M107 -1q-6 -3 -9 1l-2 4q-4 5 2 9l345 222l-281 223q-4 4 -1 9l3 4q4 5 9 2l295 -235q8 -6 -2 -12z" />
    <glyph glyph-name="question" unicode="?" horiz-adv-x="449" 
d="M202 257q-7 0 -5 7l9 60q2 17 8.5 30.5t21 25.5t23 17t29.5 18q118 69 118 166q0 46 -34.5 79t-89.5 33q-29 0 -57 -8.5t-46.5 -20.5t-33 -24t-21.5 -20l-6 -9q-5 -7 -11 -3l-4 3q-5 3 -1 9q3 4 8 10t22 21.5t36.5 27.5t50.5 21.5t63 9.5q65 0 103 -36.5t38 -92.5
q0 -106 -128 -181q-25 -15 -36 -22.5t-22.5 -22.5t-13.5 -33l-8 -58q-2 -7 -8 -7h-5zM152 11q0 11 7.5 18.5t18.5 7.5q8 0 13.5 -6t5.5 -14q0 -11 -8 -19t-18 -8q-8 0 -13.5 6.5t-5.5 14.5z" />
    <glyph glyph-name="at" unicode="@" horiz-adv-x="925" 
d="M59 157q0 116 36.5 218t100 176t154.5 116.5t196 42.5q159 0 244 -92.5t85 -260.5q0 -142 -67.5 -240t-166.5 -97q-37 0 -57.5 22.5t-22.5 57.5q-56 -80 -149 -80q-67 0 -106 51t-39 128q0 102 61 171.5t146 69.5q79 0 123 -54l5 37q2 7 7 7h4q8 0 6 -7l-40 -289
q-6 -42 10.5 -69t51.5 -27q93 0 155 94.5t62 224.5q0 160 -80 247.5t-232 87.5q-135 0 -243 -70.5t-167.5 -192.5t-59.5 -272q0 -123 57 -219.5t152 -144.5q6 -3 2 -10l-2 -4q-3 -6 -8 -3q-99 50 -158.5 151t-59.5 230zM284 200q0 -69 36 -115.5t92 -46.5q30 0 56.5 10
t42.5 24t28 28.5t17 24.5l5 10l32 224q-2 5 -9 13.5t-21 21t-37.5 21t-51.5 8.5q-79 0 -134.5 -64.5t-55.5 -158.5z" />
    <glyph glyph-name="A" unicode="A" horiz-adv-x="587" 
d="M-9 1q-2 -4 -6 -3l-8 3q-4 1 -2 6l377 710q1 4 6 4h1q4 0 5 -4l172 -709q1 -5 -4 -7l-5 -2q-5 -2 -7 3l-50 208h-369zM111 227h354l-110 461h-1z" />
    <glyph glyph-name="B" unicode="B" horiz-adv-x="584" 
d="M69 7l97 686q0 7 7 7h186q77 0 121.5 -39.5t44.5 -112.5q0 -68 -39 -117.5t-100 -70.5q52 -12 82 -49t30 -97q0 -95 -64 -154.5t-165 -59.5h-194q-6 0 -6 7zM138 367h176q84 0 138.5 50t54.5 131q0 64 -40 99t-110 35h-175zM89 18h183q90 0 148.5 54t58.5 142
q0 67 -40.5 101t-110.5 34h-193z" />
    <glyph glyph-name="C" unicode="C" horiz-adv-x="667" 
d="M69 301q0 167 115 288t264 121q122 0 208 -93q4 -4 0 -8l-5 -5q-4 -4 -8 0q-79 89 -195 89q-143 0 -252 -116.5t-109 -275.5q0 -123 75.5 -208t186.5 -85q118 0 223 93q4 3 7 0l5 -6q3 -3 -1 -7q-107 -98 -234 -98q-123 0 -201.5 89.5t-78.5 221.5z" />
    <glyph glyph-name="D" unicode="D" horiz-adv-x="677" 
d="M69 7l96 686q2 7 7 7h181q118 0 195 -88.5t77 -217.5q0 -106 -51.5 -197t-137 -144t-181.5 -53h-181q-5 0 -5 7zM88 18h169q138 0 244 111.5t106 264.5q0 121 -73 204.5t-184 83.5h-169z" />
    <glyph glyph-name="E" unicode="E" horiz-adv-x="547" 
d="M69 7l97 686q0 7 7 7h366q8 0 6 -7l-1 -4q-2 -7 -7 -7h-355l-43 -309h311q8 0 6 -7l-1 -4q-2 -7 -7 -7h-312l-47 -337h354q9 0 7 -7l-1 -4q-2 -7 -8 -7h-366q-6 0 -6 7z" />
    <glyph glyph-name="F" unicode="F" horiz-adv-x="526" 
d="M69 7l97 686q0 7 7 7h366q8 0 6 -7l-1 -4q-2 -7 -7 -7h-355l-47 -334h312q7 0 5 -6l-2 -7q-2 -5 -9 -5h-308q-18 -123 -46 -323q0 -7 -8 -7h-4q-6 0 -6 7z" />
    <glyph glyph-name="G" unicode="G" horiz-adv-x="695" 
d="M69 301q0 167 115 288t264 121q122 0 208 -93q4 -4 0 -8l-5 -5q-4 -4 -8 0q-79 89 -195 89q-143 0 -252 -116.5t-109 -275.5q0 -124 75 -208.5t190 -84.5q78 0 136.5 23.5t82.5 45.5l34 235h-202q-7 0 -5 7l1 4q2 6 7 6h212q6 0 6 -6l-36 -253q-6 -9 -32 -26t-84 -35.5
t-123 -18.5q-121 0 -200.5 90t-79.5 221z" />
    <glyph glyph-name="H" unicode="H" horiz-adv-x="692" 
d="M69 7l97 686q0 7 7 7h5q7 0 5 -7l-44 -320h440l45 320q2 7 7 7h5q8 0 6 -7l-97 -686q-2 -7 -7 -7h-5q-8 0 -6 7l49 348h-440l-49 -348q-2 -7 -8 -7h-4q-8 0 -6 7z" />
    <glyph glyph-name="I" unicode="I" horiz-adv-x="234" 
d="M69 7l96 686q2 7 8 7h4q8 0 6 -7l-96 -686q-2 -7 -8 -7h-4q-8 0 -6 7z" />
    <glyph glyph-name="J" unicode="J" horiz-adv-x="432" 
d="M122 -10q-52 0 -84 25t-45 52q-2 7 2 9l4 2q6 4 9 -1q38 -70 115 -70q73 0 120 54t61 153l68 479q0 7 7 7h4q7 0 5 -7l-67 -479q-15 -106 -66.5 -165t-132.5 -59z" />
    <glyph glyph-name="K" unicode="K" horiz-adv-x="504" 
d="M69 7l97 686q2 7 7 7h5q8 0 6 -7l-47 -330l380 336q6 4 10 0l3 -3q5 -5 0 -10l-378 -333l292 -343q4 -5 -1 -10l-5 -4q-5 -3 -9 2l-295 347l-47 -338q-2 -7 -8 -7h-4q-8 0 -6 7z" />
    <glyph glyph-name="L" unicode="L" horiz-adv-x="456" 
d="M69 7l97 686q2 7 7 7h5q7 0 5 -7l-95 -676h312q8 0 6 -6l-1 -4q-2 -7 -7 -7h-323q-6 0 -6 7z" />
    <glyph glyph-name="M" unicode="M" horiz-adv-x="794" 
d="M17 8l232 704q1 3 4 4.5t5.5 0t2.5 -4.5l99 -676l288 676q2 5 7 5t6 -5l37 -704q0 -7 -4 -8l-6 -1q-7 -2 -7 5l-35 662l-285 -674q-2 -5 -7 -5t-6 5l-96 674l-218 -662q-2 -6 -7 -6l-7 1q-6 1 -3 9z" />
    <glyph glyph-name="N" unicode="N" horiz-adv-x="710" 
d="M69 7l99 703q1 5 6 6.5t7 -2.5l367 -688l94 667q2 7 8 7h4q8 0 6 -7l-99 -701q-1 -5 -6 -6.5t-7 2.5l-367 688l-94 -669q-2 -7 -8 -7h-4q-8 0 -6 7z" />
    <glyph glyph-name="O" unicode="O" horiz-adv-x="780" 
d="M70 302q0 168 114.5 288t265.5 120q121 0 200 -90.5t79 -222.5q0 -167 -114.5 -287t-265.5 -120q-121 0 -200 90.5t-79 221.5zM88 303q0 -124 74.5 -209.5t186.5 -85.5q143 0 252.5 114.5t109.5 273.5q0 125 -74.5 210.5t-187.5 85.5q-143 0 -252 -115t-109 -274z" />
    <glyph glyph-name="P" unicode="P" horiz-adv-x="556" 
d="M69 7l97 686q0 7 7 7h188q76 0 126.5 -57.5t50.5 -139.5q0 -104 -73 -181t-167 -77h-177l-34 -238q-2 -7 -8 -7h-4q-8 0 -6 7zM123 263h177q86 0 152.5 71t66.5 167q0 75 -46 128t-115 53h-176z" />
    <glyph glyph-name="Q" unicode="Q" horiz-adv-x="780" 
d="M70 302q0 168 114.5 288t265.5 120q121 0 200 -90.5t79 -222.5t-75 -238t-188 -148l77 -190q3 -5 -2 -8l-10 -5q-4 -1 -6 3l-77 194q-48 -15 -99 -15q-121 0 -200 90.5t-79 221.5zM88 303q0 -124 74.5 -209.5t186.5 -85.5q143 0 252.5 114.5t109.5 273.5
q0 125 -74.5 210.5t-187.5 85.5q-143 0 -252 -115t-109 -274z" />
    <glyph glyph-name="R" unicode="R" horiz-adv-x="599" 
d="M69 7l97 686q0 7 7 7h214q76 0 126.5 -53t50.5 -133q0 -91 -57 -159t-138 -84l104 -264q2 -6 -3 -8l-6 -2q-4 -1 -6 3l-104 268q-9 -1 -29 -1h-202l-37 -260q0 -7 -7 -7h-4q-6 0 -6 7zM125 284h200q91 0 156.5 66t65.5 164q0 71 -46 119.5t-114 48.5h-206z" />
    <glyph glyph-name="S" unicode="S" horiz-adv-x="513" 
d="M41 73q-3 5 1 9l6 5q4 4 8 -1q8 -12 25 -27.5t57 -33.5t86 -18q82 0 144 49.5t62 125.5q0 66 -42 102t-127 66q-84 30 -123.5 65t-39.5 106q0 72 57 130.5t162 58.5q41 0 79 -13t56 -25l17 -13q4 -4 1 -8l-5 -6q-3 -5 -8 -2q-6 6 -18 14t-48.5 22t-73.5 14
q-98 0 -150 -53.5t-52 -118.5q0 -64 37 -96t117 -60q92 -32 135 -71t43 -112q0 -82 -65.5 -137t-157.5 -55q-38 0 -73 10.5t-57 26t-35 27t-18 19.5z" />
    <glyph glyph-name="T" unicode="T" horiz-adv-x="463" 
d="M181 7l95 675h-186q-8 0 -6 7l1 5q1 6 7 6h392q8 0 6 -7l-1 -5q-1 -6 -7 -6h-188l-95 -675q-2 -7 -8 -7h-4q-8 0 -6 7z" />
    <glyph glyph-name="U" unicode="U" horiz-adv-x="667" 
d="M96 252l62 441q2 7 7 7h5q7 0 5 -7l-61 -441q-4 -23 -4 -50q0 -89 48.5 -141.5t135.5 -52.5q98 0 166.5 67.5t83.5 176.5l62 441q2 7 8 7h5q7 0 5 -7l-62 -441q-17 -119 -87.5 -190.5t-183.5 -71.5q-92 0 -145.5 57.5t-53.5 153.5q0 17 4 51z" />
    <glyph glyph-name="V" unicode="V" horiz-adv-x="585" 
d="M240 -16l-170 708q-2 5 3 7l8 2q4 1 6 -5l163 -680l362 683q2 5 7 3l7 -3q5 -2 1 -8l-375 -707q-2 -3 -6.5 -4t-5.5 4z" />
    <glyph glyph-name="W" unicode="W" horiz-adv-x="805" 
d="M181 -12l-86 706q0 5 4 6l9 2q2 1 3.5 -1t1.5 -4l80 -666l260 677q2 5 7 5t6 -5l78 -676l261 667q2 5 7 3l7 -3q5 -2 2 -8l-276 -703q-1 -3 -4 -4.5t-5.5 0t-2.5 4.5l-79 678l-261 -678q-1 -3 -4 -4.5t-5.5 0t-2.5 4.5z" />
    <glyph glyph-name="X" unicode="X" horiz-adv-x="498" 
d="M-1 3q-4 3 0 9l249 345l-145 331q-2 7 2 9l7 4q5 3 7 -3l141 -325l235 325q3 5 8 3l6 -4q5 -2 0 -9l-240 -333l155 -344q2 -7 -3 -9l-7 -3q-5 -3 -7 3l-149 337l-244 -337q-4 -6 -8 -3z" />
    <glyph glyph-name="Y" unicode="Y" horiz-adv-x="509" 
d="M204 7l47 336l-188 345q-4 6 2 9l6 3q5 2 8 -3l182 -337l279 338q4 6 8 3l7 -4q6 -3 0 -9l-286 -344l-47 -338q-2 -6 -7 -6h-6q-6 0 -5 7z" />
    <glyph glyph-name="Z" unicode="Z" horiz-adv-x="476" 
d="M-8 0q-4 0 -5.5 3.5t1.5 7.5l486 671h-356q-7 0 -5 7l1 4q2 7 7 7h376q4 0 5.5 -3.5t-0.5 -7.5l-487 -671h368q7 0 5 -7l-1 -4q-2 -7 -8 -7h-387z" />
    <glyph glyph-name="bracketleft" unicode="[" horiz-adv-x="313" 
d="M38 -220h171q8 0 6 -7l-1 -4q-2 -7 -7 -7h-183q-7 0 -5 7l129 924q2 7 8 7h182q8 0 6 -7l-1 -4q-2 -7 -7 -7h-172z" />
    <glyph glyph-name="backslash" unicode="\" horiz-adv-x="346" 
d="M235 4l-122 690q-2 6 4 6h6q5 0 6 -4l122 -690q2 -6 -3 -6h-6q-6 0 -7 4z" />
    <glyph glyph-name="bracketright" unicode="]" horiz-adv-x="312" 
d="M-38 -220h171l126 902h-171q-7 0 -5 7l1 4q2 7 7 7h182q6 0 6 -7l-130 -924q-2 -7 -8 -7h-182q-8 0 -6 7l1 4q2 7 8 7z" />
    <glyph glyph-name="asciicircum" unicode="^" horiz-adv-x="472" 
d="M61 398l-5 4q-5 4 -1 8l239 305q7 7 11 0l149 -305q3 -5 -3 -8l-6 -4q-5 -3 -7 2l-140 292l-229 -292q-3 -5 -8 -2z" />
    <glyph glyph-name="underscore" unicode="_" horiz-adv-x="627" 
d="M124 -10h297q7 0 5 -7l-1 -4q-2 -6 -8 -6h-297q-7 0 -5 7l1 3q2 7 8 7z" />
    <glyph glyph-name="grave" unicode="`" horiz-adv-x="272" 
d="M254 560l-151 90q-5 3 -1 9l2 3q3 5 9 3l150 -91q5 -3 2 -7l-2 -4q-4 -6 -9 -3z" />
    <glyph glyph-name="a" unicode="a" horiz-adv-x="520" 
d="M50 195q0 117 69.5 197t168.5 80q90 0 142 -60l8 42q2 8 6 8h5q7 0 5 -8l-62 -446q-2 -8 -8 -8h-5q-7 0 -5 8l8 59q-21 -28 -66.5 -53t-95.5 -25q-78 0 -124 58.5t-46 147.5zM68 196q0 -81 42 -135t110 -54q52 0 98 29t68 65l40 284q-4 9 -16.5 22t-46.5 30t-75 17
q-92 0 -156 -74.5t-64 -183.5z" />
    <glyph glyph-name="b" unicode="b" horiz-adv-x="521" 
d="M56 0q-8 0 -6 8l98 684q2 8 7 8h5q9 0 7 -8l-41 -279q7 7 20.5 16.5t54 26t79.5 16.5q80 0 128.5 -58t48.5 -147q0 -115 -69 -196.5t-161 -81.5q-56 0 -93.5 23t-55.5 52l-9 -56q-2 -8 -8 -8h-5zM82 95q1 -4 6 -12.5t17 -22t27.5 -25t41 -20t53.5 -8.5q84 0 148 77
t64 183q0 81 -44.5 134t-114.5 53q-42 0 -81.5 -18t-57.5 -36l-18 -17z" />
    <glyph glyph-name="c" unicode="c" horiz-adv-x="497" 
d="M49 199q0 118 76.5 195.5t180.5 77.5q90 0 151 -61q3 -6 -1 -10l-5 -5q-5 -4 -10 1l-5 5q-6 5 -11 9.5t-14 11t-19.5 11.5t-23.5 10t-29 7.5t-33 2.5q-96 0 -167.5 -72.5t-71.5 -182.5q0 -80 50.5 -136t120.5 -56q17 0 34 3t31 8.5t27.5 12t24 13.5t20 14t15 12t10.5 9
l4 4q4 5 8 1l5 -5q5 -5 0 -10l-9.5 -9.5t-25 -19.5t-38.5 -24t-48.5 -18.5t-57.5 -8.5q-79 0 -134 60.5t-55 149.5z" />
    <glyph glyph-name="d" unicode="d" horiz-adv-x="520" 
d="M49 195q0 118 71.5 197.5t173.5 79.5q39 0 73 -15t49 -29l14 -15l40 279q0 8 6 8h7q6 0 4 -8l-95 -684q-1 -8 -8 -8h-5q-7 0 -5 8l8 56q-27 -29 -70.5 -52t-95.5 -23q-75 0 -121 59t-46 147zM67 195q0 -80 41.5 -134t107.5 -54q35 0 68 12.5t54.5 30t32.5 29t15 17.5
l41 289q-2 3 -5.5 7.5t-16 16.5t-26.5 21t-37 16.5t-48 7.5q-95 0 -161 -75t-66 -184z" />
    <glyph glyph-name="e" unicode="e" horiz-adv-x="493" 
d="M49 189q0 120 68.5 201.5t172.5 81.5q72 0 116 -36t44 -90q0 -63 -67.5 -98.5t-186.5 -35.5q-63 0 -127 10q-2 -22 -2 -31q0 -82 42 -133t116 -51q80 0 146 51q6 5 9 -1l3 -6q2 -4 -1 -7q-18 -18 -65.5 -36.5t-91.5 -18.5q-86 0 -131 56.5t-45 143.5zM71 240
q73 -10 124 -10q111 0 174 30t63 86q0 46 -39 77t-103 31q-85 0 -145.5 -61t-73.5 -153z" />
    <glyph glyph-name="f" unicode="f" horiz-adv-x="347" 
d="M42 -238q-8 0 -6 9l94 673h-63q-4 0 -6 1.5t-1 4.5l1 6q1 6 8 6h64l9 66q24 182 160 182q71 0 111 -47q5 -6 -1 -12l-2 -2q-6 -5 -11 0q-44 44 -97 44q-120 0 -142 -165l-9 -66h187q8 0 7 -7l-1 -5q-2 -6 -8 -6h-188l-93 -673q-2 -9 -8 -9h-5z" />
    <glyph glyph-name="g" unicode="g" horiz-adv-x="521" 
d="M49 196q0 116 69.5 196t169.5 80q89 0 143 -62l7 44q2 8 6 8h5q7 0 5 -8l-61 -451q-16 -117 -68.5 -169.5t-129.5 -52.5q-38 0 -73.5 17.5t-50.5 32t-25 27.5q-5 6 1 11l5 4q4 2 7 -1q61 -73 137 -73q71 0 118 51.5t61 155.5l6 40q-64 -57 -146 -57q-85 0 -135.5 59
t-50.5 148zM67 196q0 -80 46 -134.5t122 -54.5q30 0 58 8.5t46.5 21.5t29.5 22.5t15 15.5l42 306q-5 9 -17 23t-46 32t-75 18q-92 0 -156.5 -74.5t-64.5 -183.5z" />
    <glyph glyph-name="h" unicode="h" horiz-adv-x="505" 
d="M61 0h-4q-9 0 -7 8l98 684q2 8 8 8h4q8 0 6 -8l-44 -307q79 87 165 87q162 0 130 -214l-36 -250q-2 -8 -7 -8h-4q-9 0 -7 8l36 250q14 100 -13.5 148t-98.5 48q-14 0 -28 -2.5t-25.5 -6.5t-23.5 -10t-21 -12t-18.5 -14t-16 -14t-13 -13.5t-10 -11.5t-7.5 -10l-5 -5
l-50 -347q-2 -8 -8 -8z" />
    <glyph glyph-name="i" unicode="i" horiz-adv-x="198" 
d="M57 0q-9 0 -7 8l63 446q2 8 8 8h5q8 0 6 -8l-63 -446q-2 -8 -7 -8h-5zM143 605q-20 0 -20 21q0 10 8.5 18.5t18.5 8.5q19 0 19 -21q0 -11 -7.5 -19t-18.5 -8z" />
    <glyph glyph-name="j" unicode="j" horiz-adv-x="197" 
d="M145 605q-20 0 -20 21q0 10 8.5 18.5t18.5 8.5q19 0 19 -21q0 -11 -7.5 -19t-18.5 -8zM125 462q8 0 6 -8l-73 -519q-11 -83 -48.5 -126t-106.5 -58q-9 -1 -10 5l-1 5q-1 6 8 8q63 15 96 52.5t44 113.5l73 519q2 8 8 8h4z" />
    <glyph glyph-name="k" unicode="k" horiz-adv-x="417" 
d="M57 0q-9 0 -7 8l98 684q2 8 8 8h4q10 0 8 -8l-62 -426l287 202q5 3 9 -1l4 -6q3 -5 -3 -9l-280 -198l223 -243q4 -5 -1 -10l-4 -4q-6 -6 -11 1l-226 250l-34 -240q-2 -8 -9 -8h-4z" />
    <glyph glyph-name="l" unicode="l" horiz-adv-x="214" 
d="M69 0h-4q-9 0 -7 8l98 684q2 8 7 8h5q8 0 6 -8l-97 -684q-2 -8 -8 -8z" />
    <glyph glyph-name="m" unicode="m" horiz-adv-x="763" 
d="M57 0q-9 0 -7 8l63 446q2 8 7 8h5q8 0 6 -8l-8 -63q64 81 155 81q90 0 117 -88q66 88 157 88q153 0 123 -214l-35 -250q-2 -8 -8 -8h-4q-9 0 -7 8l36 250q28 196 -105 196q-17 0 -32.5 -3.5t-27.5 -8t-24.5 -13t-20 -14.5t-16.5 -16t-13 -15t-10.5 -14t-7.5 -10
q7 -37 -3 -102l-35 -250q-2 -8 -8 -8h-4q-9 0 -7 8l36 250q28 196 -101 196q-100 0 -160 -95l-49 -351q-2 -8 -8 -8h-4z" />
    <glyph glyph-name="n" unicode="n" horiz-adv-x="506" 
d="M50 8l64 446q2 8 7 8h5q5 0 5 -8l-8 -63q76 81 165 81q162 0 130 -214l-35 -250q-2 -8 -8 -8h-5q-8 0 -6 8l36 250q28 196 -112 196q-44 0 -84 -21t-57 -39.5t-28 -34.5l-50 -351q-2 -8 -8 -8h-4q-9 0 -7 8z" />
    <glyph glyph-name="o" unicode="o" horiz-adv-x="537" 
d="M49 197q0 113 73.5 194t172.5 81q79 0 128.5 -59.5t49.5 -146.5q0 -114 -73 -195.5t-172 -81.5q-80 0 -129.5 59.5t-49.5 148.5zM67 197q0 -80 45.5 -135t115.5 -55q91 0 159 77t68 182q0 80 -44.5 134t-115.5 54q-91 0 -159.5 -76.5t-68.5 -180.5z" />
    <glyph glyph-name="p" unicode="p" horiz-adv-x="519" 
d="M74 47l-39 -277q-2 -8 -7 -8h-5q-8 0 -6 8l96 685q1 7 7 7h5q6 0 5 -7l-5 -43q65 60 158 60q78 0 125 -57.5t47 -144.5q0 -118 -72 -199.5t-177 -81.5q-84 0 -132 58zM78 74q4 -9 15 -22t42 -29t71 -16q97 0 164 76.5t67 186.5q0 80 -43 132t-111 52q-33 0 -64 -9
t-51 -22t-31 -23t-16 -16z" />
    <glyph glyph-name="q" unicode="q" horiz-adv-x="520" 
d="M49 196q0 116 69.5 196t169.5 80q88 0 142 -62l8 44q2 8 6 8h5q7 0 5 -8l-95 -683q-2 -9 -7 -9h-4q-9 0 -7 9l39 275q-64 -57 -145 -57q-85 0 -135.5 59t-50.5 148zM67 196q0 -81 46 -135t122 -54q39 0 74.5 15.5t51 29t22.5 22.5l43 309q-4 9 -16.5 22.5t-46.5 31
t-75 17.5q-92 0 -156.5 -74.5t-64.5 -183.5z" />
    <glyph glyph-name="r" unicode="r" horiz-adv-x="347" 
d="M61 0h-5q-8 0 -6 8l63 446q2 8 7 8h6q6 0 4 -8l-7 -61q23 30 61.5 54.5t84.5 24.5q42 0 73 -19q6 -4 1 -11l-2 -3q-3 -6 -10 -2q-25 17 -62 17q-38 0 -74.5 -22.5t-51 -39.5t-24.5 -32l-51 -352q-2 -8 -7 -8z" />
    <glyph glyph-name="s" unicode="s" horiz-adv-x="402" 
d="M165 -11q-79 0 -133 51q-6 6 0 11l4 4q6 5 10 1q46 -49 119 -49q60 0 103.5 33t43.5 82q0 18 -7.5 33.5t-16.5 25t-29.5 20t-33.5 16t-41 15.5q-61 22 -89 49t-28 71t41 82t112 38t116 -35q5 -4 1 -10l-3 -4q-4 -6 -10 -2q-46 33 -104 33q-63 0 -99 -32t-36 -70t25.5 -60
t82.5 -44q30 -12 43 -17.5t35.5 -17.5t32 -23t18 -29t8.5 -39q0 -57 -49 -95t-116 -38z" />
    <glyph glyph-name="t" unicode="t" horiz-adv-x="322" 
d="M148 -11q-55 0 -69 34.5t-5 100.5l45 320h-46q-6 0 -4 8l1 2q2 8 7 8h45l17 125q2 7 6 7h5q8 0 6 -7l-16 -125h168q9 0 7 -8l-1 -2q-2 -8 -9 -8h-168l-45 -320q-11 -49 -0.5 -83t56.5 -34q60 0 117 38q6 4 10 -2l3 -6q3 -4 -3 -8q-19 -12 -56.5 -26t-70.5 -14z" />
    <glyph glyph-name="u" unicode="u" horiz-adv-x="496" 
d="M202 7q34 0 64 12t50 31.5t29 30t15 20.5l50 353q2 8 8 8h5q8 0 6 -8l-63 -446q-2 -8 -8 -8h-5q-7 0 -5 8l8 61q-70 -80 -154 -80q-161 0 -131 212l36 254q1 7 8 7h4q8 0 6 -8l-35 -253q-29 -194 112 -194z" />
    <glyph glyph-name="v" unicode="v" horiz-adv-x="441" 
d="M172 -12l-118 469q-2 7 3 8l7 3q6 1 8 -5l109 -445l237 446q3 7 9 4l5 -2q6 -2 3 -9l-249 -469q-3 -5 -7.5 -5t-6.5 5z" />
    <glyph glyph-name="w" unicode="w" horiz-adv-x="637" 
d="M137 -12l-72 470q-2 9 4 10l5 1q6 1 8 -5l67 -438l187 449q2 7 8 7t8 -8l61 -449l190 440q3 5 7 4l7 -3q5 -1 2 -8l-202 -470q-4 -5 -9 -5.5t-7 5.5l-61 452l-188 -452q-3 -5 -8.5 -5.5t-6.5 5.5z" />
    <glyph glyph-name="x" unicode="x" horiz-adv-x="420" 
d="M1 2q-4 4 0 9l191 230l-123 212q-3 7 2 10l5 3q6 3 9 -3l120 -208l181 212q4 5 8 1l5 -5q3 -3 1 -8l-185 -216l128 -228q5 -7 -2 -10l-6 -3q-5 -2 -8 2l-125 227l-187 -229q-5 -4 -8 -1z" />
    <glyph glyph-name="y" unicode="y" horiz-adv-x="440" 
d="M173 10l-119 447q-2 6 3 8l6 2q6 2 8 -4l114 -433l232 435q4 6 9 3l5 -2q6 -3 3 -9l-375 -696q-3 -6 -9 -3l-4 2q-5 4 -2 10z" />
    <glyph glyph-name="z" unicode="z" horiz-adv-x="394" 
d="M1 0q-5 0 -6.5 4t2.5 9l351 431h-256q-9 0 -7 7l1 5q1 6 8 6h278q5 0 7 -4t-2 -9l-352 -431h273q8 0 6 -7l-1 -4q-1 -7 -8 -7h-294z" />
    <glyph glyph-name="braceleft" unicode="{" horiz-adv-x="328" 
d="M75 -15l21 148q6 41 -15 66t-45 25q-7 0 -6 7l1 4q2 7 7 7q22 0 51 24.5t35 66.5l20 145q18 131 70 181.5t143 50.5q8 0 6 -7l-1 -4q-2 -7 -8 -7q-79 0 -127 -47t-65 -167l-20 -145q-5 -36 -26 -61.5t-48 -38.5q55 -32 46 -100l-21 -148q-17 -121 18 -168.5t114 -47.5
q8 0 6 -7l-1 -4q-2 -7 -8 -7q-180 0 -147 234z" />
    <glyph glyph-name="bar" unicode="|" horiz-adv-x="197" 
d="M18 -231l138 983q2 7 8 7h4q7 0 5 -7l-138 -983q-2 -7 -7 -7h-4q-8 0 -6 7z" />
    <glyph glyph-name="braceright" unicode="}" horiz-adv-x="328" 
d="M150 -15l21 148q5 36 26 61.5t48 38.5q-55 32 -46 100l20 145q17 120 -18 167t-114 47q-8 0 -6 7l1 4q2 7 8 7q86 0 125.5 -52.5t21.5 -179.5l-20 -145q-6 -42 16 -66.5t44 -24.5q8 0 6 -7l-1 -4q-1 -7 -7 -7q-24 0 -52.5 -25t-33.5 -66l-21 -148q-19 -132 -70.5 -183
t-141.5 -51q-8 0 -6 7l1 4q2 7 8 7q78 0 126 47.5t65 168.5z" />
    <glyph glyph-name="asciitilde" unicode="~" horiz-adv-x="543" 
d="M72 250l-8 4q-3 3 0 8q2 4 6 10.5t17.5 23t27.5 29.5t36.5 23.5t44.5 10.5q21 0 39 -12t26.5 -23.5t19.5 -30.5q31 -53 70 -53q30 0 59 22t42 44l14 22q3 5 8 3l6 -3q5 -2 2 -8q-2 -4 -6 -10.5t-17 -23t-27.5 -29.5t-36.5 -23.5t-44 -10.5t-40 11t-26.5 22t-19.5 30
q-32 55 -69 55q-31 0 -60 -22t-42 -44l-14 -22q-3 -6 -8 -3z" />
    <glyph glyph-name="uni00A0" unicode="&#xa0;" horiz-adv-x="240" 
 />
    <glyph glyph-name="exclamdown" unicode="&#xa1;" horiz-adv-x="201" 
d="M120 425q-8 0 -13.5 6t-5.5 14q0 11 8 19t18 8q8 0 14 -6.5t6 -14.5q0 -11 -8 -18.5t-19 -7.5zM79 188q0 7 7 7h4q6 0 6 -7l-59 -419q0 -7 -9 -7h-3q-6 0 -6 7z" />
    <glyph glyph-name="cent" unicode="&#xa2;" horiz-adv-x="525" 
d="M138 -93l36 97q-52 23 -83.5 75.5t-31.5 119.5q0 117 75.5 194.5t182.5 77.5q14 0 36 -4l17 44q2 8 10 6l3 -1q7 -2 4 -11l-16 -42q55 -14 96 -55q4 -5 -1 -10l-5 -5q-7 -5 -11 1q-30 35 -87 50l-163 -428q30 -7 53 -7q25 0 51 7.5t45 18.5t34 22t23 19l9 7q4 4 9 1l3 -4
q5 -5 1 -9l-4 -5q-5 -4 -14 -11.5t-20.5 -16t-27 -17t-33 -16t-38.5 -12t-42 -4.5q-33 0 -57 8l-37 -97q-3 -7 -8 -5l-5 1q-7 1 -4 11zM184 23l161 424q-3 0 -9.5 1t-11.5 1.5t-9 0.5q-94 0 -165 -70.5t-71 -176.5q0 -62 29 -111t76 -69z" />
    <glyph glyph-name="sterling" unicode="&#xa3;" 
d="M93 10q85 166 80 301h-38q-8 0 -6 7l1 4q2 6 7 6h36q-7 91 -7 124q0 119 61.5 188.5t147.5 69.5q101 0 158 -72q3 -4 -2 -9l-4 -4q-5 -5 -8 -1q-55 68 -146 68q-74 0 -132 -64t-58 -173q0 -34 7 -127h214q8 0 6 -6l-1 -4q-2 -7 -7 -7h-213q3 -139 -72 -293h310q8 0 6 -7
l-1 -4q-2 -7 -7 -7h-327q-9 0 -5 10z" />
    <glyph glyph-name="currency" unicode="&#xa4;" horiz-adv-x="475" 
d="M156 230q24 -35 68 -35q48 0 85 42t37 94q0 42 -25 69.5t-63 27.5q-49 0 -85.5 -42t-36.5 -92q0 -38 20 -64zM85 151q-7 -4 -11 1t0 11l64 62q-18 30 -18 67q0 65 42 110l-45 61q-4 6 2 11t11 1l47 -61q37 31 82 31t73 -33l66 63q5 3 8 0q6 -8 2 -12l-65 -64
q19 -28 19 -66q0 -64 -41 -110l45 -60q3 -6 -3 -11t-11 -1l-46 59q-38 -32 -83 -32q-44 0 -75 34z" />
    <glyph glyph-name="yen" unicode="&#xa5;" 
d="M119 155q-7 0 -5 7l1 4q1 6 7 6h151l14 101h-151q-7 0 -5 6l1 6q1 5 6 5h151l8 53l-189 345q-4 6 2 10l6 3q4 2 7 -3l184 -339l278 339q5 8 10 3l5 -4q5 -4 0 -9l-285 -344l-8 -54h152q7 0 5 -7l-1 -4q-1 -6 -6 -6h-152l-15 -101h152q8 0 6 -6l-1 -5q-1 -6 -7 -6h-152
l-21 -148q0 -7 -7 -7h-5q-6 0 -6 7l21 148h-151z" />
    <glyph glyph-name="brokenbar" unicode="&#xa6;" horiz-adv-x="204" 
d="M113 384q-7 0 -5 7l50 361q2 7 8 7h4q7 0 5 -7l-51 -361q0 -7 -7 -7h-4zM72 131q0 6 7 6h4q6 0 6 -6l-51 -361q0 -7 -7 -7h-4q-6 0 -6 7z" />
    <glyph glyph-name="section" unicode="&#xa7;" horiz-adv-x="541" 
d="M45 -120q5 3 8 -1q9 -12 24 -25.5t53 -31t81 -17.5q74 0 133 48.5t59 117.5q0 59 -40.5 93.5t-117.5 56.5q-164 47 -164 162q0 77 63 136q-29 37 -29 91q0 80 54.5 140t167.5 60q40 0 76 -13t53 -25l16 -13q4 -2 1 -7l-5 -7q-6 -6 -9 -3q-6 6 -17 14t-46.5 22t-71.5 14
q-99 0 -150.5 -54.5t-51.5 -124.5q0 -58 39 -93.5t112 -56.5q83 -24 127 -61.5t44 -100.5q0 -65 -69 -132q35 -37 35 -96q0 -79 -62 -132t-149 -53q-43 0 -84 18t-58.5 33t-27.5 26q-5 5 0 9zM251 137q84 -25 121 -57q63 57 63 118q0 58 -40.5 92.5t-118.5 56.5
q-83 24 -120 61q-57 -54 -57 -122q0 -107 152 -149z" />
    <glyph glyph-name="dieresis" unicode="&#xa8;" horiz-adv-x="373" 
d="M312 605q-18 0 -18 19q0 10 7.5 18t16.5 8q19 0 19 -20q0 -11 -7.5 -18t-17.5 -7zM142 605q-19 0 -19 19q0 11 7.5 18.5t17.5 7.5q18 0 18 -20q0 -25 -24 -25z" />
    <glyph glyph-name="copyright" unicode="&#xa9;" horiz-adv-x="805" 
d="M82 303q0 82 31.5 157.5t83.5 130t122 87t143 32.5q118 0 198.5 -91.5t80.5 -221.5q0 -166 -114.5 -286.5t-265.5 -120.5q-118 0 -198.5 91.5t-80.5 221.5zM100 305q0 -125 75 -211t188 -86q92 0 175 51.5t134 141.5t51 194q0 124 -75 210.5t-189 86.5q-141 0 -250 -115
t-109 -272zM244 323q0 90 60 154t142 64q59 0 100 -39q4 -3 1 -8l-5 -5q-3 -4 -7 -1q-36 36 -91 36q-72 0 -127.5 -59t-55.5 -140q0 -63 38 -107t96 -44q56 0 102 39q5 4 9 -2l2 -5q1 -4 -2 -7q-52 -43 -114 -43t-105 49t-43 118z" />
    <glyph glyph-name="ordfeminine" unicode="&#xaa;" horiz-adv-x="336" 
d="M163 401q-38 0 -61.5 28t-16.5 73q6 43 41 70.5t89 27.5q40 0 70 -13l4 26q5 42 -7 60.5t-49 18.5q-22 0 -42.5 -5t-29.5 -11l-9 -5q-4 -3 -6 1l-3 6q-2 5 3 8q35 24 89 24q85 0 71 -97l-28 -196q-2 -7 -8 -7h-3q-8 0 -6 7l4 25q-50 -41 -102 -41zM165 419
q30 0 59.5 15.5t43.5 32.5l14 102q-34 15 -69 15q-45 0 -75.5 -23.5t-35.5 -58.5q-5 -39 12.5 -61t50.5 -22z" />
    <glyph glyph-name="guillemotleft" unicode="&#xab;" horiz-adv-x="389" 
d="M279 62l-85 172q-1 4 1 8l133 170q5 5 9 1l4 -4q4 -4 0 -8l-127 -165l81 -166q2 -6 -3 -8l-5 -2q-5 -2 -8 2zM135 62l-85 172q-1 4 1 8l133 170q5 5 9 1l4 -4q4 -4 0 -8l-127 -165l81 -166q2 -6 -3 -8l-5 -2q-5 -2 -8 2z" />
    <glyph glyph-name="logicalnot" unicode="&#xac;" horiz-adv-x="560" 
d="M115 340q-7 0 -5 7l1 4q2 7 6 7h351q7 0 5 -7l-27 -197q-2 -7 -7 -7h-5q-7 0 -5 7l26 186h-340z" />
    <glyph glyph-name="uni00AD" unicode="&#xad;" horiz-adv-x="368" 
d="M69 243q-7 0 -5 7l1 4q2 7 7 7h218q6 0 4 -7l-1 -4q-2 -7 -6 -7h-218z" />
    <glyph glyph-name="registered" unicode="&#xae;" horiz-adv-x="804" 
d="M82 303q0 109 53 203.5t140.5 149t185.5 54.5q118 0 198.5 -91.5t80.5 -221.5q0 -166 -114.5 -286.5t-265.5 -120.5q-118 0 -198 91.5t-80 221.5zM100 305q0 -125 75 -211t188 -86q141 0 250.5 115t109.5 272q0 124 -75.5 210.5t-188.5 86.5q-141 0 -250 -114.5
t-109 -272.5zM268 173l51 359q0 7 6 7h135q43 0 72.5 -25.5t29.5 -70.5q0 -58 -33.5 -91.5t-81.5 -40.5l51 -135q2 -5 -2 -7l-7 -3q-4 -3 -6 3l-53 141h-126l-19 -137q-2 -7 -8 -7h-4q-7 0 -5 7zM306 326h124q44 0 79.5 30t35.5 84q0 40 -25.5 61t-62.5 21h-123z" />
    <glyph glyph-name="macron" unicode="&#xaf;" horiz-adv-x="373" 
d="M43 607q-8 0 -6 7l1 4q2 7 8 7h258q8 0 6 -7l-1 -4q-2 -7 -7 -7h-259z" />
    <glyph glyph-name="degree" unicode="&#xb0;" horiz-adv-x="367" 
d="M202 427q-46 0 -77.5 34t-31.5 85q0 66 44.5 115t103.5 49q46 0 77.5 -34.5t31.5 -85.5q0 -66 -45.5 -114.5t-102.5 -48.5zM204 445q50 0 88.5 42.5t38.5 100.5q0 45 -25.5 74.5t-66.5 29.5q-52 0 -90 -43t-38 -101q0 -45 25.5 -74t67.5 -29z" />
    <glyph glyph-name="plusminus" unicode="&#xb1;" 
d="M291 218q-7 0 -5 7l22 156h-166q-8 0 -6 7l1 4q2 7 7 7h166l26 185q2 7 7 7h6q7 0 5 -7l-26 -185h166q8 0 6 -7l-1 -4q-2 -7 -7 -7h-166l-22 -156q-2 -7 -7 -7h-6zM102 85q-7 0 -5 7v4q2 7 7 7h350q8 0 6 -7v-4q-2 -7 -8 -7h-350z" />
    <glyph glyph-name="twosuperior" unicode="&#xb2;" horiz-adv-x="267" 
d="M74 504q-5 0 -6 5t3 8l133 111q64 51 64 101q0 26 -18 44.5t-49 18.5q-21 0 -39 -9t-25 -19l-7 -9q-3 -6 -8 -3l-5 4q-4 4 0 9q3 5 9 12.5t28.5 20t49.5 12.5q37 0 59 -23t22 -57q0 -58 -70 -115l-113 -93h147q7 0 5 -7l-1 -4q-2 -7 -7 -7h-172z" />
    <glyph glyph-name="threesuperior" unicode="&#xb3;" horiz-adv-x="286" 
d="M167 494q-52 0 -90 42q-3 5 2 10l3 3q4 5 9 0q1 -1 3 -3.5t3.5 -4l4.5 -4.5t5.5 -5t6.5 -5t8 -5t9.5 -4t11.5 -3t13 -2t15 -1q33 0 63.5 21t30.5 56q0 25 -17 41t-48 16h-59q-7 0 -5 7l1 4q2 7 6 7h59q30 0 53 22t23 54q0 24 -17 38t-47 14q-24 0 -45 -9t-30 -18l-9 -9
q-3 -5 -7 -1l-3 3q-5 5 0 10q4 5 11 12t32.5 18.5t53.5 11.5q35 0 57 -18t22 -50q0 -27 -15.5 -51.5t-41.5 -34.5q45 -20 45 -66q0 -42 -35.5 -68t-81.5 -28z" />
    <glyph glyph-name="acute" unicode="&#xb4;" horiz-adv-x="272" 
d="M95 559q-5 -2 -8 3l-3 6q-2 4 4 7l176 91q5 2 8 -3l3 -5q3 -6 -4 -9z" />
    <glyph glyph-name="mu" unicode="&#xb5;" horiz-adv-x="507" 
d="M223 7q34 0 64 12t50 31.5t29 30t15 20.5l50 353q2 8 8 8h5q8 0 6 -8l-63 -446q-2 -8 -8 -8h-5q-7 0 -5 8l8 61q-70 -80 -154 -80q-107 0 -130 90l-43 -309q-2 -8 -8 -8h-4q-9 0 -7 8l97 685q1 7 8 7h4q8 0 6 -8l-35 -253q-13 -99 14 -146.5t98 -47.5z" />
    <glyph glyph-name="paragraph" unicode="&#xb6;" horiz-adv-x="648" 
d="M227 274q-68 0 -114 53.5t-46 131.5q0 100 60.5 170.5t151.5 70.5h373q6 0 6 -7l-1 -4q0 -7 -7 -7h-90l-127 -913q-2 -7 -8 -7q-5 0 -8 1.5t-2 5.5l127 913h-172l-127 -913q-2 -7 -8 -7q-10 0 -10 7l128 913h-77q-77 0 -133.5 -66t-56.5 -156q0 -72 41 -121t105 -49
q5 0 2 -10q-2 -6 -7 -6z" />
    <glyph glyph-name="periodcentered" unicode="&#xb7;" horiz-adv-x="200" 
d="M93 238q-8 0 -13.5 6.5t-5.5 14.5q0 11 8 18.5t18 7.5q19 0 19 -20q0 -11 -7.5 -19t-18.5 -8z" />
    <glyph glyph-name="cedilla" unicode="&#xb8;" horiz-adv-x="247" 
d="M142 3h22l-61 -79q15 5 30 5q31 0 53.5 -17.5t22.5 -51.5q0 -41 -28.5 -68t-71.5 -27q-50 0 -76 34q-5 5 1 10l4 4q5 5 9 -1q22 -29 61 -29q33 0 57.5 21t24.5 55q0 52 -59 52q-27 0 -49 -9q-4 -2 -6.5 3t-0.5 8z" />
    <glyph glyph-name="onesuperior" unicode="&#xb9;" horiz-adv-x="160" 
d="M126 504q-6 0 -6 7l38 266l-54 -39q-4 -3 -8 1l-4 5q-2 4 3 7l73 53q4 3 7 1t2 -7l-40 -287q0 -7 -8 -7h-3z" />
    <glyph glyph-name="ordmasculine" unicode="&#xba;" horiz-adv-x="343" 
d="M185 394q-42 0 -65.5 31t-23.5 86q0 90 37.5 144.5t96.5 54.5q42 0 66.5 -32t24.5 -88q0 -88 -39 -142t-97 -54zM188 412q49 0 82 49t33 130q0 49 -19.5 75.5t-56.5 26.5q-49 0 -81.5 -49.5t-32.5 -131.5q0 -48 19.5 -74t55.5 -26z" />
    <glyph glyph-name="guillemotright" unicode="&#xbb;" horiz-adv-x="389" 
d="M179 64q-4 4 -1 8l128 168l-81 164q-3 5 3 8l5 2q5 2 8 -2l85 -170q1 -4 -1 -8l-133 -172q-6 -6 -9 -2zM39 61l-4 4q-4 4 -1 8l128 167l-81 164q-3 5 3 8l5 2q5 2 8 -2l85 -170q1 -4 -1 -8l-133 -172q-5 -5 -9 -1z" />
    <glyph glyph-name="onequarter" unicode="&#xbc;" horiz-adv-x="589" 
d="M149 404q-6 0 -6 7l38 266l-54 -39q-4 -3 -8 1l-4 5q-2 4 3 7l73 53q4 3 7 1t2 -7l-40 -287q0 -7 -8 -7h-3zM36 4q-5 3 -1 9l472 686q3 4 8 1l5 -4q4 -4 0 -8l-471 -686q-1 -2 -4.5 -2.5t-4.5 1.5zM261 79l214 223q5 3 8.5 1.5t2.5 -6.5l-30 -212h45q7 0 5 -7l-1 -5
q-2 -5 -6 -5h-45l-9 -61q-2 -7 -7 -7h-4q-7 0 -5 7l9 61h-173q-4 0 -5.5 3.5t1.5 7.5zM289 85h151l26 183z" />
    <glyph glyph-name="onehalf" unicode="&#xbd;" horiz-adv-x="577" 
d="M149 404q-6 0 -6 7l38 266l-54 -39q-4 -3 -8 1l-4 5q-2 4 3 7l73 53q4 3 7 1t2 -7l-40 -287q0 -7 -8 -7h-3zM36 4q-5 3 -1 9l472 686q3 4 8 1l5 -4q4 -4 0 -8l-471 -686q-1 -2 -4.5 -2.5t-4.5 1.5zM292 0q-5 0 -6 5t3 8l133 111q64 51 64 101q0 26 -18 44.5t-49 18.5
q-21 0 -39 -9t-25 -19l-7 -9q-3 -6 -8 -3l-5 4q-4 4 0 9q3 5 9 12.5t28.5 20t49.5 12.5q37 0 59 -23t22 -57q0 -58 -70 -115l-113 -93h147q7 0 5 -7l-1 -4q-2 -7 -7 -7h-172z" />
    <glyph glyph-name="threequarters" unicode="&#xbe;" horiz-adv-x="641" 
d="M87 13l472 686q3 4 8 1l5 -4q4 -4 0 -8l-471 -686q-1 -2 -4.5 -2.5t-4.5 1.5l-4 3q-5 3 -1 9zM313 79l214 223q5 3 8.5 1.5t2.5 -6.5l-30 -212h45q7 0 5 -7l-1 -5q-2 -5 -6 -5h-45l-9 -61q-2 -7 -7 -7h-4q-7 0 -5 7l9 61h-173q-4 0 -5.5 3.5t1.5 7.5zM341 85h151l26 183z
M176 394q-52 0 -90 42q-3 5 2 10l3 3q5 5 9 0q1 -1 3 -3.5t3.5 -4l4.5 -4.5t5.5 -5t6.5 -5t8 -5t9.5 -4t11.5 -3t13 -2t15 -1q33 0 63.5 21t30.5 56q0 25 -17 41t-48 16h-59q-7 0 -5 7l1 4q2 7 6 7h59q30 0 53 22t23 54q0 24 -17 38t-47 14q-24 0 -45 -9t-30 -18l-9 -9
q-3 -5 -7 -1l-3 3q-5 5 0 10q4 5 11 12t32.5 18.5t53.5 11.5q35 0 57 -18t22 -50q0 -27 -15.5 -51.5t-41.5 -34.5q45 -20 45 -66q0 -42 -35.5 -68t-81.5 -28z" />
    <glyph glyph-name="questiondown" unicode="&#xbf;" horiz-adv-x="403" 
d="M228 425q-8 0 -13.5 6t-5.5 14q0 11 8 19t18 8q8 0 13.5 -6.5t5.5 -14.5q0 -11 -7.5 -18.5t-18.5 -7.5zM111 62q25 15 36 22.5t22.5 22.5t13.5 33l8 58q2 7 8 7h5q7 0 5 -7l-9 -60q-2 -17 -8.5 -30.5t-21 -25.5t-23 -17t-29.5 -18q-118 -69 -118 -165q0 -46 34.5 -79
t89.5 -33q29 0 57 8.5t46.5 20.5t33 24t21.5 21l6 8q5 7 11 3l4 -3q5 -3 1 -9q-3 -4 -8 -10t-22 -21.5t-36.5 -27.5t-50.5 -21.5t-63 -9.5q-65 0 -103 36t-38 92q0 106 128 181z" />
    <glyph glyph-name="Agrave" unicode="&#xc0;" horiz-adv-x="587" 
d="M-9 1q-2 -4 -6 -3l-8 3q-4 1 -2 6l377 710q1 4 6 4h1q4 0 5 -4l172 -709q1 -5 -4 -7l-5 -2q-5 -2 -7 3l-50 208h-369zM111 227h354l-110 461h-1zM449 779l-151 90q-5 3 -1 9l2 3q3 5 9 3l150 -91q5 -3 2 -7l-2 -4q-4 -6 -9 -3z" />
    <glyph glyph-name="Aacute" unicode="&#xc1;" horiz-adv-x="587" 
d="M-9 1q-2 -4 -6 -3l-8 3q-4 1 -2 6l377 710q1 4 6 4h1q4 0 5 -4l172 -709q1 -5 -4 -7l-5 -2q-5 -2 -7 3l-50 208h-369zM111 227h354l-110 461h-1zM290 777q-5 -2 -8 3l-3 6q-2 4 4 7l176 91q5 2 8 -3l3 -5q3 -6 -4 -9z" />
    <glyph glyph-name="Acircumflex" unicode="&#xc2;" horiz-adv-x="587" 
d="M-9 1q-2 -4 -6 -3l-8 3q-4 1 -2 6l377 710q1 4 6 4h1q4 0 5 -4l172 -709q1 -5 -4 -7l-5 -2q-5 -2 -7 3l-50 208h-369zM111 227h354l-110 461h-1zM253 763q-4 -2 -7 1l-3 5q-3 5 3 10q2 1 3 2l127 102q5 3 8 0l101 -106q5 -5 1 -8l-4 -4q-4 -4 -7 -1l-96 101z" />
    <glyph glyph-name="Atilde" unicode="&#xc3;" horiz-adv-x="587" 
d="M-9 1q-2 -4 -6 -3l-8 3q-4 1 -2 6l377 710q1 4 6 4h1q4 0 5 -4l172 -709q1 -5 -4 -7l-5 -2q-5 -2 -7 3l-50 208h-369zM111 227h354l-110 461h-1zM250 802l-7 2q-6 2 -3 9q35 84 90 84q24 0 37 -17t16 -37t12.5 -37t28.5 -17q41 0 70 72q3 7 7 6l7 -2q7 -2 3 -9
q-37 -84 -89 -84q-23 0 -36 17t-17 37t-13.5 37t-27.5 17t-34.5 -16.5t-24 -30t-12.5 -26.5q-3 -7 -7 -5z" />
    <glyph glyph-name="Adieresis" unicode="&#xc4;" horiz-adv-x="587" 
d="M-9 1q-2 -4 -6 -3l-8 3q-4 1 -2 6l377 710q1 4 6 4h1q4 0 5 -4l172 -709q1 -5 -4 -7l-5 -2q-5 -2 -7 3l-50 208h-369zM111 227h354l-110 461h-1zM466 808q-19 0 -19 19q0 12 7.5 19t17.5 7q18 0 18 -20q0 -11 -7.5 -18t-16.5 -7zM279 808q-19 0 -19 19q0 11 7.5 18.5
t17.5 7.5q19 0 19 -20q0 -11 -7.5 -18t-17.5 -7z" />
    <glyph glyph-name="Aring" unicode="&#xc5;" horiz-adv-x="587" 
d="M-9 1q-2 -4 -6 -3l-8 3q-4 1 -2 6l377 710q1 4 6 4h1q4 0 5 -4l172 -709q1 -5 -4 -7l-5 -2q-5 -2 -7 3l-50 208h-369zM111 227h354l-110 461h-1zM365 750q-36 0 -58.5 25.5t-22.5 63.5q0 49 33 84t77 35q35 0 57.5 -26t22.5 -64q0 -49 -33 -83.5t-76 -34.5zM367 767
q35 0 62.5 29t27.5 69q0 32 -17.5 54t-47.5 22q-36 0 -63 -29.5t-27 -68.5q0 -33 16.5 -54.5t48.5 -21.5z" />
    <glyph glyph-name="AE" unicode="&#xc6;" horiz-adv-x="840" 
d="M-24 0q-3 -4 -8 -1l-5 3q-5 3 -1 8l499 687q1 3 7 3h364q8 0 6 -7l-1 -4q-2 -7 -7 -7h-355l-44 -309h312q6 0 6 -6q0 -12 -9 -12h-311l-48 -337h355q8 0 6 -7l-1 -4q-2 -7 -7 -7h-365q-8 0 -6 7l28 203h-263zM140 227h254l61 434z" />
    <glyph glyph-name="Ccedilla" unicode="&#xc7;" horiz-adv-x="667" 
d="M69 301q0 167 115 288t264 121q122 0 208 -93q4 -4 0 -8l-5 -5q-4 -4 -8 0q-79 89 -195 89q-143 0 -252 -116.5t-109 -275.5q0 -123 75.5 -208t186.5 -85q118 0 223 93q4 3 7 0l5 -6q3 -3 -1 -7q-102 -93 -227 -98l-51 -66q15 5 30 5q31 0 53.5 -17.5t22.5 -51.5
q0 -41 -28.5 -68t-71.5 -27q-50 0 -76 34q-5 5 1 10l4 4q5 5 9 -1q22 -29 61 -29q33 0 57.5 21t24.5 55q0 52 -59 52q-27 0 -49 -9q-4 -2 -6.5 3t-0.5 8l57 78q-117 5 -191 93.5t-74 216.5z" />
    <glyph glyph-name="Egrave" unicode="&#xc8;" horiz-adv-x="547" 
d="M69 7l97 686q0 7 7 7h366q8 0 6 -7l-1 -4q-2 -7 -7 -7h-355l-43 -309h311q8 0 6 -7l-1 -4q-2 -7 -7 -7h-312l-47 -337h354q9 0 7 -7l-1 -4q-2 -7 -8 -7h-366q-6 0 -6 7zM445 779l-151 90q-5 3 -1 9l2 3q3 5 9 3l150 -91q5 -3 2 -7l-2 -4q-4 -6 -9 -3z" />
    <glyph glyph-name="Eacute" unicode="&#xc9;" horiz-adv-x="547" 
d="M69 7l97 686q0 7 7 7h366q8 0 6 -7l-1 -4q-2 -7 -7 -7h-355l-43 -309h311q8 0 6 -7l-1 -4q-2 -7 -7 -7h-312l-47 -337h354q9 0 7 -7l-1 -4q-2 -7 -8 -7h-366q-6 0 -6 7zM287 777q-5 -2 -8 3l-3 6q-2 4 4 7l176 91q5 2 8 -3l3 -5q3 -6 -4 -9z" />
    <glyph glyph-name="Ecircumflex" unicode="&#xca;" horiz-adv-x="547" 
d="M69 7l97 686q0 7 7 7h366q8 0 6 -7l-1 -4q-2 -7 -7 -7h-355l-43 -309h311q8 0 6 -7l-1 -4q-2 -7 -7 -7h-312l-47 -337h354q9 0 7 -7l-1 -4q-2 -7 -8 -7h-366q-6 0 -6 7zM238 763q-4 -2 -7 1l-3 5q-3 5 3 10q2 1 3 2l127 102q5 3 8 0l101 -106q4 -5 1 -8l-4 -4
q-4 -4 -7 -1l-96 101z" />
    <glyph glyph-name="Edieresis" unicode="&#xcb;" horiz-adv-x="547" 
d="M69 7l97 686q0 7 7 7h366q8 0 6 -7l-1 -4q-2 -7 -7 -7h-355l-43 -309h311q8 0 6 -7l-1 -4q-2 -7 -7 -7h-312l-47 -337h354q9 0 7 -7l-1 -4q-2 -7 -8 -7h-366q-6 0 -6 7zM448 808q-19 0 -19 19q0 12 7.5 19t17.5 7q18 0 18 -20q0 -11 -7.5 -18t-16.5 -7zM261 808
q-19 0 -19 19q0 11 7.5 18.5t17.5 7.5q19 0 19 -20q0 -11 -7.5 -18t-17.5 -7z" />
    <glyph glyph-name="Igrave" unicode="&#xcc;" horiz-adv-x="234" 
d="M69 7l96 686q2 7 8 7h4q8 0 6 -7l-96 -686q-2 -7 -8 -7h-4q-8 0 -6 7zM266 779l-151 90q-5 3 -1 9l2 3q3 5 9 3l150 -91q5 -3 2 -7l-2 -4q-4 -6 -9 -3z" />
    <glyph glyph-name="Iacute" unicode="&#xcd;" horiz-adv-x="234" 
d="M69 7l96 686q2 7 8 7h4q8 0 6 -7l-96 -686q-2 -7 -8 -7h-4q-8 0 -6 7zM109 777q-5 -2 -8 3l-3 6q-2 4 4 7l176 91q5 2 8 -3l3 -5q3 -6 -4 -9z" />
    <glyph glyph-name="Icircumflex" unicode="&#xce;" horiz-adv-x="234" 
d="M69 7l96 686q2 7 8 7h4q8 0 6 -7l-96 -686q-2 -7 -8 -7h-4q-8 0 -6 7zM72 763q-4 -2 -7 1l-3 5q-3 5 3 10q2 1 3 2l127 102q5 3 8 0l101 -106q4 -5 1 -8l-4 -4q-4 -4 -7 -1l-96 101z" />
    <glyph glyph-name="Idieresis" unicode="&#xcf;" horiz-adv-x="234" 
d="M69 7l96 686q2 7 8 7h4q8 0 6 -7l-96 -686q-2 -7 -8 -7h-4q-8 0 -6 7zM286 808q-19 0 -19 19q0 12 7.5 19t17.5 7q18 0 18 -20q0 -11 -7.5 -18t-16.5 -7zM99 808q-19 0 -19 19q0 11 7.5 18.5t17.5 7.5q19 0 19 -20q0 -11 -7.5 -18t-17.5 -7z" />
    <glyph glyph-name="Eth" unicode="&#xd0;" horiz-adv-x="696" 
d="M69 7l47 333h-36q-7 0 -5 7v4q2 7 8 7h36l47 335q0 7 7 7h198q117 0 195 -88.5t78 -215.5q0 -161 -112.5 -278.5t-258.5 -117.5h-198q-6 0 -6 7zM89 18h186q138 0 244 111.5t106 264.5q0 121 -73 204.5t-184 83.5h-186l-46 -324h258q8 0 6 -7l-1 -4q0 -7 -7 -7h-258z" />
    <glyph glyph-name="Ntilde" unicode="&#xd1;" horiz-adv-x="710" 
d="M69 7l99 703q1 5 6 6.5t7 -2.5l367 -688l94 667q2 7 8 7h4q8 0 6 -7l-99 -701q-1 -5 -6 -6.5t-7 2.5l-367 688l-94 -669q-2 -7 -8 -7h-4q-8 0 -6 7zM306 802l-7 2q-6 2 -3 9q35 84 90 84q24 0 37 -17t16 -37t12.5 -37t28.5 -17q41 0 70 72q3 7 7 6l7 -2q7 -2 3 -9
q-37 -84 -89 -84q-23 0 -36 17t-17 37t-13.5 37t-27.5 17t-34.5 -16.5t-24 -30t-12.5 -26.5q-3 -7 -7 -5z" />
    <glyph glyph-name="Ograve" unicode="&#xd2;" horiz-adv-x="780" 
d="M70 302q0 168 114.5 288t265.5 120q121 0 200 -90.5t79 -222.5q0 -167 -114.5 -287t-265.5 -120q-121 0 -200 90.5t-79 221.5zM88 303q0 -124 74.5 -209.5t186.5 -85.5q143 0 252.5 114.5t109.5 273.5q0 125 -74.5 210.5t-187.5 85.5q-143 0 -252 -115t-109 -274z
M542 779l-151 90q-5 3 -1 9l2 3q3 5 9 3l150 -91q5 -3 2 -7l-2 -4q-4 -6 -9 -3z" />
    <glyph glyph-name="Oacute" unicode="&#xd3;" horiz-adv-x="780" 
d="M70 302q0 168 114.5 288t265.5 120q121 0 200 -90.5t79 -222.5q0 -167 -114.5 -287t-265.5 -120q-121 0 -200 90.5t-79 221.5zM88 303q0 -124 74.5 -209.5t186.5 -85.5q143 0 252.5 114.5t109.5 273.5q0 125 -74.5 210.5t-187.5 85.5q-143 0 -252 -115t-109 -274z
M385 777q-5 -2 -8 3l-3 6q-2 4 4 7l176 91q5 2 8 -3l3 -5q3 -6 -4 -9z" />
    <glyph glyph-name="Ocircumflex" unicode="&#xd4;" horiz-adv-x="780" 
d="M70 302q0 168 114.5 288t265.5 120q121 0 200 -90.5t79 -222.5q0 -167 -114.5 -287t-265.5 -120q-121 0 -200 90.5t-79 221.5zM88 303q0 -124 74.5 -209.5t186.5 -85.5q143 0 252.5 114.5t109.5 273.5q0 125 -74.5 210.5t-187.5 85.5q-143 0 -252 -115t-109 -274z
M348 763q-4 -2 -7 1l-3 5q-3 5 3 10q2 1 3 2l127 102q5 3 8 0l101 -106q4 -5 1 -8l-4 -4q-4 -4 -7 -1l-96 101z" />
    <glyph glyph-name="Otilde" unicode="&#xd5;" horiz-adv-x="780" 
d="M70 302q0 168 114.5 288t265.5 120q121 0 200 -90.5t79 -222.5q0 -167 -114.5 -287t-265.5 -120q-121 0 -200 90.5t-79 221.5zM88 303q0 -124 74.5 -209.5t186.5 -85.5q143 0 252.5 114.5t109.5 273.5q0 125 -74.5 210.5t-187.5 85.5q-143 0 -252 -115t-109 -274z
M345 802l-7 2q-6 2 -3 9q35 84 90 84q24 0 37 -17t16 -37t12.5 -37t28.5 -17q41 0 70 72q3 7 7 6l7 -2q7 -2 3 -9q-37 -84 -89 -84q-23 0 -36 17t-17 37t-14 37t-27 17q-18 0 -34.5 -16.5t-24 -30t-12.5 -26.5q-3 -7 -7 -5z" />
    <glyph glyph-name="Odieresis" unicode="&#xd6;" horiz-adv-x="780" 
d="M70 302q0 168 114.5 288t265.5 120q121 0 200 -90.5t79 -222.5q0 -167 -114.5 -287t-265.5 -120q-121 0 -200 90.5t-79 221.5zM88 303q0 -124 74.5 -209.5t186.5 -85.5q143 0 252.5 114.5t109.5 273.5q0 125 -74.5 210.5t-187.5 85.5q-143 0 -252 -115t-109 -274z
M561 808q-19 0 -19 19q0 12 7.5 19t17.5 7q18 0 18 -20q0 -11 -7.5 -18t-16.5 -7zM374 808q-19 0 -19 19q0 11 7.5 18.5t17.5 7.5q19 0 19 -20q0 -11 -7.5 -18t-17.5 -7z" />
    <glyph glyph-name="multiply" unicode="&#xd7;" 
d="M160 203l-3 4q-2 1 -1.5 4.5t2.5 4.5l138 133l-100 131q-4 6 1 10l3 2q6 4 9 0l99 -131l137 131q5 5 9 0l3 -4q4 -6 -1 -10l-136 -131l98 -131q4 -4 0 -8l-4 -4q-4 -4 -8 1l-99 130l-139 -132q-5 -5 -8 0z" />
    <glyph glyph-name="Oslash" unicode="&#xd8;" horiz-adv-x="781" 
d="M52 34q-4 4 2 10l69 64q-53 82 -53 193q0 168 113 288.5t264 120.5q66 0 122.5 -27.5t93.5 -76.5l71 65q6 6 9 0l2 -3q3 -6 -1 -10l-71 -65q56 -86 56 -197q0 -167 -113.5 -286.5t-264.5 -119.5q-140 0 -219 104l-69 -63q-5 -3 -8 0zM136 120l514 474q-77 98 -203 98
q-143 0 -251 -115t-108 -276q0 -108 48 -181zM147 107q72 -99 204 -99q143 0 251.5 114t108.5 273q0 109 -51 186z" />
    <glyph glyph-name="Ugrave" unicode="&#xd9;" horiz-adv-x="667" 
d="M96 252l62 441q2 7 7 7h5q7 0 5 -7l-61 -441q-4 -23 -4 -50q0 -89 48.5 -141.5t135.5 -52.5q98 0 166.5 67.5t83.5 176.5l62 441q2 7 8 7h5q7 0 5 -7l-62 -441q-17 -119 -87.5 -190.5t-183.5 -71.5q-92 0 -145.5 57.5t-53.5 153.5q0 17 4 51zM482 779l-151 90q-5 3 -1 9
l2 3q3 5 9 3l150 -91q5 -3 2 -7l-2 -4q-4 -6 -9 -3z" />
    <glyph glyph-name="Uacute" unicode="&#xda;" horiz-adv-x="667" 
d="M96 252l62 441q2 7 7 7h5q7 0 5 -7l-61 -441q-4 -23 -4 -50q0 -89 48.5 -141.5t135.5 -52.5q98 0 166.5 67.5t83.5 176.5l62 441q2 7 8 7h5q7 0 5 -7l-62 -441q-17 -119 -87.5 -190.5t-183.5 -71.5q-92 0 -145.5 57.5t-53.5 153.5q0 17 4 51zM327 777q-5 -2 -8 3l-3 6
q-2 4 4 7l176 91q5 2 8 -3l3 -5q3 -6 -4 -9z" />
    <glyph glyph-name="Ucircumflex" unicode="&#xdb;" horiz-adv-x="667" 
d="M96 252l62 441q2 7 7 7h5q7 0 5 -7l-61 -441q-4 -23 -4 -50q0 -89 48.5 -141.5t135.5 -52.5q98 0 166.5 67.5t83.5 176.5l62 441q2 7 8 7h5q7 0 5 -7l-62 -441q-17 -119 -87.5 -190.5t-183.5 -71.5q-92 0 -145.5 57.5t-53.5 153.5q0 17 4 51zM291 763q-4 -2 -7 1l-3 5
q-3 5 3 10q2 1 3 2l127 102q5 3 8 0l101 -106q5 -5 1 -8l-4 -4q-4 -4 -7 -1l-96 101z" />
    <glyph glyph-name="Udieresis" unicode="&#xdc;" horiz-adv-x="667" 
d="M96 252l62 441q2 7 7 7h5q7 0 5 -7l-61 -441q-4 -23 -4 -50q0 -89 48.5 -141.5t135.5 -52.5q98 0 166.5 67.5t83.5 176.5l62 441q2 7 8 7h5q7 0 5 -7l-62 -441q-17 -119 -87.5 -190.5t-183.5 -71.5q-92 0 -145.5 57.5t-53.5 153.5q0 17 4 51zM503 808q-19 0 -19 19
q0 12 7.5 19t17.5 7q18 0 18 -20q0 -11 -7.5 -18t-16.5 -7zM316 808q-19 0 -19 19q0 11 7.5 18.5t17.5 7.5q19 0 19 -20q0 -11 -7.5 -18t-17.5 -7z" />
    <glyph glyph-name="Yacute" unicode="&#xdd;" horiz-adv-x="509" 
d="M204 7l47 336l-188 345q-4 6 2 9l6 3q5 2 8 -3l182 -337l279 338q4 6 8 3l7 -4q6 -3 0 -9l-286 -344l-47 -338q-2 -6 -7 -6h-6q-6 0 -5 7zM244 777q-5 -2 -8 3l-3 6q-2 4 4 7l176 91q5 2 8 -3l3 -5q3 -6 -4 -9z" />
    <glyph glyph-name="Thorn" unicode="&#xde;" horiz-adv-x="556" 
d="M69 7l97 686q0 7 7 7h5q8 0 6 -7l-17 -115h177q76 1 126.5 -56.5t50.5 -139.5q0 -106 -70.5 -182t-169.5 -76h-177l-17 -117q0 -7 -8 -7h-4q-8 0 -6 7zM106 141h177q86 0 153 71t67 168q0 75 -46.5 128.5t-115.5 52.5h-176z" />
    <glyph glyph-name="germandbls" unicode="&#xdf;" horiz-adv-x="573" 
d="M318 -11q-58 0 -99 25q-6 4 -3 10l3 4q4 6 11 1q31 -22 90 -22q71 0 118 34t47 104q0 29 -19.5 59t-42.5 51t-42.5 46t-19.5 44q0 20 19.5 45t43 46.5t43 54t19.5 65.5q0 65 -45.5 100.5t-99.5 35.5q-91 0 -143.5 -66t-65.5 -165l-95 -690q0 -9 -7 -9h-5q-8 0 -6 9
l94 690q15 110 70.5 179.5t158.5 69.5q61 0 111.5 -40.5t50.5 -110.5q0 -37 -19.5 -72t-43 -57t-43 -45.5t-19.5 -39.5q0 -15 19.5 -38.5t42.5 -45t42.5 -53.5t19.5 -62q0 -77 -51 -117t-134 -40z" />
    <glyph glyph-name="agrave" unicode="&#xe0;" horiz-adv-x="520" 
d="M50 195q0 117 69.5 197t168.5 80q90 0 142 -60l8 42q2 8 6 8h5q7 0 5 -8l-62 -446q-2 -8 -8 -8h-5q-7 0 -5 8l8 59q-21 -28 -66.5 -53t-95.5 -25q-78 0 -124 58.5t-46 147.5zM68 196q0 -81 42 -135t110 -54q52 0 98 29t68 65l40 284q-4 9 -16.5 22t-46.5 30t-75 17
q-92 0 -156 -74.5t-64 -183.5zM358 560l-151 90q-5 3 -1 9l2 3q3 5 9 3l150 -91q5 -3 2 -7l-2 -4q-4 -6 -9 -3z" />
    <glyph glyph-name="aacute" unicode="&#xe1;" horiz-adv-x="520" 
d="M50 195q0 117 69.5 197t168.5 80q90 0 142 -60l8 42q2 8 6 8h5q7 0 5 -8l-62 -446q-2 -8 -8 -8h-5q-7 0 -5 8l8 59q-21 -28 -66.5 -53t-95.5 -25q-78 0 -124 58.5t-46 147.5zM68 196q0 -81 42 -135t110 -54q52 0 98 29t68 65l40 284q-4 9 -16.5 22t-46.5 30t-75 17
q-92 0 -156 -74.5t-64 -183.5zM241 559q-5 -2 -8 3l-3 6q-2 4 4 7l176 91q5 2 8 -3l3 -5q3 -6 -4 -9z" />
    <glyph glyph-name="acircumflex" unicode="&#xe2;" horiz-adv-x="520" 
d="M50 195q0 117 69.5 197t168.5 80q90 0 142 -60l8 42q2 8 6 8h5q7 0 5 -8l-62 -446q-2 -8 -8 -8h-5q-7 0 -5 8l8 59q-21 -28 -66.5 -53t-95.5 -25q-78 0 -124 58.5t-46 147.5zM68 196q0 -81 42 -135t110 -54q52 0 98 29t68 65l40 284q-4 9 -16.5 22t-46.5 30t-75 17
q-92 0 -156 -74.5t-64 -183.5zM199 548q-4 -2 -7 1l-3 5q-3 5 3 10q2 1 3 2l127 102q5 3 8 0l101 -106q5 -4 1 -8l-4 -4q-4 -4 -7 -1l-96 101z" />
    <glyph glyph-name="atilde" unicode="&#xe3;" horiz-adv-x="520" 
d="M50 195q0 117 69.5 197t168.5 80q90 0 142 -60l8 42q2 8 6 8h5q7 0 5 -8l-62 -446q-2 -8 -8 -8h-5q-7 0 -5 8l8 59q-21 -28 -66.5 -53t-95.5 -25q-78 0 -124 58.5t-46 147.5zM68 196q0 -81 42 -135t110 -54q52 0 98 29t68 65l40 284q-4 9 -16.5 22t-46.5 30t-75 17
q-92 0 -156 -74.5t-64 -183.5zM191 583l-7 2q-6 1 -3 9q35 84 90 84q24 0 37 -17t16 -37t12.5 -37t28.5 -17q41 0 70 72q3 7 7 6l7 -2q7 -2 3 -9q-37 -84 -89 -84q-23 0 -36 17t-17 37t-14 37t-27 17q-18 0 -34.5 -16.5t-24 -30t-12.5 -26.5q-3 -7 -7 -5z" />
    <glyph glyph-name="adieresis" unicode="&#xe4;" horiz-adv-x="520" 
d="M50 195q0 117 69.5 197t168.5 80q90 0 142 -60l8 42q2 8 6 8h5q7 0 5 -8l-62 -446q-2 -8 -8 -8h-5q-7 0 -5 8l8 59q-21 -28 -66.5 -53t-95.5 -25q-78 0 -124 58.5t-46 147.5zM68 196q0 -81 42 -135t110 -54q52 0 98 29t68 65l40 284q-4 9 -16.5 22t-46.5 30t-75 17
q-92 0 -156 -74.5t-64 -183.5zM411 605q-18 0 -18 19q0 10 7.5 18t16.5 8q19 0 19 -20q0 -11 -7.5 -18t-17.5 -7zM241 605q-19 0 -19 19q0 11 7.5 18.5t17.5 7.5q18 0 18 -20q0 -25 -24 -25z" />
    <glyph glyph-name="aring" unicode="&#xe5;" horiz-adv-x="520" 
d="M50 195q0 117 69.5 197t168.5 80q90 0 142 -60l8 42q2 8 6 8h5q7 0 5 -8l-62 -446q-2 -8 -8 -8h-5q-7 0 -5 8l8 59q-21 -28 -66.5 -53t-95.5 -25q-78 0 -124 58.5t-46 147.5zM68 196q0 -81 42 -135t110 -54q52 0 98 29t68 65l40 284q-4 9 -16.5 22t-46.5 30t-75 17
q-92 0 -156 -74.5t-64 -183.5zM306 510q-36 0 -58.5 25.5t-22.5 63.5q0 49 33 84t77 35q35 0 57.5 -26t22.5 -64q0 -49 -33 -83.5t-76 -34.5zM308 527q35 0 62.5 29t27.5 69q0 32 -17.5 54t-47.5 22q-36 0 -63 -29.5t-27 -68.5q0 -33 16.5 -54.5t48.5 -21.5z" />
    <glyph glyph-name="ae" unicode="&#xe6;" horiz-adv-x="753" 
d="M370 236q40 -8 101 -8q100 -1 161 31t61 87q0 46 -39 77t-104 31q-48 0 -94.5 -22t-73.5 -58q1 -24 -12 -138zM46 124q0 -54 27 -85.5t81 -31.5q51 0 101 24t74 50l25 174q-1 0 -17 6.5t-29 10.5t-34.5 8t-41.5 4q-81 0 -133.5 -45t-52.5 -115zM367 218l-18 -136
q44 -75 140 -75q73 0 141 51q4 3 7 -2l4 -6q2 -4 -4 -10q-22 -18 -63.5 -34.5t-86.5 -16.5q-48 0 -89 21.5t-61 53.5q-29 -29 -80 -52t-102 -23q-60 0 -93.5 35.5t-33.5 97.5q0 79 57.5 129.5t147.5 50.5q66 0 123 -27q14 99 -2 139t-90 40q-27 0 -52 -5t-36.5 -10
t-28.5 -14l-17 -9q-6 -3 -8 2l-3 6q-2 6 4 9q59 39 144 39q100 0 113 -72q67 72 171 72q72 0 116 -36t44 -90q0 -63 -66 -100t-174 -36q-52 0 -104 8z" />
    <glyph glyph-name="ccedilla" unicode="&#xe7;" horiz-adv-x="497" 
d="M49 199q0 118 76.5 195.5t180.5 77.5q90 0 151 -61q3 -6 -1 -10l-5 -5q-5 -4 -10 1l-5 5q-6 5 -11 9.5t-14 11t-19.5 11.5t-23.5 10t-29 7.5t-33 2.5q-96 0 -167.5 -72.5t-71.5 -182.5q0 -80 50.5 -136t120.5 -56q17 0 34 3t31 8.5t27.5 12t24 13.5t20 14t15 12t10.5 9
l4 4q4 5 8 1l5 -5q5 -5 0 -10q-9 -9 -23.5 -21.5t-58.5 -34t-86 -23.5l-59 -78q15 5 30 5q31 0 53.5 -17.5t22.5 -51.5q0 -41 -28.5 -68t-71.5 -27q-50 0 -76 34q-4 5 1 10l4 4q5 5 9 -1q22 -29 61 -29q33 0 57.5 21t24.5 55q0 52 -59 52q-26 0 -49 -9q-4 -2 -6.5 3t-0.5 8
l65 88q-76 5 -127 64.5t-51 145.5z" />
    <glyph glyph-name="egrave" unicode="&#xe8;" horiz-adv-x="493" 
d="M49 189q0 120 68.5 201.5t172.5 81.5q72 0 116 -36t44 -90q0 -63 -67.5 -98.5t-186.5 -35.5q-63 0 -127 10q-2 -22 -2 -31q0 -82 42 -133t116 -51q80 0 146 51q6 5 9 -1l3 -6q2 -4 -1 -7q-18 -18 -65.5 -36.5t-91.5 -18.5q-86 0 -131 56.5t-45 143.5zM71 240
q73 -10 124 -10q111 0 174 30t63 86q0 46 -39 77t-103 31q-85 0 -145.5 -61t-73.5 -153zM361 560l-151 90q-5 3 -1 9l2 3q3 5 9 3l150 -91q5 -3 2 -7l-2 -4q-4 -6 -9 -3z" />
    <glyph glyph-name="eacute" unicode="&#xe9;" horiz-adv-x="493" 
d="M49 189q0 120 68.5 201.5t172.5 81.5q72 0 116 -36t44 -90q0 -63 -67.5 -98.5t-186.5 -35.5q-63 0 -127 10q-2 -22 -2 -31q0 -82 42 -133t116 -51q80 0 146 51q6 5 9 -1l3 -6q2 -4 -1 -7q-18 -18 -65.5 -36.5t-91.5 -18.5q-86 0 -131 56.5t-45 143.5zM71 240
q73 -10 124 -10q111 0 174 30t63 86q0 46 -39 77t-103 31q-85 0 -145.5 -61t-73.5 -153zM244 559q-5 -2 -8 3l-3 6q-2 4 4 7l176 91q5 2 8 -3l3 -5q3 -6 -4 -9z" />
    <glyph glyph-name="ecircumflex" unicode="&#xea;" horiz-adv-x="493" 
d="M49 189q0 120 68.5 201.5t172.5 81.5q72 0 116 -36t44 -90q0 -63 -67.5 -98.5t-186.5 -35.5q-63 0 -127 10q-2 -22 -2 -31q0 -82 42 -133t116 -51q80 0 146 51q6 5 9 -1l3 -6q2 -4 -1 -7q-18 -18 -65.5 -36.5t-91.5 -18.5q-86 0 -131 56.5t-45 143.5zM71 240
q73 -10 124 -10q111 0 174 30t63 86q0 46 -39 77t-103 31q-85 0 -145.5 -61t-73.5 -153zM188 548q-4 -2 -7 1l-3 5q-3 5 3 10q2 1 3 2l127 102q5 3 8 0l101 -106q4 -4 1 -8l-4 -4q-4 -4 -7 -1l-96 101z" />
    <glyph glyph-name="edieresis" unicode="&#xeb;" horiz-adv-x="493" 
d="M49 189q0 120 68.5 201.5t172.5 81.5q72 0 116 -36t44 -90q0 -63 -67.5 -98.5t-186.5 -35.5q-63 0 -127 10q-2 -22 -2 -31q0 -82 42 -133t116 -51q80 0 146 51q6 5 9 -1l3 -6q2 -4 -1 -7q-18 -18 -65.5 -36.5t-91.5 -18.5q-86 0 -131 56.5t-45 143.5zM71 240
q73 -10 124 -10q111 0 174 30t63 86q0 46 -39 77t-103 31q-85 0 -145.5 -61t-73.5 -153zM393 605q-18 0 -18 19q0 10 7.5 18t16.5 8q19 0 19 -20q0 -11 -7.5 -18t-17.5 -7zM223 605q-19 0 -19 19q0 11 7.5 18.5t17.5 7.5q18 0 18 -20q0 -25 -24 -25z" />
    <glyph glyph-name="igrave" unicode="&#xec;" horiz-adv-x="198" 
d="M57 0q-9 0 -7 8l63 446q2 8 8 8h5q8 0 6 -8l-63 -446q-2 -8 -7 -8h-5zM196 560l-151 90q-5 3 -1 9l2 3q3 5 9 3l150 -91q5 -3 2 -7l-2 -4q-4 -6 -9 -3z" />
    <glyph glyph-name="iacute" unicode="&#xed;" horiz-adv-x="198" 
d="M57 0q-9 0 -7 8l63 446q2 8 8 8h5q8 0 6 -8l-63 -446q-2 -8 -7 -8h-5zM71 559q-5 -2 -8 3l-3 6q-2 4 4 7l176 91q5 2 8 -3l3 -5q3 -6 -4 -9z" />
    <glyph glyph-name="icircumflex" unicode="&#xee;" horiz-adv-x="198" 
d="M57 0q-9 0 -7 8l63 446q2 8 8 8h5q8 0 6 -8l-63 -446q-2 -8 -7 -8h-5zM25 548q-4 -2 -7 1l-3 5q-3 5 3 10q2 1 3 2l127 102q5 3 8 0l101 -106q5 -4 1 -8l-4 -4q-4 -4 -7 -1l-96 101z" />
    <glyph glyph-name="idieresis" unicode="&#xef;" horiz-adv-x="198" 
d="M57 0q-9 0 -7 8l63 446q2 8 8 8h5q8 0 6 -8l-63 -446q-2 -8 -7 -8h-5zM228 605q-18 0 -18 19q0 10 7.5 18t16.5 8q19 0 19 -20q0 -11 -7.5 -18t-17.5 -7zM58 605q-19 0 -19 19q0 11 7.5 18.5t17.5 7.5q18 0 18 -20q0 -25 -24 -25z" />
    <glyph glyph-name="eth" unicode="&#xf0;" horiz-adv-x="555" 
d="M49 193q-2 101 66.5 182t170.5 81q69 0 115 -37.5t70 -83.5q6 168 -102 280l-136 -79q-7 -5 -9 3l-1 3q-3 5 4 9l130 76q-55 54 -121 82q-5 4 -2 8l3 6q3 5 9 3q70 -31 128 -89l68 40q5 3 8 -2l1 -3q3 -8 -4 -11l-62 -36q105 -114 105 -272q0 -60 -15.5 -121.5
t-46 -116.5t-83.5 -90t-120 -35q-74 0 -125 58.5t-51 144.5zM283 438q-93 -2 -155 -74.5t-62 -171.5q0 -79 46 -131.5t116 -52.5q95 0 159 78t80 198l2 15q-28 62 -64 94q-52 45 -122 45z" />
    <glyph glyph-name="ntilde" unicode="&#xf1;" horiz-adv-x="506" 
d="M50 8l64 446q2 8 7 8h5q5 0 5 -8l-8 -63q76 81 165 81q162 0 130 -214l-35 -250q-2 -8 -8 -8h-5q-8 0 -6 8l36 250q28 196 -112 196q-44 0 -84 -21t-57 -39.5t-28 -34.5l-50 -351q-2 -8 -8 -8h-4q-9 0 -7 8zM184 584l-7 2q-6 2 -3 9q35 84 90 84q24 0 37 -17t16 -37
t12.5 -37t28.5 -17q41 0 70 72q3 7 7 6l7 -2q7 -2 3 -9q-37 -84 -89 -84q-23 0 -36 17t-17 37t-13.5 37t-27.5 17t-34.5 -16.5t-24 -30t-12.5 -26.5q-3 -7 -7 -5z" />
    <glyph glyph-name="ograve" unicode="&#xf2;" horiz-adv-x="537" 
d="M49 197q0 113 73.5 194t172.5 81q79 0 128.5 -59.5t49.5 -146.5q0 -114 -73 -195.5t-172 -81.5q-80 0 -129.5 59.5t-49.5 148.5zM67 197q0 -80 45.5 -135t115.5 -55q91 0 159 77t68 182q0 80 -44.5 134t-115.5 54q-91 0 -159.5 -76.5t-68.5 -180.5zM366 560l-151 90
q-5 3 -1 9l2 3q3 5 9 3l150 -91q5 -3 2 -7l-2 -4q-4 -6 -9 -3z" />
    <glyph glyph-name="oacute" unicode="&#xf3;" horiz-adv-x="537" 
d="M49 197q0 113 73.5 194t172.5 81q79 0 128.5 -59.5t49.5 -146.5q0 -114 -73 -195.5t-172 -81.5q-80 0 -129.5 59.5t-49.5 148.5zM67 197q0 -80 45.5 -135t115.5 -55q91 0 159 77t68 182q0 80 -44.5 134t-115.5 54q-91 0 -159.5 -76.5t-68.5 -180.5zM252 559q-5 -2 -8 3
l-3 6q-2 4 4 7l176 91q5 2 8 -3l3 -5q3 -6 -4 -9z" />
    <glyph glyph-name="ocircumflex" unicode="&#xf4;" horiz-adv-x="537" 
d="M49 197q0 113 73.5 194t172.5 81q79 0 128.5 -59.5t49.5 -146.5q0 -114 -73 -195.5t-172 -81.5q-80 0 -129.5 59.5t-49.5 148.5zM67 197q0 -80 45.5 -135t115.5 -55q91 0 159 77t68 182q0 80 -44.5 134t-115.5 54q-91 0 -159.5 -76.5t-68.5 -180.5zM198 548q-4 -2 -7 1
l-3 5q-3 5 3 10q2 1 3 2l127 102q5 3 8 0l101 -106q4 -4 1 -8l-4 -4q-4 -4 -7 -1l-96 101z" />
    <glyph glyph-name="otilde" unicode="&#xf5;" horiz-adv-x="537" 
d="M49 197q0 113 73.5 194t172.5 81q79 0 128.5 -59.5t49.5 -146.5q0 -114 -73 -195.5t-172 -81.5q-80 0 -129.5 59.5t-49.5 148.5zM67 197q0 -80 45.5 -135t115.5 -55q91 0 159 77t68 182q0 80 -44.5 134t-115.5 54q-91 0 -159.5 -76.5t-68.5 -180.5zM191 583l-7 2
q-6 1 -3 9q35 84 90 84q24 0 37 -17t16 -37t12.5 -37t28.5 -17q41 0 70 72q3 7 7 6l7 -2q7 -2 3 -9q-37 -84 -89 -84q-23 0 -36 17t-17 37t-14 37t-27 17q-18 0 -34.5 -16.5t-24 -30t-12.5 -26.5q-3 -7 -7 -5z" />
    <glyph glyph-name="odieresis" unicode="&#xf6;" horiz-adv-x="537" 
d="M49 197q0 113 73.5 194t172.5 81q79 0 128.5 -59.5t49.5 -146.5q0 -114 -73 -195.5t-172 -81.5q-80 0 -129.5 59.5t-49.5 148.5zM67 197q0 -80 45.5 -135t115.5 -55q91 0 159 77t68 182q0 80 -44.5 134t-115.5 54q-91 0 -159.5 -76.5t-68.5 -180.5zM401 605q-18 0 -18 19
q0 10 7.5 18t16.5 8q19 0 19 -20q0 -11 -7.5 -18t-17.5 -7zM231 605q-19 0 -19 19q0 11 7.5 18.5t17.5 7.5q18 0 18 -20q0 -25 -24 -25z" />
    <glyph glyph-name="divide" unicode="&#xf7;" 
d="M318 465q-8 0 -13.5 7t-4.5 17t8.5 16.5t15.5 6.5q10 0 15.5 -6.5t3.5 -16.5q-4 -24 -25 -24zM128 340q-7 0 -5 7l1 4q2 7 7 7h351q7 0 5 -7l-1 -4q-2 -7 -7 -7h-351zM261 209q1 10 8.5 16.5t15.5 6.5q10 0 15.5 -6.5t3.5 -16.5q-4 -24 -25 -24q-8 0 -13.5 7t-4.5 17z
" />
    <glyph glyph-name="oslash" unicode="&#xf8;" horiz-adv-x="537" 
d="M49 197q0 113 73.5 194t172.5 81q90 0 141 -77l34 29q7 5 10 0l3 -4q3 -6 -1 -12l-35 -31q26 -49 26 -111q0 -114 -73 -195.5t-172 -81.5q-92 0 -143 79l-25 -22q-6 -6 -11 1l-2 3q-4 5 2 11l26 22q-26 50 -26 114zM455 266q0 56 -22 100l-334 -286q48 -73 129 -73
q91 0 159 77t68 182zM67 197q0 -58 23 -102l333 287q-46 72 -128 72q-91 0 -159.5 -76.5t-68.5 -180.5z" />
    <glyph glyph-name="ugrave" unicode="&#xf9;" horiz-adv-x="496" 
d="M202 7q34 0 64 12t50 31.5t29 30t15 20.5l50 353q2 8 8 8h5q8 0 6 -8l-63 -446q-2 -8 -8 -8h-5q-7 0 -5 8l8 61q-70 -80 -154 -80q-161 0 -131 212l36 254q1 7 8 7h4q8 0 6 -8l-35 -253q-29 -194 112 -194zM377 560l-151 90q-5 3 -1 9l2 3q3 5 9 3l150 -91q5 -3 2 -7
l-2 -4q-4 -6 -9 -3z" />
    <glyph glyph-name="uacute" unicode="&#xfa;" horiz-adv-x="496" 
d="M202 7q34 0 64 12t50 31.5t29 30t15 20.5l50 353q2 8 8 8h5q8 0 6 -8l-63 -446q-2 -8 -8 -8h-5q-7 0 -5 8l8 61q-70 -80 -154 -80q-161 0 -131 212l36 254q1 7 8 7h4q8 0 6 -8l-35 -253q-29 -194 112 -194zM181 559q-5 -2 -8 3l-3 6q-2 4 4 7l176 91q5 2 8 -3l3 -5
q3 -6 -4 -9z" />
    <glyph glyph-name="ucircumflex" unicode="&#xfb;" horiz-adv-x="496" 
d="M202 7q34 0 64 12t50 31.5t29 30t15 20.5l50 353q2 8 8 8h5q8 0 6 -8l-63 -446q-2 -8 -8 -8h-5q-7 0 -5 8l8 61q-70 -80 -154 -80q-161 0 -131 212l36 254q1 7 8 7h4q8 0 6 -8l-35 -253q-29 -194 112 -194zM165 548q-4 -2 -7 1l-3 5q-3 5 3 10q2 1 3 2l127 102q5 3 8 0
l101 -106q5 -4 1 -8l-4 -4q-4 -4 -7 -1l-96 101z" />
    <glyph glyph-name="udieresis" unicode="&#xfc;" horiz-adv-x="496" 
d="M202 7q34 0 64 12t50 31.5t29 30t15 20.5l50 353q2 8 8 8h5q8 0 6 -8l-63 -446q-2 -8 -8 -8h-5q-7 0 -5 8l8 61q-70 -80 -154 -80q-161 0 -131 212l36 254q1 7 8 7h4q8 0 6 -8l-35 -253q-29 -194 112 -194zM375 605q-18 0 -18 19q0 10 7.5 18t16.5 8q19 0 19 -20
q0 -11 -7.5 -18t-17.5 -7zM205 605q-19 0 -19 19q0 11 7.5 18.5t17.5 7.5q18 0 18 -20q0 -25 -24 -25z" />
    <glyph glyph-name="yacute" unicode="&#xfd;" horiz-adv-x="440" 
d="M173 10l-119 447q-2 6 3 8l6 2q6 2 8 -4l114 -433l232 435q4 6 9 3l5 -2q6 -3 3 -9l-375 -696q-3 -6 -9 -3l-4 2q-5 4 -2 10zM194 559q-5 -2 -8 3l-3 6q-2 4 4 7l176 91q5 2 8 -3l3 -5q3 -6 -4 -9z" />
    <glyph glyph-name="thorn" unicode="&#xfe;" horiz-adv-x="522" 
d="M73 47l-37 -276q0 -9 -8 -9h-7q-4 0 -4 9l130 921q2 8 7 8h4q8 0 8 -8l-41 -284q64 64 160 64q77 0 124 -59.5t47 -147.5q0 -121 -68.5 -198.5t-181.5 -77.5q-83 0 -133 58zM78 73q3 -8 14.5 -21.5t43.5 -29t72 -15.5q101 0 165.5 73.5t64.5 184.5q0 81 -43.5 135
t-113.5 54q-42 0 -81 -18t-55 -31.5t-24 -24.5z" />
    <glyph glyph-name="ydieresis" unicode="&#xff;" horiz-adv-x="440" 
d="M173 10l-119 447q-2 6 3 8l6 2q6 2 8 -4l114 -433l232 435q4 6 9 3l5 -2q6 -3 3 -9l-375 -696q-3 -6 -9 -3l-4 2q-5 4 -2 10zM352 605q-18 0 -18 19q0 10 7.5 18t16.5 8q19 0 19 -20q0 -11 -7.5 -18t-17.5 -7zM182 605q-19 0 -19 19q0 11 7.5 18.5t17.5 7.5q18 0 18 -20
q0 -25 -24 -25z" />
    <glyph glyph-name="Amacron" unicode="&#x100;" horiz-adv-x="587" 
d="M-9 1q-2 -4 -6 -3l-8 3q-4 1 -2 6l377 710q1 4 6 4h1q4 0 5 -4l172 -709q1 -5 -4 -7l-5 -2q-5 -2 -7 3l-50 208h-369zM111 227h354l-110 461h-1zM248 842q-8 0 -6 7l1 4q2 7 8 7h258q8 0 6 -7l-1 -4q-2 -7 -7 -7h-259z" />
    <glyph glyph-name="amacron" unicode="&#x101;" horiz-adv-x="520" 
d="M50 195q0 117 69.5 197t168.5 80q90 0 142 -60l8 42q2 8 6 8h5q7 0 5 -8l-62 -446q-2 -8 -8 -8h-5q-7 0 -5 8l8 59q-21 -28 -66.5 -53t-95.5 -25q-78 0 -124 58.5t-46 147.5zM68 196q0 -81 42 -135t110 -54q52 0 98 29t68 65l40 284q-4 9 -16.5 22t-46.5 30t-75 17
q-92 0 -156 -74.5t-64 -183.5zM187 607q-8 0 -6 7l1 4q2 7 8 7h258q8 0 6 -7l-1 -4q-2 -7 -7 -7h-259z" />
    <glyph glyph-name="Abreve" unicode="&#x102;" horiz-adv-x="587" 
d="M-9 1q-2 -4 -6 -3l-8 3q-4 1 -2 6l377 710q1 4 6 4h1q4 0 5 -4l172 -709q1 -5 -4 -7l-5 -2q-5 -2 -7 3l-50 208h-369zM111 227h354l-110 461h-1zM374 780q-44 0 -71.5 30.5t-27.5 76.5q0 8 5 8h6q5 0 5 -6q-1 -40 23 -65.5t62 -25.5q37 0 67.5 25.5t42.5 65.5q2 6 6 6h8
q6 0 4 -8q-14 -46 -50 -76.5t-80 -30.5z" />
    <glyph glyph-name="abreve" unicode="&#x103;" horiz-adv-x="520" 
d="M50 195q0 117 69.5 197t168.5 80q90 0 142 -60l8 42q2 8 6 8h5q7 0 5 -8l-62 -446q-2 -8 -8 -8h-5q-7 0 -5 8l8 59q-21 -28 -66.5 -53t-95.5 -25q-78 0 -124 58.5t-46 147.5zM68 196q0 -81 42 -135t110 -54q52 0 98 29t68 65l40 284q-4 9 -16.5 22t-46.5 30t-75 17
q-92 0 -156 -74.5t-64 -183.5zM308 545q-44 0 -71.5 30.5t-27.5 76.5q0 8 5 8h6q5 0 5 -6q-1 -40 23 -65.5t62 -25.5q37 0 67.5 25.5t42.5 65.5q2 6 6 6h8q6 0 4 -8q-14 -46 -50 -76.5t-80 -30.5z" />
    <glyph glyph-name="Aogonek" unicode="&#x104;" horiz-adv-x="587" 
d="M-9 1q-2 -4 -6 -3l-8 3q-4 1 -2 6l377 710q1 4 6 4h1q4 0 5 -4l172 -709q1 -5 -4 -7q-30 -15 -50.5 -27t-46 -32t-39 -45.5t-13.5 -54.5q0 -27 16 -44.5t45 -17.5q41 0 70 23q6 4 9 -1l4 -6q2 -5 -6 -10q-40 -24 -78 -24t-58 22t-20 57q0 56 41 96t111 75l-47 198h-369z
M111 227h354l-110 461h-1z" />
    <glyph glyph-name="aogonek" unicode="&#x105;" horiz-adv-x="520" 
d="M50 195q0 117 69.5 197t168.5 80q90 0 142 -60l8 42q2 8 6 8h5q7 0 5 -8l-62 -445q-1 -7 -7 -9q-30 -14 -50.5 -26.5t-45.5 -32.5t-38 -45t-13 -54q0 -27 16 -44.5t45 -17.5q41 0 70 23q5 4 9 -1l4 -6q2 -5 -6 -10q-40 -24 -78 -24t-58 22t-20 57q0 56 42 97.5t113 76.5
l7 52q-21 -28 -66.5 -53t-95.5 -25q-78 0 -124 58.5t-46 147.5zM68 196q0 -81 42 -135t110 -54q52 0 98 29t68 65l40 284q-4 9 -16.5 22t-46.5 30t-75 17q-92 0 -156 -74.5t-64 -183.5z" />
    <glyph glyph-name="Cacute" unicode="&#x106;" horiz-adv-x="667" 
d="M69 301q0 167 115 288t264 121q122 0 208 -93q4 -4 0 -8l-5 -5q-4 -4 -8 0q-79 89 -195 89q-143 0 -252 -116.5t-109 -275.5q0 -123 75.5 -208t186.5 -85q118 0 223 93q4 3 7 0l5 -6q3 -3 -1 -7q-107 -98 -234 -98q-123 0 -201.5 89.5t-78.5 221.5zM380 777q-5 -2 -8 3
l-3 6q-2 4 4 7l176 91q5 2 8 -3l3 -5q3 -6 -4 -9z" />
    <glyph glyph-name="cacute" unicode="&#x107;" horiz-adv-x="497" 
d="M49 199q0 118 76.5 195.5t180.5 77.5q90 0 151 -61q3 -6 -1 -10l-5 -5q-5 -4 -10 1l-5 5q-6 5 -11 9.5t-14 11t-19.5 11.5t-23.5 10t-29 7.5t-33 2.5q-96 0 -167.5 -72.5t-71.5 -182.5q0 -80 50.5 -136t120.5 -56q17 0 34 3t31 8.5t27.5 12t24 13.5t20 14t15 12t10.5 9
l4 4q4 5 8 1l5 -5q5 -5 0 -10l-9.5 -9.5t-25 -19.5t-38.5 -24t-48.5 -18.5t-57.5 -8.5q-79 0 -134 60.5t-55 149.5zM264 559q-5 -2 -8 3l-3 6q-2 4 4 7l176 91q5 2 8 -3l3 -5q3 -6 -4 -9z" />
    <glyph glyph-name="Ccircumflex" unicode="&#x108;" horiz-adv-x="667" 
d="M69 301q0 167 115 288t264 121q122 0 208 -93q4 -4 0 -8l-5 -5q-4 -4 -8 0q-79 89 -195 89q-143 0 -252 -116.5t-109 -275.5q0 -123 75.5 -208t186.5 -85q118 0 223 93q4 3 7 0l5 -6q3 -3 -1 -7q-107 -98 -234 -98q-123 0 -201.5 89.5t-78.5 221.5zM344 763q-4 -2 -7 1
l-3 5q-3 5 3 10q2 1 3 2l127 102q5 3 8 0l101 -106q4 -5 1 -8l-4 -4q-4 -4 -7 -1l-96 101z" />
    <glyph glyph-name="ccircumflex" unicode="&#x109;" horiz-adv-x="497" 
d="M49 199q0 118 76.5 195.5t180.5 77.5q90 0 151 -61q3 -6 -1 -10l-5 -5q-5 -4 -10 1l-5 5q-6 5 -11 9.5t-14 11t-19.5 11.5t-23.5 10t-29 7.5t-33 2.5q-96 0 -167.5 -72.5t-71.5 -182.5q0 -80 50.5 -136t120.5 -56q17 0 34 3t31 8.5t27.5 12t24 13.5t20 14t15 12t10.5 9
l4 4q4 5 8 1l5 -5q5 -5 0 -10l-9.5 -9.5t-25 -19.5t-38.5 -24t-48.5 -18.5t-57.5 -8.5q-79 0 -134 60.5t-55 149.5zM207 548q-4 -2 -7 1l-3 5q-3 5 3 10q2 1 3 2l127 102q5 3 8 0l101 -106q5 -4 1 -8l-4 -4q-4 -4 -7 -1l-96 101z" />
    <glyph glyph-name="Cdotaccent" unicode="&#x10a;" horiz-adv-x="667" 
d="M69 301q0 167 115 288t264 121q122 0 208 -93q4 -4 0 -8l-5 -5q-4 -4 -8 0q-79 89 -195 89q-143 0 -252 -116.5t-109 -275.5q0 -123 75.5 -208t186.5 -85q118 0 223 93q4 3 7 0l5 -6q3 -3 -1 -7q-107 -98 -234 -98q-123 0 -201.5 89.5t-78.5 221.5zM464 819q-20 0 -20 21
q0 10 8 18.5t19 8.5q19 0 19 -21q0 -11 -7.5 -19t-18.5 -8z" />
    <glyph glyph-name="cdotaccent" unicode="&#x10b;" horiz-adv-x="497" 
d="M49 199q0 118 76.5 195.5t180.5 77.5q90 0 151 -61q3 -6 -1 -10l-5 -5q-5 -4 -10 1l-5 5q-6 5 -11 9.5t-14 11t-19.5 11.5t-23.5 10t-29 7.5t-33 2.5q-96 0 -167.5 -72.5t-71.5 -182.5q0 -80 50.5 -136t120.5 -56q17 0 34 3t31 8.5t27.5 12t24 13.5t20 14t15 12t10.5 9
l4 4q4 5 8 1l5 -5q5 -5 0 -10l-9.5 -9.5t-25 -19.5t-38.5 -24t-48.5 -18.5t-57.5 -8.5q-79 0 -134 60.5t-55 149.5zM323 605q-20 0 -20 21q0 10 8.5 18.5t18.5 8.5q19 0 19 -21q0 -11 -7.5 -19t-18.5 -8z" />
    <glyph glyph-name="Ccaron" unicode="&#x10c;" horiz-adv-x="667" 
d="M69 301q0 167 115 288t264 121q122 0 208 -93q4 -4 0 -8l-5 -5q-4 -4 -8 0q-79 89 -195 89q-143 0 -252 -116.5t-109 -275.5q0 -123 75.5 -208t186.5 -85q118 0 223 93q4 3 7 0l5 -6q3 -3 -1 -7q-107 -98 -234 -98q-123 0 -201.5 89.5t-78.5 221.5zM454 771l-101 106
q-5 5 -1 8l4 4q4 4 7 1l96 -101l126 102q4 2 7 -1l3 -5q3 -5 -3 -10q-2 -1 -3 -2l-127 -102q-5 -3 -8 0z" />
    <glyph glyph-name="ccaron" unicode="&#x10d;" horiz-adv-x="497" 
d="M49 199q0 118 76.5 195.5t180.5 77.5q90 0 151 -61q3 -6 -1 -10l-5 -5q-5 -4 -10 1l-5 5q-6 5 -11 9.5t-14 11t-19.5 11.5t-23.5 10t-29 7.5t-33 2.5q-96 0 -167.5 -72.5t-71.5 -182.5q0 -80 50.5 -136t120.5 -56q17 0 34 3t31 8.5t27.5 12t24 13.5t20 14t15 12t10.5 9
l4 4q4 5 8 1l5 -5q5 -5 0 -10l-9.5 -9.5t-25 -19.5t-38.5 -24t-48.5 -18.5t-57.5 -8.5q-79 0 -134 60.5t-55 149.5zM311 553l-101 106q-4 5 -1 8l4 4q4 4 7 1l96 -101l126 102q4 2 7 -1l3 -5q3 -5 -3 -10q-2 -1 -3 -2l-127 -102q-5 -3 -8 0z" />
    <glyph glyph-name="Dcaron" unicode="&#x10e;" horiz-adv-x="677" 
d="M69 7l96 686q2 7 7 7h181q118 0 195 -88.5t77 -217.5q0 -106 -51.5 -197t-137 -144t-181.5 -53h-181q-5 0 -5 7zM88 18h169q138 0 244 111.5t106 264.5q0 121 -73 204.5t-184 83.5h-169zM352 771l-101 106q-5 5 -1 8l4 4q4 4 7 1l96 -101l126 102q4 2 7 -1l3 -5
q3 -5 -3 -10q-2 -1 -3 -2l-127 -102q-5 -3 -8 0z" />
    <glyph glyph-name="dcaron" unicode="&#x10f;" horiz-adv-x="528" 
d="M548 682q0 11 8.5 19.5t20.5 8.5q34 0 34 -48q0 -67 -48 -103q-6 -5 -9 0l-4 6q-4 6 4 11q36 27 36 78q0 7 -2 14q-6 -6 -19 -6q-9 0 -15 6t-6 14zM49 195q0 118 71.5 197.5t173.5 79.5q39 0 73 -15t49 -29l14 -15l40 279q0 8 6 8h7q6 0 4 -8l-95 -684q-1 -8 -8 -8h-5
q-7 0 -5 8l8 56q-27 -29 -70.5 -52t-95.5 -23q-75 0 -121 59t-46 147zM67 195q0 -80 41.5 -134t107.5 -54q35 0 68 12.5t54.5 30t32.5 29t15 17.5l41 289q-2 3 -5.5 7.5t-16 16.5t-26.5 21t-37 16.5t-48 7.5q-95 0 -161 -75t-66 -184z" />
    <glyph glyph-name="Dcroat" unicode="&#x110;" horiz-adv-x="696" 
d="M69 7l47 333h-36q-7 0 -5 7v4q2 7 8 7h36l47 335q0 7 7 7h198q117 0 195 -88.5t78 -215.5q0 -161 -112.5 -278.5t-258.5 -117.5h-198q-6 0 -6 7zM89 18h186q138 0 244 111.5t106 264.5q0 121 -73 204.5t-184 83.5h-186l-46 -324h258q8 0 6 -7l-1 -4q0 -7 -7 -7h-258z" />
    <glyph glyph-name="dcroat" unicode="&#x111;" horiz-adv-x="520" 
d="M49 195q0 118 71.5 197.5t173.5 79.5q39 0 73 -15t49 -29l14 -15l19 135h-203q-6 0 -6 7l1 4q0 7 8 7h203l18 126q0 8 6 8h7q6 0 4 -8l-18 -126h39q8 0 6 -7l-1 -4q-2 -7 -8 -7h-38l-75 -540q-1 -8 -8 -8h-5q-7 0 -5 8l8 56q-27 -29 -70.5 -52t-95.5 -23q-75 0 -121 59
t-46 147zM67 195q0 -80 41.5 -134t107.5 -54q35 0 68 12.5t54.5 30t32.5 29t15 17.5l41 289q-2 3 -5.5 7.5t-16 16.5t-26.5 21t-37 16.5t-48 7.5q-95 0 -161 -75t-66 -184z" />
    <glyph glyph-name="Emacron" unicode="&#x112;" horiz-adv-x="547" 
d="M69 7l97 686q0 7 7 7h366q8 0 6 -7l-1 -4q-2 -7 -7 -7h-355l-43 -309h311q8 0 6 -7l-1 -4q-2 -7 -7 -7h-312l-47 -337h354q9 0 7 -7l-1 -4q-2 -7 -8 -7h-366q-6 0 -6 7zM234 842q-8 0 -6 7l1 4q2 7 8 7h258q8 0 6 -7l-1 -4q-2 -7 -7 -7h-259z" />
    <glyph glyph-name="emacron" unicode="&#x113;" horiz-adv-x="493" 
d="M49 189q0 120 68.5 201.5t172.5 81.5q72 0 116 -36t44 -90q0 -63 -67.5 -98.5t-186.5 -35.5q-63 0 -127 10q-2 -22 -2 -31q0 -82 42 -133t116 -51q80 0 146 51q6 5 9 -1l3 -6q2 -4 -1 -7q-18 -18 -65.5 -36.5t-91.5 -18.5q-86 0 -131 56.5t-45 143.5zM71 240
q73 -10 124 -10q111 0 174 30t63 86q0 46 -39 77t-103 31q-85 0 -145.5 -61t-73.5 -153zM182 607q-8 0 -6 7l1 4q2 7 8 7h258q8 0 6 -7l-1 -4q-2 -7 -7 -7h-259z" />
    <glyph glyph-name="Ebreve" unicode="&#x114;" horiz-adv-x="547" 
d="M69 7l97 686q0 7 7 7h366q8 0 6 -7l-1 -4q-2 -7 -7 -7h-355l-43 -309h311q8 0 6 -7l-1 -4q-2 -7 -7 -7h-312l-47 -337h354q9 0 7 -7l-1 -4q-2 -7 -8 -7h-366q-6 0 -6 7zM361 780q-44 0 -71.5 30.5t-27.5 76.5q0 8 5 8h6q5 0 5 -6q-1 -40 23 -65.5t62 -25.5
q37 0 67.5 25.5t42.5 65.5q1 6 6 6h8q6 0 4 -8q-14 -46 -50 -76.5t-80 -30.5z" />
    <glyph glyph-name="ebreve" unicode="&#x115;" horiz-adv-x="493" 
d="M49 189q0 120 68.5 201.5t172.5 81.5q72 0 116 -36t44 -90q0 -63 -67.5 -98.5t-186.5 -35.5q-63 0 -127 10q-2 -22 -2 -31q0 -82 42 -133t116 -51q80 0 146 51q6 5 9 -1l3 -6q2 -4 -1 -7q-18 -18 -65.5 -36.5t-91.5 -18.5q-86 0 -131 56.5t-45 143.5zM71 240
q73 -10 124 -10q111 0 174 30t63 86q0 46 -39 77t-103 31q-85 0 -145.5 -61t-73.5 -153zM298 545q-44 0 -71.5 30.5t-27.5 76.5q0 8 5 8h6q5 0 5 -6q-1 -40 23 -65.5t62 -25.5q37 0 67.5 25.5t42.5 65.5q2 6 6 6h8q6 0 4 -8q-14 -46 -50 -76.5t-80 -30.5z" />
    <glyph glyph-name="Edotaccent" unicode="&#x116;" horiz-adv-x="547" 
d="M69 7l97 686q0 7 7 7h366q8 0 6 -7l-1 -4q-2 -7 -7 -7h-355l-43 -309h311q8 0 6 -7l-1 -4q-2 -7 -7 -7h-312l-47 -337h354q9 0 7 -7l-1 -4q-2 -7 -8 -7h-366q-6 0 -6 7zM369 819q-20 0 -20 21q0 10 8.5 18.5t18.5 8.5q19 0 19 -21q0 -11 -7.5 -19t-18.5 -8z" />
    <glyph glyph-name="edotaccent" unicode="&#x117;" horiz-adv-x="493" 
d="M49 189q0 120 68.5 201.5t172.5 81.5q72 0 116 -36t44 -90q0 -63 -67.5 -98.5t-186.5 -35.5q-63 0 -127 10q-2 -22 -2 -31q0 -82 42 -133t116 -51q80 0 146 51q6 5 9 -1l3 -6q2 -4 -1 -7q-18 -18 -65.5 -36.5t-91.5 -18.5q-86 0 -131 56.5t-45 143.5zM71 240
q73 -10 124 -10q111 0 174 30t63 86q0 46 -39 77t-103 31q-85 0 -145.5 -61t-73.5 -153zM308 605q-20 0 -20 21q0 10 8 18.5t19 8.5q19 0 19 -21q0 -11 -7.5 -19t-18.5 -8z" />
    <glyph glyph-name="Eogonek" unicode="&#x118;" horiz-adv-x="547" 
d="M69 7l97 686q0 7 7 7h366q8 0 6 -7l-1 -4q-2 -7 -7 -7h-355l-43 -309h311q8 0 6 -7l-1 -4q-2 -7 -7 -7h-312l-47 -337h354q9 0 7 -7l-1 -4q-1 -4 -7 -7q-30 -14 -50.5 -26.5t-45.5 -32.5t-38 -45t-13 -54q0 -27 16 -44.5t45 -17.5q41 0 70 23q6 4 9 -1l4 -6q2 -5 -6 -10
q-40 -24 -78 -24t-58 22t-20 57q0 87 130 159h-332q-6 0 -6 7z" />
    <glyph glyph-name="eogonek" unicode="&#x119;" horiz-adv-x="493" 
d="M49 189q0 120 68.5 201.5t172.5 81.5q72 0 116 -36t44 -90q0 -64 -68 -99.5t-186 -34.5q-63 0 -127 10q-2 -22 -2 -31q-1 -81 41.5 -132.5t116.5 -51.5q80 0 146 51q6 5 9 -1l3 -6q2 -4 -1 -7q-27 -27 -89 -44q-29 -14 -49.5 -26.5t-44.5 -32t-37 -45t-13 -54.5
q0 -27 16 -44.5t45 -17.5q41 0 70 23q6 4 9 -1l4 -6q2 -5 -6 -10q-40 -24 -78 -24t-58 22t-20 57q0 83 111 149q-6 -1 -17 -1q-86 0 -131 56.5t-45 143.5zM71 240q73 -10 124 -10q110 -1 173.5 29.5t63.5 86.5q0 46 -39 77t-103 31q-85 0 -145.5 -61t-73.5 -153z" />
    <glyph glyph-name="Ecaron" unicode="&#x11a;" horiz-adv-x="547" 
d="M69 7l97 686q0 7 7 7h366q8 0 6 -7l-1 -4q-2 -7 -7 -7h-355l-43 -309h311q8 0 6 -7l-1 -4q-2 -7 -7 -7h-312l-47 -337h354q9 0 7 -7l-1 -4q-2 -7 -8 -7h-366q-6 0 -6 7zM351 771l-101 106q-4 5 -1 8l4 4q4 4 7 1l96 -101l126 102q4 2 7 -1l3 -5q3 -5 -3 -10q-2 -1 -3 -2
l-127 -102q-5 -3 -8 0z" />
    <glyph glyph-name="ecaron" unicode="&#x11b;" horiz-adv-x="493" 
d="M49 189q0 120 68.5 201.5t172.5 81.5q72 0 116 -36t44 -90q0 -63 -67.5 -98.5t-186.5 -35.5q-63 0 -127 10q-2 -22 -2 -31q0 -82 42 -133t116 -51q80 0 146 51q6 5 9 -1l3 -6q2 -4 -1 -7q-18 -18 -65.5 -36.5t-91.5 -18.5q-86 0 -131 56.5t-45 143.5zM71 240
q73 -10 124 -10q111 0 174 30t63 86q0 46 -39 77t-103 31q-85 0 -145.5 -61t-73.5 -153zM297 553l-101 106q-4 5 -1 8l4 4q4 4 7 1l96 -101l126 102q4 2 7 -1l3 -5q3 -5 -3 -10q-2 -1 -3 -2l-127 -102q-5 -3 -8 0z" />
    <glyph glyph-name="Gcircumflex" unicode="&#x11c;" horiz-adv-x="695" 
d="M69 301q0 167 115 288t264 121q122 0 208 -93q4 -4 0 -8l-5 -5q-4 -4 -8 0q-79 89 -195 89q-143 0 -252 -116.5t-109 -275.5q0 -124 75 -208.5t190 -84.5q78 0 136.5 23.5t82.5 45.5l34 235h-202q-7 0 -5 7l1 4q2 6 7 6h212q6 0 6 -6l-36 -253q-6 -9 -32 -26t-84 -35.5
t-123 -18.5q-121 0 -200.5 90t-79.5 221zM350 763q-4 -2 -7 1l-3 5q-3 5 3 10q2 1 3 2l127 102q5 3 8 0l101 -106q4 -5 1 -8l-4 -4q-4 -4 -7 -1l-96 101z" />
    <glyph glyph-name="gcircumflex" unicode="&#x11d;" horiz-adv-x="521" 
d="M196 548q-4 -2 -7 1l-3 5q-3 5 3 10q2 1 3 2l127 102q5 3 8 0l101 -106q4 -4 1 -8l-4 -4q-4 -4 -7 -1l-96 101zM49 196q0 116 69.5 196t169.5 80q89 0 143 -62l7 44q2 8 6 8h5q7 0 5 -8l-61 -451q-16 -117 -68.5 -169.5t-129.5 -52.5q-38 0 -73.5 17.5t-50.5 32t-25 27.5
q-5 6 1 11l5 4q4 2 7 -1q61 -73 137 -73q71 0 118 51.5t61 155.5l6 40q-64 -57 -146 -57q-85 0 -135.5 59t-50.5 148zM67 196q0 -80 46 -134.5t122 -54.5q30 0 58 8.5t46.5 21.5t29.5 22.5t15 15.5l42 306q-5 9 -17 23t-46 32t-75 18q-92 0 -156.5 -74.5t-64.5 -183.5z" />
    <glyph glyph-name="Gbreve" unicode="&#x11e;" horiz-adv-x="695" 
d="M69 301q0 167 115 288t264 121q122 0 208 -93q4 -4 0 -8l-5 -5q-4 -4 -8 0q-79 89 -195 89q-143 0 -252 -116.5t-109 -275.5q0 -124 75 -208.5t190 -84.5q78 0 136.5 23.5t82.5 45.5l34 235h-202q-7 0 -5 7l1 4q2 6 7 6h212q6 0 6 -6l-36 -253q-6 -9 -32 -26t-84 -35.5
t-123 -18.5q-121 0 -200.5 90t-79.5 221zM473 780q-44 0 -71.5 30.5t-27.5 76.5q0 8 5 8h6q5 0 5 -6q-1 -40 23 -65.5t62 -25.5q37 0 67.5 25.5t42.5 65.5q1 6 6 6h8q6 0 4 -8q-14 -46 -50 -76.5t-80 -30.5z" />
    <glyph glyph-name="gbreve" unicode="&#x11f;" horiz-adv-x="521" 
d="M306 545q-44 0 -71.5 30.5t-27.5 76.5q0 8 5 8h6q5 0 5 -6q-1 -40 23 -65.5t62 -25.5q37 0 67.5 25.5t42.5 65.5q2 6 6 6h8q6 0 4 -8q-14 -46 -50 -76.5t-80 -30.5zM49 196q0 116 69.5 196t169.5 80q89 0 143 -62l7 44q2 8 6 8h5q7 0 5 -8l-61 -451
q-16 -117 -68.5 -169.5t-129.5 -52.5q-38 0 -73.5 17.5t-50.5 32t-25 27.5q-5 6 1 11l5 4q4 2 7 -1q61 -73 137 -73q71 0 118 51.5t61 155.5l6 40q-64 -57 -146 -57q-85 0 -135.5 59t-50.5 148zM67 196q0 -80 46 -134.5t122 -54.5q30 0 58 8.5t46.5 21.5t29.5 22.5t15 15.5
l42 306q-5 9 -17 23t-46 32t-75 18q-92 0 -156.5 -74.5t-64.5 -183.5z" />
    <glyph glyph-name="Gdotaccent" unicode="&#x120;" horiz-adv-x="695" 
d="M69 301q0 167 115 288t264 121q122 0 208 -93q4 -4 0 -8l-5 -5q-4 -4 -8 0q-79 89 -195 89q-143 0 -252 -116.5t-109 -275.5q0 -124 75 -208.5t190 -84.5q78 0 136.5 23.5t82.5 45.5l34 235h-202q-7 0 -5 7l1 4q2 6 7 6h212q6 0 6 -6l-36 -253q-6 -9 -32 -26t-84 -35.5
t-123 -18.5q-121 0 -200.5 90t-79.5 221zM472 819q-20 0 -20 21q0 10 8 18.5t19 8.5q19 0 19 -21q0 -11 -7.5 -19t-18.5 -8z" />
    <glyph glyph-name="gdotaccent" unicode="&#x121;" horiz-adv-x="521" 
d="M313 605q-20 0 -20 21q0 10 8.5 18.5t18.5 8.5q19 0 19 -21q0 -11 -7.5 -19t-18.5 -8zM49 196q0 116 69.5 196t169.5 80q89 0 143 -62l7 44q2 8 6 8h5q7 0 5 -8l-61 -451q-16 -117 -68.5 -169.5t-129.5 -52.5q-38 0 -73.5 17.5t-50.5 32t-25 27.5q-5 6 1 11l5 4q4 2 7 -1
q61 -73 137 -73q71 0 118 51.5t61 155.5l6 40q-64 -57 -146 -57q-85 0 -135.5 59t-50.5 148zM67 196q0 -80 46 -134.5t122 -54.5q30 0 58 8.5t46.5 21.5t29.5 22.5t15 15.5l42 306q-5 9 -17 23t-46 32t-75 18q-92 0 -156.5 -74.5t-64.5 -183.5z" />
    <glyph glyph-name="Gcommaaccent" unicode="&#x122;" horiz-adv-x="695" 
d="M69 301q0 167 115 288t264 121q122 0 208 -93q4 -4 0 -8l-5 -5q-4 -4 -8 0q-79 89 -195 89q-143 0 -252 -116.5t-109 -275.5q0 -124 75 -208.5t190 -84.5q78 0 136.5 23.5t82.5 45.5l34 235h-202q-7 0 -5 7l1 4q2 6 7 6h212q6 0 6 -6l-36 -253q-6 -9 -32 -26t-84 -35.5
t-123 -18.5q-121 0 -200.5 90t-79.5 221zM310 -111q0 11 8.5 19.5t20.5 8.5q34 0 34 -48q0 -67 -48 -103q-6 -5 -9 0l-4 6q-4 6 4 11q36 27 36 78q0 7 -2 14q-6 -6 -19 -6q-9 0 -15 6t-6 14z" />
    <glyph glyph-name="gcommaaccent" unicode="&#x123;" horiz-adv-x="521" 
d="M49 196q0 116 69.5 196t169.5 80q89 0 143 -62l7 44q2 8 6 8h5q7 0 5 -8l-61 -451q-16 -117 -68.5 -169.5t-129.5 -52.5q-38 0 -73.5 17.5t-50.5 32t-25 27.5q-5 6 1 11l5 4q4 2 7 -1q61 -73 137 -73q71 0 118 51.5t61 155.5l6 40q-64 -57 -146 -57q-85 0 -135.5 59
t-50.5 148zM67 196q0 -80 46 -134.5t122 -54.5q30 0 58 8.5t46.5 21.5t29.5 22.5t15 15.5l42 306q-5 9 -17 23t-46 32t-75 18q-92 0 -156.5 -74.5t-64.5 -183.5zM358 604q0 -11 -8.5 -19.5t-20.5 -8.5q-34 0 -34 48q0 67 48 103q6 5 9 0l4 -6q4 -6 -4 -11q-36 -27 -36 -78
q0 -7 2 -14q6 6 19 6q9 0 15 -6t6 -14z" />
    <glyph glyph-name="Hcircumflex" unicode="&#x124;" horiz-adv-x="692" 
d="M69 7l97 686q0 7 7 7h5q7 0 5 -7l-44 -320h440l45 320q2 7 7 7h5q8 0 6 -7l-97 -686q-2 -7 -7 -7h-5q-8 0 -6 7l49 348h-440l-49 -348q-2 -7 -8 -7h-4q-8 0 -6 7zM301 763q-4 -2 -7 1l-3 5q-3 5 3 10q2 1 3 2l127 102q5 3 8 0l101 -106q5 -5 1 -8l-4 -4q-4 -4 -7 -1
l-96 101z" />
    <glyph glyph-name="hcircumflex" unicode="&#x125;" horiz-adv-x="504" 
d="M61 0h-4q-9 0 -7 8l98 684q2 8 8 8h4q8 0 6 -8l-44 -307q79 87 165 87q162 0 130 -214l-36 -250q-2 -8 -7 -8h-4q-9 0 -7 8l36 250q14 100 -13.5 148t-98.5 48q-14 0 -28 -2.5t-25.5 -6.5t-23.5 -10t-21 -12t-18.5 -14t-16 -14t-13 -13.5t-10 -11.5t-7.5 -10l-5 -5
l-50 -347q-2 -8 -8 -8zM47 765q-4 -2 -7 1l-3 5q-3 5 3 10q2 1 3 2l127 102q5 3 8 0l101 -106q5 -5 1 -8l-4 -4q-4 -4 -7 -1l-96 101z" />
    <glyph glyph-name="Hbar" unicode="&#x126;" horiz-adv-x="692" 
d="M69 7l76 541h-26q-7 0 -5 7l1 4q2 7 7 7h26l18 127q0 7 7 7h5q7 0 5 -7l-17 -127h440l18 127q0 7 8 7h4q6 0 6 -7l-18 -127h28q8 0 6 -7l-1 -4q-2 -7 -7 -7h-29l-76 -541q-1 -7 -7 -7h-6q-6 0 -5 7l49 348h-440l-49 -348q0 -7 -8 -7h-4q-6 0 -6 7zM139 373h440l24 175
h-440z" />
    <glyph glyph-name="hbar" unicode="&#x127;" horiz-adv-x="525" 
d="M61 0h-4q-9 0 -7 8l77 540h-39q-7 0 -5 7l1 4q2 7 7 7h39l18 126q2 8 8 8h4q8 0 6 -8l-18 -126h202q8 0 6 -7l-1 -4q-2 -7 -8 -7h-202l-23 -163q87 87 175 87q83 0 119.5 -54.5t20.5 -159.5l-36 -250q-2 -8 -7 -8h-4q-9 0 -7 8l36 250q28 196 -122 196q-96 0 -178 -98
l-50 -348q-2 -8 -8 -8z" />
    <glyph glyph-name="Itilde" unicode="&#x128;" horiz-adv-x="234" 
d="M69 7l96 686q2 7 8 7h4q8 0 6 -7l-96 -686q-2 -7 -8 -7h-4q-8 0 -6 7zM69 802l-7 2q-6 2 -3 9q35 84 90 84q24 0 37 -17t16 -37t12.5 -37t28.5 -17q41 0 70 72q3 7 7 6l7 -2q7 -2 3 -9q-37 -84 -89 -84q-23 0 -36 17t-17 37t-14 37t-27 17q-18 0 -34.5 -16.5t-24 -30
t-12.5 -26.5q-3 -7 -7 -5z" />
    <glyph glyph-name="itilde" unicode="&#x129;" horiz-adv-x="198" 
d="M58 0q-9 0 -7 8l63 446q2 8 8 8h5q8 0 6 -8l-63 -446q-2 -8 -7 -8h-5zM20 583l-7 2q-6 1 -3 9q35 84 90 84q24 0 37 -17t16 -37t12.5 -37t28.5 -17q41 0 70 72q3 7 7 6l7 -2q7 -2 3 -9q-37 -84 -89 -84q-23 0 -36 17t-17 37t-13.5 37t-27.5 17t-34.5 -16.5t-24 -30
t-12.5 -26.5q-3 -7 -7 -5z" />
    <glyph glyph-name="Imacron" unicode="&#x12a;" horiz-adv-x="234" 
d="M69 7l96 686q2 7 8 7h4q8 0 6 -7l-96 -686q-2 -7 -8 -7h-4q-8 0 -6 7zM66 842q-8 0 -6 7l1 4q2 7 8 7h258q8 0 6 -7l-1 -4q-2 -7 -7 -7h-259z" />
    <glyph glyph-name="imacron" unicode="&#x12b;" horiz-adv-x="198" 
d="M57 0q-9 0 -7 8l63 446q2 8 8 8h5q8 0 6 -8l-63 -446q-2 -8 -7 -8h-5zM14 607q-8 0 -6 7l1 4q2 7 8 7h258q8 0 6 -7l-1 -4q-2 -7 -7 -7h-259z" />
    <glyph glyph-name="Ibreve" unicode="&#x12c;" horiz-adv-x="234" 
d="M69 7l96 686q2 7 8 7h4q8 0 6 -7l-96 -686q-2 -7 -8 -7h-4q-8 0 -6 7zM192 780q-44 0 -71.5 30.5t-27.5 76.5q0 8 5 8h6q5 0 5 -6q-1 -40 23 -65.5t62 -25.5q37 0 67.5 25.5t42.5 65.5q2 6 6 6h8q6 0 4 -8q-14 -46 -50 -76.5t-80 -30.5z" />
    <glyph glyph-name="ibreve" unicode="&#x12d;" horiz-adv-x="198" 
d="M57 0q-9 0 -7 8l63 446q2 8 8 8h5q8 0 6 -8l-63 -446q-2 -8 -7 -8h-5zM134 545q-44 0 -71.5 30.5t-27.5 76.5q0 8 5 8h6q5 0 5 -6q-1 -40 23 -65.5t62 -25.5q37 0 67.5 25.5t42.5 65.5q2 6 6 6h8q6 0 4 -8q-14 -46 -50 -76.5t-80 -30.5z" />
    <glyph glyph-name="Iogonek" unicode="&#x12e;" horiz-adv-x="234" 
d="M70 14l95 679q2 7 8 7h4q8 0 6 -7l-96 -683q-1 -8 -7 -10q-30 -14 -50.5 -26.5t-45.5 -32.5t-38 -45t-13 -54q0 -27 16 -44.5t45 -17.5q41 0 70 23q6 4 9 -1l4 -6q2 -5 -6 -10q-40 -24 -78 -24t-58 22t-20 57q0 56 42 96.5t113 76.5z" />
    <glyph glyph-name="iogonek" unicode="&#x12f;" horiz-adv-x="199" 
d="M-101 -159q0 96 153 173l62 440q2 8 8 8h5q9 0 6 -8l-62 -444q-1 -7 -7 -10q-30 -14 -50.5 -26.5t-45.5 -32.5t-38 -45t-13 -54q0 -27 16 -44.5t45 -17.5q41 0 70 23q6 4 9 -1l4 -6q2 -5 -6 -10q-40 -24 -78 -24t-58 22t-20 57zM144 605q-20 0 -20 21q0 10 8 18.5t19 8.5
q19 0 19 -21q0 -11 -7.5 -19t-18.5 -8z" />
    <glyph glyph-name="Idotaccent" unicode="&#x130;" horiz-adv-x="234" 
d="M69 7l96 686q2 7 8 7h4q8 0 6 -7l-96 -686q-2 -7 -8 -7h-4q-8 0 -6 7zM193 819q-20 0 -20 21q0 10 8.5 18.5t18.5 8.5q19 0 19 -21q0 -11 -7.5 -19t-18.5 -8z" />
    <glyph glyph-name="dotlessi" unicode="&#x131;" horiz-adv-x="198" 
d="M57 0q-9 0 -7 8l63 446q2 8 8 8h5q8 0 6 -8l-63 -446q-2 -8 -7 -8h-5z" />
    <glyph glyph-name="IJ" unicode="&#x132;" horiz-adv-x="611" 
d="M69 7l96 686q2 7 8 7h4q8 0 6 -7l-96 -686q-2 -7 -8 -7h-4q-8 0 -6 7zM301 -10q-52 0 -84 25t-45 52q-2 7 2 9l4 2q6 4 9 -1q38 -70 115 -70q73 0 120 54t61 153l68 479q0 7 7 7h4q7 0 5 -7l-67 -479q-15 -106 -66.5 -165t-132.5 -59z" />
    <glyph glyph-name="ij" unicode="&#x133;" horiz-adv-x="378" 
d="M57 0q-9 0 -7 8l63 446q2 8 8 8h5q8 0 6 -8l-63 -446q-2 -8 -7 -8h-5zM143 605q-20 0 -20 21q0 10 8.5 18.5t18.5 8.5q19 0 19 -21q0 -11 -7.5 -19t-18.5 -8zM326 605q-20 0 -20 21q0 10 8 18.5t19 8.5q19 0 19 -21q0 -11 -7.5 -19t-18.5 -8zM306 462q8 0 6 -8l-73 -519
q-11 -83 -48.5 -126t-106.5 -58q-9 -1 -10 5l-1 5q-1 6 8 8q63 15 96 52.5t44 113.5l73 519q2 8 8 8h4z" />
    <glyph glyph-name="Jcircumflex" unicode="&#x134;" horiz-adv-x="432" 
d="M122 -10q-52 0 -84 25t-45 52q-2 7 2 9l4 2q6 4 9 -1q38 -70 115 -70q73 0 120 54t61 153l68 479q0 7 7 7h4q7 0 5 -7l-67 -479q-15 -106 -66.5 -165t-132.5 -59zM278 763q-4 -2 -7 1l-3 5q-3 5 3 10q2 1 3 2l127 102q5 3 8 0l101 -106q4 -5 1 -8l-4 -4q-4 -4 -7 -1
l-96 101z" />
    <glyph glyph-name="jcircumflex" unicode="&#x135;" horiz-adv-x="197" 
d="M131 454l-73 -519q-11 -83 -48.5 -126t-106.5 -58q-9 -1 -10 5l-1 5q-1 6 8 8q63 15 96 52.5t44 113.5l73 519q2 8 8 8h4q8 0 6 -8zM25 548q-4 -2 -7 1l-3 5q-3 5 3 10q2 1 3 2l127 102q5 3 8 0l101 -106q5 -4 1 -8l-4 -4q-4 -4 -7 -1l-96 101z" />
    <glyph glyph-name="Kcommaaccent" unicode="&#x136;" horiz-adv-x="504" 
d="M69 7l97 686q2 7 7 7h5q8 0 6 -7l-47 -330l380 336q6 4 10 0l3 -3q5 -5 0 -10l-378 -333l292 -343q4 -5 -1 -10l-5 -4q-5 -3 -9 2l-295 347l-47 -338q-2 -7 -8 -7h-4q-8 0 -6 7zM199 -111q0 11 8.5 19.5t20.5 8.5q34 0 34 -48q0 -67 -48 -103q-6 -5 -9 0l-4 6q-4 6 4 11
q36 27 36 78q0 7 -2 14q-6 -6 -19 -6q-9 0 -15 6t-6 14z" />
    <glyph glyph-name="kcommaaccent" unicode="&#x137;" horiz-adv-x="417" 
d="M57 0q-9 0 -7 8l98 684q2 8 8 8h4q10 0 8 -8l-62 -426l287 202q5 3 9 -1l4 -6q3 -5 -3 -9l-280 -198l223 -243q4 -5 -1 -10l-4 -4q-6 -6 -11 1l-226 250l-34 -240q-2 -8 -9 -8h-4zM142 -111q0 11 8.5 19.5t20.5 8.5q34 0 34 -48q0 -67 -48 -103q-6 -5 -9 0l-4 6
q-4 6 4 11q36 27 36 78q0 7 -2 14q-6 -6 -19 -6q-9 0 -15 6t-6 14z" />
    <glyph glyph-name="kgreenlandic" unicode="&#x138;" horiz-adv-x="436" 
d="M50 8l64 446q0 8 9 8h4q6 0 6 -8l-29 -214l301 228q6 4 9 -2l4 -7q3 -5 -2 -10l-296 -220l248 -216q6 -5 0 -11l-5 -5q-4 -4 -8 -1l-255 224l-30 -212q0 -8 -9 -8h-3q-8 0 -8 8z" />
    <glyph glyph-name="Lacute" unicode="&#x139;" horiz-adv-x="456" 
d="M69 7l97 686q2 7 7 7h5q7 0 5 -7l-95 -676h312q8 0 6 -6l-1 -4q-2 -7 -7 -7h-323q-6 0 -6 7zM110 777q-5 -2 -8 3l-3 6q-2 4 4 7l176 91q5 2 8 -3l3 -5q3 -6 -4 -9z" />
    <glyph glyph-name="lacute" unicode="&#x13a;" horiz-adv-x="214" 
d="M69 0h-4q-9 0 -7 8l98 684q2 8 7 8h5q8 0 6 -8l-97 -684q-2 -8 -8 -8zM119 776q-5 -2 -8 3l-3 6q-2 4 4 7l176 91q5 2 8 -3l3 -5q3 -6 -4 -9z" />
    <glyph glyph-name="Lcommaaccent" unicode="&#x13b;" horiz-adv-x="456" 
d="M69 7l97 686q2 7 7 7h5q7 0 5 -7l-95 -676h312q8 0 6 -6l-1 -4q-2 -7 -7 -7h-323q-6 0 -6 7zM189 -111q0 11 8.5 19.5t20.5 8.5q34 0 34 -48q0 -67 -48 -103q-6 -5 -9 0l-4 6q-4 6 4 11q36 27 36 78q0 7 -2 14q-6 -6 -19 -6q-9 0 -15 6t-6 14z" />
    <glyph glyph-name="lcommaaccent" unicode="&#x13c;" horiz-adv-x="214" 
d="M69 0h-4q-9 0 -7 8l98 684q2 8 7 8h5q8 0 6 -8l-97 -684q-2 -8 -8 -8zM27 -111q0 11 8.5 19.5t20.5 8.5q34 0 34 -48q0 -67 -48 -103q-6 -5 -9 0l-4 6q-4 6 4 11q36 27 36 78q0 7 -2 14q-6 -6 -19 -6q-9 0 -15 6t-6 14z" />
    <glyph glyph-name="Lcaron" unicode="&#x13d;" horiz-adv-x="462" 
d="M69 7l97 686q2 7 7 7h5q7 0 5 -7l-95 -676h312q8 0 6 -6l-1 -4q-2 -7 -7 -7h-323q-6 0 -6 7zM392 683q0 11 8.5 19.5t20.5 8.5q34 0 34 -48q0 -67 -48 -103q-6 -5 -9 0l-4 6q-4 6 4 11q36 27 36 78q0 7 -2 14q-6 -6 -19 -6q-9 0 -15 6t-6 14z" />
    <glyph glyph-name="lcaron" unicode="&#x13e;" horiz-adv-x="214" 
d="M69 0h-4q-9 0 -7 8l98 684q2 8 7 8h5q8 0 6 -8l-97 -684q-2 -8 -8 -8zM232 682q0 11 8.5 19.5t20.5 8.5q34 0 34 -48q0 -67 -48 -103q-6 -5 -9 0l-4 6q-4 6 4 11q36 27 36 78q0 7 -2 14q-6 -6 -19 -6q-9 0 -15 6t-6 14z" />
    <glyph glyph-name="Ldot" unicode="&#x13f;" horiz-adv-x="464" 
d="M69 7l97 686q2 7 7 7h5q7 0 5 -7l-95 -676h312q8 0 6 -6l-1 -4q-2 -7 -7 -7h-323q-6 0 -6 7zM396 322q-8 0 -13.5 6.5t-5.5 14.5q0 11 8 18.5t18 7.5q19 0 19 -20q0 -11 -7.5 -19t-18.5 -8z" />
    <glyph glyph-name="ldot" unicode="&#x140;" horiz-adv-x="315" 
d="M69 0h-4q-9 0 -7 8l98 684q2 8 7 8h5q8 0 6 -8l-97 -684q-2 -8 -8 -8zM260 321q-8 0 -13.5 6.5t-5.5 14.5q0 11 8 18.5t18 7.5q19 0 19 -20q0 -11 -7.5 -19t-18.5 -8z" />
    <glyph glyph-name="Lslash" unicode="&#x141;" horiz-adv-x="460" 
d="M68 7l46 322l-42 -20q-7 -3 -8 1l-2 8q-2 5 5 7l50 24l48 344q0 7 8 7h4q8 0 6 -7l-47 -336l172 85q6 2 8 -3l2 -6q1 -4 -5 -7l-180 -89l-45 -319h329q9 0 7 -7l-1 -4q-2 -7 -8 -7h-341q-6 0 -6 7z" />
    <glyph glyph-name="lslash" unicode="&#x142;" horiz-adv-x="272" 
d="M75 0h-4q-9 0 -7 8l48 340l-80 -39q-5 -2 -6 2l-2 6q-2 6 4 8l87 42l47 325q2 8 7 8h5q8 0 6 -8l-45 -315l131 64q6 3 9 -3l2 -5q2 -4 -4 -7l-141 -68l-49 -350q-2 -8 -8 -8z" />
    <glyph glyph-name="Nacute" unicode="&#x143;" horiz-adv-x="710" 
d="M69 7l99 703q1 5 6 6.5t7 -2.5l367 -688l94 667q2 7 8 7h4q8 0 6 -7l-99 -701q-1 -5 -6 -6.5t-7 2.5l-367 688l-94 -669q-2 -7 -8 -7h-4q-8 0 -6 7zM359 777q-5 -2 -8 3l-3 6q-2 4 4 7l176 91q5 2 8 -3l3 -5q3 -6 -4 -9z" />
    <glyph glyph-name="nacute" unicode="&#x144;" horiz-adv-x="506" 
d="M50 8l64 446q2 8 7 8h5q5 0 5 -8l-8 -63q76 81 165 81q162 0 130 -214l-35 -250q-2 -8 -8 -8h-5q-8 0 -6 8l36 250q28 196 -112 196q-44 0 -84 -21t-57 -39.5t-28 -34.5l-50 -351q-2 -8 -8 -8h-4q-9 0 -7 8zM241 560q-5 -2 -8 3l-3 6q-2 4 4 7l176 91q5 2 8 -3l3 -5
q3 -6 -4 -9z" />
    <glyph glyph-name="Ncommaaccent" unicode="&#x145;" horiz-adv-x="710" 
d="M69 7l99 703q1 5 6 6.5t7 -2.5l367 -688l94 667q2 7 8 7h4q8 0 6 -7l-99 -701q-1 -5 -6 -6.5t-7 2.5l-367 688l-94 -669q-2 -7 -8 -7h-4q-8 0 -6 7zM281 -111q0 11 8.5 19.5t20.5 8.5q34 0 34 -48q0 -67 -48 -103q-6 -5 -9 0l-4 6q-4 6 4 11q36 27 36 78q0 7 -2 14
q-6 -6 -19 -6q-9 0 -15 6t-6 14z" />
    <glyph glyph-name="ncommaaccent" unicode="&#x146;" horiz-adv-x="506" 
d="M50 8l64 446q2 8 7 8h5q5 0 5 -8l-8 -63q76 81 165 81q162 0 130 -214l-35 -250q-2 -8 -8 -8h-5q-8 0 -6 8l36 250q28 196 -112 196q-44 0 -84 -21t-57 -39.5t-28 -34.5l-50 -351q-2 -8 -8 -8h-4q-9 0 -7 8zM180 -110q0 11 8.5 19.5t20.5 8.5q34 0 34 -48q0 -67 -48 -103
q-6 -5 -9 0l-4 6q-4 6 4 11q36 27 36 78q0 7 -2 14q-6 -6 -19 -6q-9 0 -15 6t-6 14z" />
    <glyph glyph-name="Ncaron" unicode="&#x147;" horiz-adv-x="710" 
d="M69 7l99 703q1 5 6 6.5t7 -2.5l367 -688l94 667q2 7 8 7h4q8 0 6 -7l-99 -701q-1 -5 -6 -6.5t-7 2.5l-367 688l-94 -669q-2 -7 -8 -7h-4q-8 0 -6 7zM423 771l-101 106q-4 5 -1 8l4 4q4 4 7 1l96 -101l126 102q4 2 7 -1l3 -5q3 -5 -3 -10q-2 -1 -3 -2l-127 -102
q-5 -3 -8 0z" />
    <glyph glyph-name="ncaron" unicode="&#x148;" horiz-adv-x="506" 
d="M50 8l64 446q2 8 7 8h5q5 0 5 -8l-8 -63q76 81 165 81q162 0 130 -214l-35 -250q-2 -8 -8 -8h-5q-8 0 -6 8l36 250q28 196 -112 196q-44 0 -84 -21t-57 -39.5t-28 -34.5l-50 -351q-2 -8 -8 -8h-4q-9 0 -7 8zM298 554l-101 106q-5 4 -1 8l4 4q4 4 7 1l96 -101l126 102
q4 2 7 -1l3 -5q3 -5 -3 -10q-2 -1 -3 -2l-127 -102q-5 -3 -8 0z" />
    <glyph glyph-name="napostrophe" unicode="&#x149;" horiz-adv-x="506" 
d="M50 8l64 446q2 8 7 8h5q5 0 5 -8l-8 -63q76 81 165 81q162 0 130 -214l-35 -250q-2 -8 -8 -8h-5q-8 0 -6 8l36 250q28 196 -112 196q-44 0 -84 -21t-57 -39.5t-28 -34.5l-50 -351q-2 -8 -8 -8h-4q-9 0 -7 8zM74 682q0 11 8.5 19.5t20.5 8.5q34 0 34 -48q0 -67 -48 -103
q-6 -5 -9 0l-4 6q-4 6 4 11q36 27 36 78q0 7 -2 14q-6 -6 -19 -6q-9 0 -15 6t-6 14z" />
    <glyph glyph-name="Eng" unicode="&#x14a;" horiz-adv-x="711" 
d="M660 693l-106 -758q-12 -84 -49 -127t-106 -57q-9 -1 -10 5l-1 5q-1 6 8 8q63 15 96.5 52.5t43.5 113.5l8 60l-363 681l-94 -669q-2 -7 -8 -7h-4q-8 0 -6 7l99 703q1 5 6 6.5t7 -2.5l367 -688l94 667q2 7 8 7h4q8 0 6 -7z" />
    <glyph glyph-name="eng" unicode="&#x14b;" horiz-adv-x="506" 
d="M353 -65l47 323q28 196 -112 196q-44 0 -84 -21.5t-57.5 -39.5t-27.5 -34l-50 -351q-2 -8 -8 -8h-4q-9 0 -7 8l64 446q2 8 7 8h5q5 0 5 -8l-8 -63q76 81 165 81q162 0 130 -214l-45 -323q-12 -83 -49.5 -126.5t-106.5 -57.5q-9 -1 -10 5l-1 5q-1 6 8 8q63 15 95.5 52
t43.5 114z" />
    <glyph glyph-name="Omacron" unicode="&#x14c;" horiz-adv-x="780" 
d="M70 302q0 168 114.5 288t265.5 120q121 0 200 -90.5t79 -222.5q0 -167 -114.5 -287t-265.5 -120q-121 0 -200 90.5t-79 221.5zM88 303q0 -124 74.5 -209.5t186.5 -85.5q143 0 252.5 114.5t109.5 273.5q0 125 -74.5 210.5t-187.5 85.5q-143 0 -252 -115t-109 -274z
M342 842q-8 0 -6 7l1 4q2 7 8 7h258q8 0 6 -7l-1 -4q-2 -7 -7 -7h-259z" />
    <glyph glyph-name="omacron" unicode="&#x14d;" horiz-adv-x="537" 
d="M49 197q0 113 73.5 194t172.5 81q79 0 128.5 -59.5t49.5 -146.5q0 -114 -73 -195.5t-172 -81.5q-80 0 -129.5 59.5t-49.5 148.5zM67 197q0 -80 45.5 -135t115.5 -55q91 0 159 77t68 182q0 80 -44.5 134t-115.5 54q-91 0 -159.5 -76.5t-68.5 -180.5zM187 607q-8 0 -6 7
l1 4q2 7 8 7h258q8 0 6 -7l-1 -4q-2 -7 -7 -7h-259z" />
    <glyph glyph-name="Obreve" unicode="&#x14e;" horiz-adv-x="780" 
d="M70 302q0 168 114.5 288t265.5 120q121 0 200 -90.5t79 -222.5q0 -167 -114.5 -287t-265.5 -120q-121 0 -200 90.5t-79 221.5zM88 303q0 -124 74.5 -209.5t186.5 -85.5q143 0 252.5 114.5t109.5 273.5q0 125 -74.5 210.5t-187.5 85.5q-143 0 -252 -115t-109 -274z
M473 780q-44 0 -71.5 30.5t-27.5 76.5q0 8 5 8h6q5 0 5 -6q-1 -40 23 -65.5t62 -25.5q37 0 67.5 25.5t42.5 65.5q1 6 6 6h8q6 0 4 -8q-14 -46 -50 -76.5t-80 -30.5z" />
    <glyph glyph-name="obreve" unicode="&#x14f;" horiz-adv-x="537" 
d="M49 197q0 113 73.5 194t172.5 81q79 0 128.5 -59.5t49.5 -146.5q0 -114 -73 -195.5t-172 -81.5q-80 0 -129.5 59.5t-49.5 148.5zM67 197q0 -80 45.5 -135t115.5 -55q91 0 159 77t68 182q0 80 -44.5 134t-115.5 54q-91 0 -159.5 -76.5t-68.5 -180.5zM311 545
q-44 0 -71.5 30.5t-27.5 76.5q0 8 5 8h6q5 0 5 -6q-1 -40 23 -65.5t62 -25.5q37 0 67.5 25.5t42.5 65.5q1 6 6 6h8q6 0 4 -8q-14 -46 -50 -76.5t-80 -30.5z" />
    <glyph glyph-name="Ohungarumlaut" unicode="&#x150;" horiz-adv-x="780" 
d="M70 302q0 168 114.5 288t265.5 120q121 0 200 -90.5t79 -222.5q0 -167 -114.5 -287t-265.5 -120q-121 0 -200 90.5t-79 221.5zM88 303q0 -124 74.5 -209.5t186.5 -85.5q143 0 252.5 114.5t109.5 273.5q0 125 -74.5 210.5t-187.5 85.5q-143 0 -252 -115t-109 -274z
M531 757l-5 3q-4 4 0 9l120 173q4 5 8 2l5 -3q5 -4 1 -9l-120 -173q-5 -5 -9 -2zM382 757l-5 3q-5 3 -1 9l120 173q4 5 9 2l5 -3q5 -3 1 -9l-121 -173q-4 -5 -8 -2z" />
    <glyph glyph-name="ohungarumlaut" unicode="&#x151;" horiz-adv-x="537" 
d="M49 197q0 113 73.5 194t172.5 81q79 0 128.5 -59.5t49.5 -146.5q0 -114 -73 -195.5t-172 -81.5q-80 0 -129.5 59.5t-49.5 148.5zM67 197q0 -80 45.5 -135t115.5 -55q91 0 159 77t68 182q0 80 -44.5 134t-115.5 54q-91 0 -159.5 -76.5t-68.5 -180.5zM380 513l-4 3
q-5 3 -1 9l120 173q4 5 8 2l5 -3q5 -4 1 -9l-120 -173q-4 -5 -9 -2zM231 513l-5 3q-4 4 0 9l119 173q5 5 9 2l5 -3q5 -4 1 -9l-121 -173q-4 -5 -8 -2z" />
    <glyph glyph-name="OE" unicode="&#x152;" horiz-adv-x="891" 
d="M69 300q0 168 114 289t264 121q36 0 74 -10h363q7 0 5 -7l-1 -4q-2 -7 -6 -7h-355l-43 -309h311q7 0 5 -7l-1 -4q-2 -7 -7 -7h-311l-47 -337h354q8 0 6 -7l-1 -4q-2 -7 -7 -7h-362q-40 -10 -79 -10q-121 0 -198.5 89t-77.5 221zM86 302q0 -125 74 -209.5t188 -84.5
q36 0 67 8l94 668q-34 8 -64 8q-143 0 -251 -115t-108 -275z" />
    <glyph glyph-name="oe" unicode="&#x153;" horiz-adv-x="832" 
d="M49 198q0 114 74.5 194t172.5 80t151 -95q70 95 185 95q68 0 114 -35.5t46 -90.5q0 -67 -78 -101t-191 -34q-53 0 -89 5l-16 -113q16 -45 54 -70.5t87 -25.5q84 0 147 51q7 6 10 -1l3 -7q1 -3 -2 -6q-18 -18 -65.5 -36.5t-92.5 -18.5q-105 0 -151 92q-76 -92 -179 -92
q-79 0 -129.5 60t-50.5 149zM438 234q43 -5 81 -5q66 0 121.5 11.5t93.5 39t38 66.5q0 43 -40 75.5t-100 32.5q-54 0 -101 -26.5t-78 -70.5zM68 198q0 -80 46 -135.5t115 -55.5q47 0 93 26.5t79 70.5l35 255q-46 95 -140 95q-91 0 -159.5 -76t-68.5 -180z" />
    <glyph glyph-name="Racute" unicode="&#x154;" horiz-adv-x="599" 
d="M69 7l97 686q0 7 7 7h214q76 0 126.5 -53t50.5 -133q0 -91 -57 -159t-138 -84l104 -264q2 -6 -3 -8l-6 -2q-4 -1 -6 3l-104 268q-9 -1 -29 -1h-202l-37 -260q0 -7 -7 -7h-4q-6 0 -6 7zM125 284h200q91 0 156.5 66t65.5 164q0 71 -46 119.5t-114 48.5h-206zM270 777
q-5 -2 -8 3l-3 6q-2 4 4 7l176 91q5 2 8 -3l3 -5q3 -6 -4 -9z" />
    <glyph glyph-name="racute" unicode="&#x155;" horiz-adv-x="347" 
d="M61 0h-5q-8 0 -6 8l63 446q2 8 7 8h6q6 0 4 -8l-7 -61q23 30 61.5 54.5t84.5 24.5q42 0 73 -19q6 -4 1 -11l-2 -3q-3 -6 -10 -2q-25 17 -62 17q-38 0 -74.5 -22.5t-51 -39.5t-24.5 -32l-51 -352q-2 -8 -7 -8zM170 559q-5 -2 -8 3l-3 6q-2 4 4 7l176 91q5 2 8 -3l3 -5
q3 -6 -4 -9z" />
    <glyph glyph-name="Rcommaaccent" unicode="&#x156;" horiz-adv-x="599" 
d="M69 7l97 686q0 7 7 7h214q76 0 126.5 -53t50.5 -133q0 -91 -57 -159t-138 -84l104 -264q2 -6 -3 -8l-6 -2q-4 -1 -6 3l-104 268q-9 -1 -29 -1h-202l-37 -260q0 -7 -7 -7h-4q-6 0 -6 7zM125 284h200q91 0 156.5 66t65.5 164q0 71 -46 119.5t-114 48.5h-206zM223 -111
q0 11 8.5 19.5t20.5 8.5q34 0 34 -48q0 -67 -48 -103q-6 -5 -9 0l-4 6q-4 6 4 11q36 27 36 78q0 7 -2 14q-6 -6 -19 -6q-9 0 -15 6t-6 14z" />
    <glyph glyph-name="rcommaaccent" unicode="&#x157;" horiz-adv-x="347" 
d="M61 0h-5q-8 0 -6 8l63 446q2 8 7 8h6q6 0 4 -8l-7 -61q23 30 61.5 54.5t84.5 24.5q42 0 73 -19q6 -4 1 -11l-2 -3q-3 -6 -10 -2q-25 17 -62 17q-38 0 -74.5 -22.5t-51 -39.5t-24.5 -32l-51 -352q-2 -8 -7 -8zM20 -111q0 11 8.5 19.5t20.5 8.5q34 0 34 -48q0 -67 -48 -103
q-6 -5 -9 0l-4 6q-4 6 4 11q36 27 36 78q0 7 -2 14q-6 -6 -19 -6q-9 0 -15 6t-6 14z" />
    <glyph glyph-name="Rcaron" unicode="&#x158;" horiz-adv-x="599" 
d="M69 7l97 686q0 7 7 7h214q76 0 126.5 -53t50.5 -133q0 -91 -57 -159t-138 -84l104 -264q2 -6 -3 -8l-6 -2q-4 -1 -6 3l-104 268q-9 -1 -29 -1h-202l-37 -260q0 -7 -7 -7h-4q-6 0 -6 7zM125 284h200q91 0 156.5 66t65.5 164q0 71 -46 119.5t-114 48.5h-206zM334 771
l-101 106q-5 5 -1 8l4 4q4 4 7 1l96 -101l126 102q4 2 7 -1l3 -5q3 -5 -3 -10q-2 -1 -3 -2l-127 -102q-5 -3 -8 0z" />
    <glyph glyph-name="rcaron" unicode="&#x159;" horiz-adv-x="347" 
d="M61 0h-5q-8 0 -6 8l63 446q2 8 7 8h6q6 0 4 -8l-7 -61q23 30 61.5 54.5t84.5 24.5q42 0 73 -19q6 -4 1 -11l-2 -3q-3 -6 -10 -2q-25 17 -62 17q-38 0 -74.5 -22.5t-51 -39.5t-24.5 -32l-51 -352q-2 -8 -7 -8zM232 553l-101 106q-5 5 -1 8l4 4q4 4 7 1l96 -101l126 102
q4 2 7 -1l3 -5q3 -5 -3 -10q-2 -1 -3 -2l-127 -102q-5 -3 -8 0z" />
    <glyph glyph-name="Sacute" unicode="&#x15a;" horiz-adv-x="513" 
d="M41 73q-3 5 1 9l6 5q4 4 8 -1q8 -12 25 -27.5t57 -33.5t86 -18q82 0 144 49.5t62 125.5q0 66 -42 102t-127 66q-84 30 -123.5 65t-39.5 106q0 72 57 130.5t162 58.5q41 0 79 -13t56 -25l17 -13q4 -4 1 -8l-5 -6q-3 -5 -8 -2q-6 6 -18 14t-48.5 22t-73.5 14
q-98 0 -150 -53.5t-52 -118.5q0 -64 37 -96t117 -60q92 -32 135 -71t43 -112q0 -82 -65.5 -137t-157.5 -55q-38 0 -73 10.5t-57 26t-35 27t-18 19.5zM256 762q-5 -2 -8 3l-3 6q-2 4 4 7l176 91q5 2 8 -3l3 -5q3 -6 -4 -9z" />
    <glyph glyph-name="sacute" unicode="&#x15b;" horiz-adv-x="402" 
d="M165 -11q-79 0 -133 51q-6 6 0 11l4 4q6 5 10 1q46 -49 119 -49q60 0 103.5 33t43.5 82q0 18 -7.5 33.5t-16.5 25t-29.5 20t-33.5 16t-41 15.5q-61 22 -89 49t-28 71t41 82t112 38t116 -35q5 -4 1 -10l-3 -4q-4 -6 -10 -2q-46 33 -104 33q-63 0 -99 -32t-36 -70t25.5 -60
t82.5 -44q30 -12 43 -17.5t35.5 -17.5t32 -23t18 -29t8.5 -39q0 -57 -49 -95t-116 -38zM175 562q-5 -2 -8 3l-3 6q-2 4 4 7l176 91q5 2 8 -3l3 -5q3 -6 -4 -9z" />
    <glyph glyph-name="Scircumflex" unicode="&#x15c;" horiz-adv-x="513" 
d="M41 73q-3 5 1 9l6 5q4 4 8 -1q8 -12 25 -27.5t57 -33.5t86 -18q82 0 144 49.5t62 125.5q0 66 -42 102t-127 66q-84 30 -123.5 65t-39.5 106q0 72 57 130.5t162 58.5q41 0 79 -13t56 -25l17 -13q4 -4 1 -8l-5 -6q-3 -5 -8 -2q-6 6 -18 14t-48.5 22t-73.5 14
q-98 0 -150 -53.5t-52 -118.5q0 -64 37 -96t117 -60q92 -32 135 -71t43 -112q0 -82 -65.5 -137t-157.5 -55q-38 0 -73 10.5t-57 26t-35 27t-18 19.5zM219 748q-4 -2 -7 1l-3 5q-3 5 3 10q2 1 3 2l127 102q5 3 8 0l101 -106q5 -4 1 -8l-4 -4q-4 -4 -7 -1l-96 101z" />
    <glyph glyph-name="scircumflex" unicode="&#x15d;" horiz-adv-x="402" 
d="M165 -11q-79 0 -133 51q-6 6 0 11l4 4q6 5 10 1q46 -49 119 -49q60 0 103.5 33t43.5 82q0 18 -7.5 33.5t-16.5 25t-29.5 20t-33.5 16t-41 15.5q-61 22 -89 49t-28 71t41 82t112 38t116 -35q5 -4 1 -10l-3 -4q-4 -6 -10 -2q-46 33 -104 33q-63 0 -99 -32t-36 -70t25.5 -60
t82.5 -44q30 -12 43 -17.5t35.5 -17.5t32 -23t18 -29t8.5 -39q0 -57 -49 -95t-116 -38zM121 551q-4 -2 -7 1l-3 5q-3 5 3 10q2 1 3 2l127 102q5 3 8 0l101 -106q5 -5 1 -8l-4 -4q-4 -4 -7 -1l-96 101z" />
    <glyph glyph-name="Scedilla" unicode="&#x15e;" horiz-adv-x="513" 
d="M41 73q-3 5 1 9l6 5q4 4 8 -1q8 -12 25 -27.5t57 -33.5t86 -18q82 0 144 49.5t62 125.5q0 66 -42 102t-127 66q-84 30 -123.5 65t-39.5 106q0 72 57 130.5t162 58.5q41 0 79 -13t56 -25l17 -13q4 -4 1 -8l-5 -6q-3 -5 -8 -2q-6 6 -18 14t-48.5 22t-73.5 14
q-98 0 -150 -53.5t-52 -118.5q0 -64 37 -96t117 -60q92 -32 135 -71t43 -112q0 -80 -62.5 -134.5t-151.5 -57.5l-51 -66q15 5 30 5q31 0 53.5 -17.5t22.5 -51.5q0 -41 -28.5 -68t-71.5 -27q-50 0 -76 34q-4 5 1 10l4 4q5 5 9 -1q22 -29 61 -29q33 0 57.5 21t24.5 55
q0 52 -59 52q-26 0 -49 -9q-4 -2 -6.5 3t-0.5 8l57 78q-35 2 -67.5 13t-53.5 25t-33 25.5t-16 18.5z" />
    <glyph glyph-name="scedilla" unicode="&#x15f;" horiz-adv-x="402" 
d="M330 122q0 -55 -46 -92.5t-111 -40.5l-50 -65q15 5 30 5q31 0 53.5 -17.5t22.5 -51.5q0 -41 -28.5 -68t-71.5 -27q-50 0 -76 34q-5 5 1 10l4 4q5 5 9 -1q22 -29 61 -29q33 0 57.5 21t24.5 55q0 52 -59 52q-27 0 -49 -9q-4 -2 -6.5 3t-0.5 8l56 76q-72 4 -119 51
q-6 6 0 11l4 4q6 5 10 1q46 -49 119 -49q60 0 103.5 33t43.5 82q0 18 -7.5 33.5t-16.5 25t-29.5 20t-33.5 16t-41 15.5q-61 22 -89 49t-28 71t41 82t112 38t116 -35q4 -3 1 -10l-2 -4q-3 -7 -11 -2q-46 33 -104 33q-63 0 -99 -32t-36 -70t25.5 -60t82.5 -44q30 -12 43 -17.5
t35.5 -17.5t32 -23t18 -29t8.5 -39z" />
    <glyph glyph-name="Scaron" unicode="&#x160;" horiz-adv-x="513" 
d="M41 73q-3 5 1 9l6 5q4 4 8 -1q8 -12 25 -27.5t57 -33.5t86 -18q82 0 144 49.5t62 125.5q0 66 -42 102t-127 66q-84 30 -123.5 65t-39.5 106q0 72 57 130.5t162 58.5q41 0 79 -13t56 -25l17 -13q4 -4 1 -8l-5 -6q-3 -5 -8 -2q-6 6 -18 14t-48.5 22t-73.5 14
q-98 0 -150 -53.5t-52 -118.5q0 -64 37 -96t117 -60q92 -32 135 -71t43 -112q0 -82 -65.5 -137t-157.5 -55q-38 0 -73 10.5t-57 26t-35 27t-18 19.5zM328 756l-101 106q-5 4 -1 8l4 4q4 4 7 1l96 -101l126 102q4 2 7 -1l3 -5q3 -5 -3 -10q-2 -1 -3 -2l-127 -102q-5 -3 -8 0z
" />
    <glyph glyph-name="scaron" unicode="&#x161;" horiz-adv-x="402" 
d="M165 -11q-79 0 -133 51q-6 6 0 11l4 4q6 5 10 1q46 -49 119 -49q60 0 103.5 33t43.5 82q0 18 -7.5 33.5t-16.5 25t-29.5 20t-33.5 16t-41 15.5q-61 22 -89 49t-28 71t41 82t112 38t116 -35q5 -4 1 -10l-3 -4q-4 -6 -10 -2q-46 33 -104 33q-63 0 -99 -32t-36 -70t25.5 -60
t82.5 -44q30 -12 43 -17.5t35.5 -17.5t32 -23t18 -29t8.5 -39q0 -57 -49 -95t-116 -38zM232 556l-101 106q-5 4 -1 8l4 4q4 4 7 1l96 -101l126 102q4 2 7 -1l3 -5q3 -5 -3 -10q-2 -1 -3 -2l-127 -102q-5 -3 -8 0z" />
    <glyph glyph-name="Tcommaaccent" unicode="&#x162;" horiz-adv-x="463" 
d="M294 682l-94 -668q-1 -7 -8 -18l-53 -72q15 5 30 5q31 0 53.5 -17.5t22.5 -51.5q0 -41 -28.5 -68t-71.5 -27q-50 0 -76 34q-5 5 1 10l4 4q5 5 9 -1q22 -29 61 -29q33 0 57.5 21t24.5 55q0 52 -59 52q-27 0 -49 -9q-4 -2 -6.5 3t-0.5 8l70 97l95 672h-186q-8 0 -6 7l1 5
q1 6 7 6h392q8 0 6 -7l-1 -5q-1 -6 -7 -6h-188z" />
    <glyph glyph-name="tcommaaccent" unicode="&#x163;" horiz-adv-x="324" 
d="M277 29q-16 -10 -50 -23t-66 -16l-50 -66q15 5 30 5q31 0 53.5 -17.5t22.5 -51.5q0 -41 -28.5 -68t-71.5 -27q-50 0 -76 34q-5 5 1 10l4 4q5 5 9 -1q22 -29 61 -29q33 0 57.5 21t24.5 55q0 52 -59 52q-27 0 -49 -9q-4 -2 -6.5 3t-0.5 8l57 77q-49 3 -61 37t-3 97l45 320
h-46q-6 0 -4 8l1 2q2 8 7 8h45l17 125q2 7 6 7h5q8 0 6 -7l-16 -125h168q9 0 7 -8l-1 -2q-2 -8 -9 -8h-168l-45 -320q-11 -49 -0.5 -83t56.5 -34q60 0 117 38q6 4 10 -2l3 -6q3 -4 -3 -8z" />
    <glyph glyph-name="Tcaron" unicode="&#x164;" horiz-adv-x="463" 
d="M181 7l95 675h-186q-8 0 -6 7l1 5q1 6 7 6h392q8 0 6 -7l-1 -5q-1 -6 -7 -6h-188l-95 -675q-2 -7 -8 -7h-4q-8 0 -6 7zM291 771l-101 106q-4 5 -1 8l4 4q4 4 7 1l96 -101l126 102q4 2 7 -1l3 -5q3 -5 -3 -10q-2 -1 -3 -2l-127 -102q-5 -3 -8 0z" />
    <glyph glyph-name="tcaron" unicode="&#x165;" horiz-adv-x="322" 
d="M148 -11q-55 0 -69 34.5t-5 100.5l45 320h-46q-6 0 -4 8l1 2q2 8 7 8h45l17 125q2 7 6 7h5q8 0 6 -7l-16 -125h168q9 0 7 -8l-1 -2q-2 -8 -9 -8h-168l-45 -320q-11 -49 -0.5 -83t56.5 -34q60 0 117 38q6 4 10 -2l3 -6q3 -4 -3 -8q-19 -12 -56.5 -26t-70.5 -14zM323 682
q0 11 8.5 19.5t20.5 8.5q34 0 34 -48q0 -67 -48 -103q-6 -5 -9 0l-4 6q-4 6 4 11q36 27 36 78q0 7 -2 14q-6 -6 -19 -6q-9 0 -15 6t-6 14z" />
    <glyph glyph-name="Tbar" unicode="&#x166;" horiz-adv-x="464" 
d="M183 7l43 304h-132q-7 0 -5 7l1 4q2 6 8 6h130l50 354h-187q-7 0 -5 7l1 5q1 6 7 6h392q8 0 6 -7l-1 -4q-2 -7 -8 -7h-188l-50 -354h135q8 0 6 -6l-1 -4q-2 -7 -7 -7h-136l-42 -304q0 -7 -8 -7h-4q-7 0 -5 7z" />
    <glyph glyph-name="tbar" unicode="&#x167;" horiz-adv-x="322" 
d="M148 -11q-55 0 -69 34.5t-5 100.5l15 109h-34q-8 0 -6 7l1 4q0 6 7 6h35l27 194h-46q-5 0 -4 6l1 4q2 8 7 8h45l17 125q2 7 6 7h5q8 0 6 -7l-16 -125h168q9 0 7 -8l-1 -4q-2 -6 -9 -6h-168l-27 -194h128q8 0 6 -6l-1 -4q-2 -7 -7 -7h-129l-15 -109q-11 -49 -0.5 -83
t56.5 -34q60 0 117 38q6 4 10 -2l3 -6q3 -4 -3 -8q-19 -12 -56.5 -26t-70.5 -14z" />
    <glyph glyph-name="Utilde" unicode="&#x168;" horiz-adv-x="667" 
d="M96 252l62 441q2 7 7 7h5q7 0 5 -7l-61 -441q-4 -23 -4 -50q0 -89 48.5 -141.5t135.5 -52.5q98 0 166.5 67.5t83.5 176.5l62 441q2 7 8 7h5q7 0 5 -7l-62 -441q-17 -119 -87.5 -190.5t-183.5 -71.5q-92 0 -145.5 57.5t-53.5 153.5q0 17 4 51zM287 802l-7 2q-6 2 -3 9
q35 84 90 84q24 0 37 -17t16 -37t12.5 -37t28.5 -17q41 0 70 72q3 7 7 6l7 -2q7 -2 3 -9q-37 -84 -89 -84q-23 0 -36 17t-17 37t-14 37t-27 17q-18 0 -34.5 -16.5t-24 -30t-12.5 -26.5q-3 -7 -7 -5z" />
    <glyph glyph-name="utilde" unicode="&#x169;" horiz-adv-x="496" 
d="M202 7q34 0 64 12t50 31.5t29 30t15 20.5l50 353q2 8 8 8h5q8 0 6 -8l-63 -446q-2 -8 -8 -8h-5q-7 0 -5 8l8 61q-70 -80 -154 -80q-161 0 -131 212l36 254q1 7 8 7h4q8 0 6 -8l-35 -253q-29 -194 112 -194zM166 583l-7 2q-6 1 -3 9q35 84 90 84q24 0 37 -17t16 -37
t12.5 -37t28.5 -17q41 0 70 72q3 7 7 6l7 -2q7 -2 3 -9q-37 -84 -89 -84q-23 0 -36 17t-17 37t-13.5 37t-27.5 17t-34.5 -16.5t-24 -30t-12.5 -26.5q-3 -7 -7 -5z" />
    <glyph glyph-name="Umacron" unicode="&#x16a;" horiz-adv-x="667" 
d="M96 252l62 441q2 7 7 7h5q7 0 5 -7l-61 -441q-4 -23 -4 -50q0 -89 48.5 -141.5t135.5 -52.5q98 0 166.5 67.5t83.5 176.5l62 441q2 7 8 7h5q7 0 5 -7l-62 -441q-17 -119 -87.5 -190.5t-183.5 -71.5q-92 0 -145.5 57.5t-53.5 153.5q0 17 4 51zM284 842q-8 0 -6 7l1 4
q2 7 8 7h258q8 0 6 -7l-1 -4q-2 -7 -7 -7h-259z" />
    <glyph glyph-name="umacron" unicode="&#x16b;" horiz-adv-x="496" 
d="M202 7q34 0 64 12t50 31.5t29 30t15 20.5l50 353q2 8 8 8h5q8 0 6 -8l-63 -446q-2 -8 -8 -8h-5q-7 0 -5 8l8 61q-70 -80 -154 -80q-161 0 -131 212l36 254q1 7 8 7h4q8 0 6 -8l-35 -253q-29 -194 112 -194zM156 607q-8 0 -6 7l1 4q2 7 8 7h258q8 0 6 -7l-1 -4
q-2 -7 -7 -7h-259z" />
    <glyph glyph-name="Ubreve" unicode="&#x16c;" horiz-adv-x="667" 
d="M96 252l62 441q2 7 7 7h5q7 0 5 -7l-61 -441q-4 -23 -4 -50q0 -89 48.5 -141.5t135.5 -52.5q98 0 166.5 67.5t83.5 176.5l62 441q2 7 8 7h5q7 0 5 -7l-62 -441q-17 -119 -87.5 -190.5t-183.5 -71.5q-92 0 -145.5 57.5t-53.5 153.5q0 17 4 51zM409 780q-44 0 -71.5 30.5
t-27.5 76.5q0 8 5 8h6q5 0 5 -6q-1 -40 23 -65.5t62 -25.5q37 0 67.5 25.5t42.5 65.5q1 6 6 6h8q6 0 4 -8q-14 -46 -50 -76.5t-80 -30.5z" />
    <glyph glyph-name="ubreve" unicode="&#x16d;" horiz-adv-x="496" 
d="M202 7q34 0 64 12t50 31.5t29 30t15 20.5l50 353q2 8 8 8h5q8 0 6 -8l-63 -446q-2 -8 -8 -8h-5q-7 0 -5 8l8 61q-70 -80 -154 -80q-161 0 -131 212l36 254q1 7 8 7h4q8 0 6 -8l-35 -253q-29 -194 112 -194zM278 545q-44 0 -71.5 30.5t-27.5 76.5q0 8 5 8h6q5 0 5 -6
q-1 -40 23 -65.5t62 -25.5q37 0 67.5 25.5t42.5 65.5q2 6 6 6h8q6 0 4 -8q-14 -46 -50 -76.5t-80 -30.5z" />
    <glyph glyph-name="Uring" unicode="&#x16e;" horiz-adv-x="667" 
d="M96 252l62 441q2 7 7 7h5q7 0 5 -7l-61 -441q-4 -23 -4 -50q0 -89 48.5 -141.5t135.5 -52.5q98 0 166.5 67.5t83.5 176.5l62 441q2 7 8 7h5q7 0 5 -7l-62 -441q-17 -119 -87.5 -190.5t-183.5 -71.5q-92 0 -145.5 57.5t-53.5 153.5q0 17 4 51zM401 750q-36 0 -58.5 25.5
t-22.5 63.5q0 49 33 84t77 35q35 0 57.5 -26t22.5 -64q0 -49 -33 -83.5t-76 -34.5zM403 767q35 0 62.5 29t27.5 69q0 32 -17.5 54t-47.5 22q-36 0 -63 -29.5t-27 -68.5q0 -33 16.5 -54.5t48.5 -21.5z" />
    <glyph glyph-name="uring" unicode="&#x16f;" horiz-adv-x="496" 
d="M202 7q34 0 64 12t50 31.5t29 30t15 20.5l50 353q2 8 8 8h5q8 0 6 -8l-63 -446q-2 -8 -8 -8h-5q-7 0 -5 8l8 61q-70 -80 -154 -80q-161 0 -131 212l36 254q1 7 8 7h4q8 0 6 -8l-35 -253q-29 -194 112 -194zM273 510q-36 0 -58.5 25.5t-22.5 63.5q0 49 33 84t77 35
q35 0 57.5 -26t22.5 -64q0 -49 -33 -83.5t-76 -34.5zM275 527q35 0 62.5 29t27.5 69q0 32 -17.5 54t-47.5 22q-36 0 -63 -29.5t-27 -68.5q0 -33 16.5 -54.5t48.5 -21.5z" />
    <glyph glyph-name="Uhungarumlaut" unicode="&#x170;" horiz-adv-x="667" 
d="M96 252l62 441q2 7 7 7h5q7 0 5 -7l-61 -441q-4 -23 -4 -50q0 -89 48.5 -141.5t135.5 -52.5q98 0 166.5 67.5t83.5 176.5l62 441q2 7 8 7h5q7 0 5 -7l-62 -441q-17 -119 -87.5 -190.5t-183.5 -71.5q-92 0 -145.5 57.5t-53.5 153.5q0 17 4 51zM465 757l-5 3q-4 4 0 9
l120 173q4 5 8 2l5 -3q5 -4 1 -9l-120 -173q-5 -5 -9 -2zM316 757l-5 3q-5 3 -1 9l120 173q4 5 9 2l5 -3q5 -3 1 -9l-121 -173q-4 -5 -8 -2z" />
    <glyph glyph-name="uhungarumlaut" unicode="&#x171;" horiz-adv-x="496" 
d="M202 7q34 0 64 12t50 31.5t29 30t15 20.5l50 353q2 8 8 8h5q8 0 6 -8l-63 -446q-2 -8 -8 -8h-5q-7 0 -5 8l8 61q-70 -80 -154 -80q-161 0 -131 212l36 254q1 7 8 7h4q8 0 6 -8l-35 -253q-29 -194 112 -194zM349 513l-4 3q-5 3 -1 9l120 173q4 5 8 2l5 -3q5 -4 1 -9
l-120 -173q-4 -5 -9 -2zM200 513l-5 3q-4 4 0 9l119 173q5 5 9 2l5 -3q5 -4 1 -9l-121 -173q-4 -5 -8 -2z" />
    <glyph glyph-name="Uogonek" unicode="&#x172;" horiz-adv-x="667" 
d="M96 252l62 441q2 7 7 7h5q7 0 5 -7l-61 -441q-16 -109 32.5 -176.5t147.5 -67.5q98 0 166.5 67.5t83.5 176.5l62 441q2 7 8 7h5q7 0 5 -7l-62 -441q-14 -98 -65 -165t-132 -88q-29 -14 -50 -26.5t-45 -32t-37 -44.5t-13 -54q0 -27 16 -44.5t45 -17.5q41 0 70 23q5 4 9 -1
l4 -6q2 -5 -6 -10q-40 -24 -78 -24t-58 22t-20 57q0 84 111 150q-3 0 -11 -0.5t-11 -0.5q-104 0 -158 73t-37 189z" />
    <glyph glyph-name="uogonek" unicode="&#x173;" horiz-adv-x="495" 
d="M202 7q34 0 64 12t50 31.5t29 30t15 20.5l50 353q2 8 8 8h5q8 0 6 -8l-63 -445q-1 -6 -7 -9q-30 -14 -50.5 -26.5t-45.5 -32.5t-38 -45t-13 -54q0 -27 16 -44.5t45 -17.5q41 0 70 23q5 4 9 -1l4 -6q2 -5 -6 -10q-40 -24 -78 -24t-58 22t-20 57q0 56 42 96.5t113 76.5
l7 55q-70 -80 -154 -80q-161 0 -131 212l36 254q1 7 8 7h4q8 0 6 -8l-35 -253q-29 -194 112 -194z" />
    <glyph glyph-name="Wcircumflex" unicode="&#x174;" horiz-adv-x="805" 
d="M181 -12l-86 706q0 5 4 6l9 2q2 1 3.5 -1t1.5 -4l80 -666l260 677q2 5 7 5t6 -5l78 -676l261 667q2 5 7 3l7 -3q5 -2 2 -8l-276 -703q-1 -3 -4 -4.5t-5.5 0t-2.5 4.5l-79 678l-261 -678q-1 -3 -4 -4.5t-5.5 0t-2.5 4.5zM357 763q-4 -2 -7 1l-3 5q-3 5 3 10q2 1 3 2
l127 102q5 3 8 0l101 -106q5 -5 1 -8l-4 -4q-4 -4 -7 -1l-96 101z" />
    <glyph glyph-name="wcircumflex" unicode="&#x175;" horiz-adv-x="637" 
d="M137 -12l-72 470q-2 9 4 10l5 1q6 1 8 -5l67 -438l187 449q2 7 8 7t8 -8l61 -449l190 440q3 5 7 4l7 -3q5 -1 2 -8l-202 -470q-4 -5 -9 -5.5t-7 5.5l-61 452l-188 -452q-3 -5 -8.5 -5.5t-6.5 5.5zM245 548q-4 -2 -7 1l-3 5q-3 5 3 10q2 1 3 2l127 102q5 3 8 0l101 -106
q5 -4 1 -8l-4 -4q-4 -4 -7 -1l-96 101z" />
    <glyph glyph-name="Ycircumflex" unicode="&#x176;" horiz-adv-x="509" 
d="M204 7l47 336l-188 345q-4 6 2 9l6 3q5 2 8 -3l182 -337l279 338q4 6 8 3l7 -4q6 -3 0 -9l-286 -344l-47 -338q-2 -6 -7 -6h-6q-6 0 -5 7zM208 763q-4 -2 -7 1l-3 5q-3 5 3 10q2 1 3 2l127 102q5 3 8 0l101 -106q4 -5 1 -8l-4 -4q-4 -4 -7 -1l-96 101z" />
    <glyph glyph-name="ycircumflex" unicode="&#x177;" horiz-adv-x="440" 
d="M173 10l-119 447q-2 6 3 8l6 2q6 2 8 -4l114 -433l232 435q4 6 9 3l5 -2q6 -3 3 -9l-375 -696q-3 -6 -9 -3l-4 2q-5 4 -2 10zM151 548q-4 -2 -7 1l-3 5q-3 5 3 10q2 1 3 2l127 102q5 3 8 0l101 -106q5 -4 1 -8l-4 -4q-4 -4 -7 -1l-96 101z" />
    <glyph glyph-name="Ydieresis" unicode="&#x178;" horiz-adv-x="509" 
d="M204 7l47 336l-188 345q-4 6 2 9l6 3q5 2 8 -3l182 -337l279 338q4 6 8 3l7 -4q6 -3 0 -9l-286 -344l-47 -338q-2 -6 -7 -6h-6q-6 0 -5 7zM421 808q-19 0 -19 19q0 12 7.5 19t17.5 7q18 0 18 -20q0 -11 -7.5 -18t-16.5 -7zM234 808q-19 0 -19 19q0 11 7.5 18.5t17.5 7.5
q19 0 19 -20q0 -11 -7.5 -18t-17.5 -7z" />
    <glyph glyph-name="Zacute" unicode="&#x179;" horiz-adv-x="476" 
d="M-8 0q-4 0 -5.5 3.5t1.5 7.5l486 671h-356q-7 0 -5 7l1 4q2 7 7 7h376q4 0 5.5 -3.5t-0.5 -7.5l-487 -671h368q7 0 5 -7l-1 -4q-2 -7 -8 -7h-387zM249 777q-5 -2 -8 3l-3 6q-2 4 4 7l176 91q5 2 8 -3l3 -5q3 -6 -4 -9z" />
    <glyph glyph-name="zacute" unicode="&#x17a;" horiz-adv-x="394" 
d="M1 0q-5 0 -6.5 4t2.5 9l351 431h-256q-9 0 -7 7l1 5q1 6 8 6h278q5 0 7 -4t-2 -9l-352 -431h273q8 0 6 -7l-1 -4q-1 -7 -8 -7h-294zM180 559q-5 -2 -8 3l-3 6q-2 4 4 7l176 91q5 2 8 -3l3 -5q3 -6 -4 -9z" />
    <glyph glyph-name="Zdotaccent" unicode="&#x17b;" horiz-adv-x="476" 
d="M-8 0q-4 0 -5.5 3.5t1.5 7.5l486 671h-356q-7 0 -5 7l1 4q2 7 7 7h376q4 0 5.5 -3.5t-0.5 -7.5l-487 -671h368q7 0 5 -7l-1 -4q-2 -7 -8 -7h-387zM325 819q-20 0 -20 21q0 10 8.5 18.5t18.5 8.5q19 0 19 -21q0 -11 -7.5 -19t-18.5 -8z" />
    <glyph glyph-name="zdotaccent" unicode="&#x17c;" horiz-adv-x="394" 
d="M1 0q-5 0 -6.5 4t2.5 9l351 431h-256q-9 0 -7 7l1 5q1 6 8 6h278q5 0 7 -4t-2 -9l-352 -431h273q8 0 6 -7l-1 -4q-1 -7 -8 -7h-294zM242 605q-20 0 -20 21q0 10 8 18.5t19 8.5q19 0 19 -21q0 -11 -7.5 -19t-18.5 -8z" />
    <glyph glyph-name="Zcaron" unicode="&#x17d;" horiz-adv-x="476" 
d="M-8 0q-4 0 -5.5 3.5t1.5 7.5l486 671h-356q-7 0 -5 7l1 4q2 7 7 7h376q4 0 5.5 -3.5t-0.5 -7.5l-487 -671h368q7 0 5 -7l-1 -4q-2 -7 -8 -7h-387zM308 771l-101 106q-5 5 -1 8l4 4q4 4 7 1l96 -101l126 102q4 2 7 -1l3 -5q3 -5 -3 -10q-2 -1 -3 -2l-127 -102q-5 -3 -8 0z
" />
    <glyph glyph-name="zcaron" unicode="&#x17e;" horiz-adv-x="394" 
d="M1 0q-5 0 -6.5 4t2.5 9l351 431h-256q-9 0 -7 7l1 5q1 6 8 6h278q5 0 7 -4t-2 -9l-352 -431h273q8 0 6 -7l-1 -4q-1 -7 -8 -7h-294zM233 553l-101 106q-4 5 -1 8l4 4q4 4 7 1l96 -101l126 102q4 2 7 -1l3 -5q3 -5 -3 -10q-2 -1 -3 -2l-127 -102q-5 -3 -8 0z" />
    <glyph glyph-name="florin" unicode="&#x192;" horiz-adv-x="352" 
d="M84 -72l63 454h-97q-8 0 -6 7l1 4q2 7 7 7h98l19 134q12 87 54.5 131.5t104.5 44.5q63 0 96 -43q4 -5 -1 -10l-4 -3q-5 -5 -9 0q-31 38 -85 38t-90.5 -39.5t-48.5 -118.5l-18 -134h161q8 0 6 -7l-1 -4q-2 -7 -8 -7h-161l-63 -454q-12 -87 -54.5 -131.5t-104.5 -44.5
q-64 0 -97 43q-4 5 1 10l4 3q5 5 9 0q31 -38 85 -38t91 39.5t48 118.5z" />
    <glyph glyph-name="Aringacute" unicode="&#x1fa;" horiz-adv-x="590" 
d="M315 937q-5 -2 -8 3l-3 6q-2 4 4 7l176 91q5 2 8 -3l3 -5q3 -6 -4 -9zM-7 1q-2 -4 -6 -3l-8 3q-4 1 -2 6l372 702q-31 4 -49.5 28.5t-18.5 59.5q0 49 33 84t77 35q35 0 57.5 -26t22.5 -64q0 -47 -31 -81.5t-72 -36.5l170 -700q1 -5 -4 -7l-5 -2q-5 -2 -7 3l-50 208h-369z
M364 724q35 0 63 29.5t28 69.5q0 32 -18 54.5t-48 22.5q-36 0 -63.5 -30t-27.5 -69q0 -33 17 -55t49 -22zM113 227h354l-110 461h-1z" />
    <glyph glyph-name="aringacute" unicode="&#x1fb;" horiz-adv-x="520" 
d="M307 511q-36 0 -58.5 25.5t-22.5 63.5q0 49 33 84t77 35q35 0 57.5 -26t22.5 -64q0 -49 -33 -83.5t-76 -34.5zM309 527q35 0 63 29.5t28 69.5q0 32 -18 54.5t-48 22.5q-36 0 -63.5 -30t-27.5 -69q0 -33 17 -55t49 -22zM261 722q-5 -2 -8 3l-3 6q-2 4 4 7l176 91q5 2 8 -3
l3 -5q3 -6 -4 -9zM50 195q0 117 69.5 197t168.5 80q90 0 142 -60l8 42q2 8 6 8h5q7 0 5 -8l-62 -446q-2 -8 -8 -8h-5q-7 0 -5 8l8 59q-21 -28 -66.5 -53t-95.5 -25q-78 0 -124 58.5t-46 147.5zM68 196q0 -81 42 -135t110 -54q52 0 98 29t68 65l40 284q-4 9 -16.5 22
t-46.5 30t-75 17q-92 0 -156 -74.5t-64 -183.5z" />
    <glyph glyph-name="AEacute" unicode="&#x1fc;" horiz-adv-x="840" 
d="M-24 0q-3 -4 -8 -1l-5 3q-5 3 -1 8l499 687q1 3 7 3h364q8 0 6 -7l-1 -4q-2 -7 -7 -7h-355l-44 -309h312q6 0 6 -6q0 -12 -9 -12h-311l-48 -337h355q8 0 6 -7l-1 -4q-2 -7 -7 -7h-365q-8 0 -6 7l28 203h-263zM140 227h254l61 434zM571 778q-5 -2 -8 3l-3 6q-2 4 4 7
l176 91q5 2 8 -3l3 -5q3 -6 -4 -9z" />
    <glyph glyph-name="aeacute" unicode="&#x1fd;" horiz-adv-x="753" 
d="M370 236q40 -8 101 -8q100 -1 161 31t61 87q0 46 -39 77t-104 31q-48 0 -94.5 -22t-73.5 -58q1 -24 -12 -138zM46 124q0 -54 27 -85.5t81 -31.5q51 0 101 24t74 50l25 174q-1 0 -17 6.5t-29 10.5t-34.5 8t-41.5 4q-81 0 -133.5 -45t-52.5 -115zM367 218l-18 -136
q44 -75 140 -75q73 0 141 51q4 3 7 -2l4 -6q2 -4 -4 -10q-22 -18 -63.5 -34.5t-86.5 -16.5q-48 0 -89 21.5t-61 53.5q-29 -29 -80 -52t-102 -23q-60 0 -93.5 35.5t-33.5 97.5q0 79 57.5 129.5t147.5 50.5q66 0 123 -27q14 99 -2 139t-90 40q-27 0 -52 -5t-36.5 -10
t-28.5 -14l-17 -9q-6 -3 -8 2l-3 6q-2 6 4 9q59 39 144 39q100 0 113 -72q67 72 171 72q72 0 116 -36t44 -90q0 -63 -66 -100t-174 -36q-52 0 -104 8zM371 559q-5 -2 -8 3l-3 6q-2 4 4 7l176 91q5 2 8 -3l3 -5q3 -6 -4 -9z" />
    <glyph glyph-name="Oslashacute" unicode="&#x1fe;" horiz-adv-x="781" 
d="M52 34q-4 4 2 10l69 64q-53 82 -53 193q0 168 113 288.5t264 120.5q66 0 122.5 -27.5t93.5 -76.5l71 65q6 6 9 0l2 -3q3 -6 -1 -10l-71 -65q56 -86 56 -197q0 -167 -113.5 -286.5t-264.5 -119.5q-140 0 -219 104l-69 -63q-5 -3 -8 0zM136 120l514 474q-77 98 -203 98
q-143 0 -251 -115t-108 -276q0 -108 48 -181zM147 107q72 -99 204 -99q143 0 251.5 114t108.5 273q0 109 -51 186zM388 777q-5 -2 -8 3l-3 6q-2 4 4 7l176 91q5 2 8 -3l3 -5q3 -6 -4 -9z" />
    <glyph glyph-name="oslashacute" unicode="&#x1ff;" horiz-adv-x="537" 
d="M49 197q0 113 73.5 194t172.5 81q90 0 141 -77l34 29q7 5 10 0l3 -4q3 -6 -1 -12l-35 -31q26 -49 26 -111q0 -114 -73 -195.5t-172 -81.5q-92 0 -143 79l-25 -22q-6 -6 -11 1l-2 3q-4 5 2 11l26 22q-26 50 -26 114zM455 266q0 56 -22 100l-334 -286q48 -73 129 -73
q91 0 159 77t68 182zM67 197q0 -58 23 -102l333 287q-46 72 -128 72q-91 0 -159.5 -76.5t-68.5 -180.5zM252 559q-5 -2 -8 3l-3 6q-2 4 4 7l176 91q5 2 8 -3l3 -5q3 -6 -4 -9z" />
    <glyph glyph-name="Scommaaccent" unicode="&#x218;" horiz-adv-x="513" 
d="M41 73q-3 5 1 9l6 5q4 4 8 -1q8 -12 25 -27.5t57 -33.5t86 -18q82 0 144 49.5t62 125.5q0 66 -42 102t-127 66q-84 30 -123.5 65t-39.5 106q0 72 57 130.5t162 58.5q41 0 79 -13t56 -25l17 -13q4 -4 1 -8l-5 -6q-3 -5 -8 -2q-6 6 -18 14t-48.5 22t-73.5 14
q-98 0 -150 -53.5t-52 -118.5q0 -64 37 -96t117 -60q92 -32 135 -71t43 -112q0 -82 -65.5 -137t-157.5 -55q-38 0 -73 10.5t-57 26t-35 27t-18 19.5zM170 -126q0 11 8.5 19.5t20.5 8.5q34 0 34 -48q0 -67 -48 -103q-6 -5 -9 0l-4 6q-4 6 4 11q36 27 36 78q0 7 -2 14
q-6 -6 -19 -6q-9 0 -15 6t-6 14z" />
    <glyph glyph-name="scommaaccent" unicode="&#x219;" horiz-adv-x="402" 
d="M165 -11q-79 0 -133 51q-6 6 0 11l4 4q6 5 10 1q46 -49 119 -49q60 0 103.5 33t43.5 82q0 18 -7.5 33.5t-16.5 25t-29.5 20t-33.5 16t-41 15.5q-61 22 -89 49t-28 71t41 82t112 38t116 -35q5 -4 1 -10l-3 -4q-4 -6 -10 -2q-46 33 -104 33q-63 0 -99 -32t-36 -70t25.5 -60
t82.5 -44q30 -12 43 -17.5t35.5 -17.5t32 -23t18 -29t8.5 -39q0 -57 -49 -95t-116 -38zM112 -108q0 11 8.5 19.5t20.5 8.5q34 0 34 -48q0 -67 -48 -103q-6 -5 -9 0l-4 6q-4 6 4 11q36 27 36 78q0 7 -2 14q-6 -6 -19 -6q-9 0 -15 6t-6 14z" />
    <glyph glyph-name="uni021A" unicode="&#x21a;" horiz-adv-x="463" 
d="M181 7l95 675h-186q-8 0 -6 7l1 5q1 6 7 6h392q8 0 6 -7l-1 -5q-1 -6 -7 -6h-188l-95 -675q-2 -7 -8 -7h-4q-8 0 -6 7zM142 -111q0 11 8.5 19.5t20.5 8.5q34 0 34 -48q0 -67 -48 -103q-6 -5 -9 0l-4 6q-4 6 4 11q36 27 36 78q0 7 -2 14q-6 -6 -19 -6q-9 0 -15 6t-6 14z
" />
    <glyph glyph-name="uni021B" unicode="&#x21b;" horiz-adv-x="322" 
d="M148 -11q-55 0 -69 34.5t-5 100.5l45 320h-46q-6 0 -4 8l1 2q2 8 7 8h45l17 125q2 7 6 7h5q8 0 6 -7l-16 -125h168q9 0 7 -8l-1 -2q-2 -8 -9 -8h-168l-45 -320q-11 -49 -0.5 -83t56.5 -34q60 0 117 38q6 4 10 -2l3 -6q3 -4 -3 -8q-19 -12 -56.5 -26t-70.5 -14zM106 -111
q0 11 8.5 19.5t20.5 8.5q34 0 34 -48q0 -67 -48 -103q-6 -5 -9 0l-4 6q-4 6 4 11q36 27 36 78q0 7 -2 14q-6 -6 -19 -6q-9 0 -15 6t-6 14z" />
    <glyph glyph-name="dotlessj" unicode="&#x237;" horiz-adv-x="197" 
d="M131 454l-73 -519q-11 -83 -48.5 -126t-106.5 -58q-9 -1 -10 5l-1 5q-1 6 8 8q63 15 96 52.5t44 113.5l73 519q2 8 8 8h4q8 0 6 -8z" />
    <glyph glyph-name="circumflex" unicode="&#x2c6;" horiz-adv-x="336" 
d="M73 548q-4 -2 -7 1l-3 5q-3 5 3 10q2 1 3 2l127 102q5 3 8 0l101 -106q5 -4 1 -8l-4 -4q-4 -4 -7 -1l-96 101z" />
    <glyph glyph-name="caron" unicode="&#x2c7;" horiz-adv-x="336" 
d="M180 553l-101 106q-5 5 -1 8l4 4q4 4 7 1l96 -101l126 102q4 2 7 -1l3 -5q3 -5 -3 -10q-2 -1 -3 -2l-127 -102q-5 -3 -8 0z" />
    <glyph glyph-name="uni02C9" unicode="&#x2c9;" horiz-adv-x="373" 
d="M82 607q-8 0 -6 7l1 4q2 7 8 7h258q8 0 6 -7l-1 -4q-2 -7 -7 -7h-259z" />
    <glyph glyph-name="breve" unicode="&#x2d8;" horiz-adv-x="311" 
d="M172 545q-44 0 -71.5 30.5t-27.5 76.5q0 8 5 8h6q5 0 5 -6q-1 -40 23 -65.5t62 -25.5q37 0 67.5 25.5t42.5 65.5q2 6 6 6h8q6 0 4 -8q-14 -46 -50 -76.5t-80 -30.5z" />
    <glyph glyph-name="dotaccent" unicode="&#x2d9;" horiz-adv-x="197" 
d="M121 593q-20 0 -20 21q0 10 8.5 18.5t18.5 8.5q19 0 19 -21q0 -11 -7.5 -19t-18.5 -8z" />
    <glyph glyph-name="ring" unicode="&#x2da;" horiz-adv-x="261" 
d="M141 500q-36 0 -58.5 25.5t-22.5 63.5q0 49 33 84t77 35q35 0 57.5 -26t22.5 -64q0 -49 -33 -83.5t-76 -34.5zM143 517q35 0 62.5 29t27.5 69q0 32 -17.5 54t-47.5 22q-36 0 -63 -29.5t-27 -68.5q0 -33 16.5 -54.5t48.5 -21.5z" />
    <glyph glyph-name="ogonek" unicode="&#x2db;" horiz-adv-x="276" 
d="M194 1q-30 -15 -50.5 -27t-46 -32t-39 -45.5t-13.5 -54.5q0 -27 16 -44.5t45 -17.5q41 0 70 23q6 4 9 -1l4 -6q2 -5 -6 -10q-40 -24 -78 -24t-58 22t-20 57q0 57 43 98t116 78z" />
    <glyph glyph-name="tilde" unicode="&#x2dc;" horiz-adv-x="342" 
d="M63 583l-7 2q-6 1 -3 9q35 84 90 84q24 0 37 -17t16 -37t12.5 -37t28.5 -17q41 0 70 72q3 7 7 6l7 -2q7 -2 3 -9q-37 -84 -89 -84q-23 0 -36 17t-17 37t-14 37t-27 17q-18 0 -34.5 -16.5t-24 -30t-12.5 -26.5q-3 -7 -7 -5z" />
    <glyph glyph-name="hungarumlaut" unicode="&#x2dd;" horiz-adv-x="353" 
d="M223 513l-4 3q-5 3 -1 9l120 173q4 5 8 2l5 -3q5 -4 1 -9l-120 -173q-4 -5 -9 -2zM74 513l-5 3q-4 4 0 9l119 173q5 5 9 2l5 -3q5 -4 1 -9l-121 -173q-4 -5 -8 -2z" />
    <glyph glyph-name="uni0394" unicode="&#x394;" horiz-adv-x="630" 
d="M12 0q-8 0 -10 2t3 17l370 698q2 4 5 4h2q2 0 4 -4l169 -700q5 -17 -13 -17h-530zM24 18h511l-158 664z" />
    <glyph glyph-name="uni03A9" unicode="&#x3a9;" horiz-adv-x="782" 
d="M53 7l1 4q2 7 7 7h167q-73 36 -115 108t-42 165q0 73 28 147.5t76.5 135t121 98.5t153.5 38q120 0 200 -87.5t80 -218.5q0 -120 -67 -226t-180 -160h166q8 0 6 -7l-1 -4q-2 -7 -7 -7h-214q-7 0 -5 7l1 4q2 7 6 7q120 37 198.5 146.5t78.5 239.5q0 124 -74.5 206
t-189.5 82q-97 0 -181 -58t-131 -150t-47 -191q0 -101 50.5 -175.5t135.5 -99.5q8 0 6 -7l-1 -4q-2 -7 -7 -7h-214q-8 0 -6 7z" />
    <glyph glyph-name="uni03BC" unicode="&#x3bc;" horiz-adv-x="507" 
d="M223 7q34 0 64 12t50 31.5t29 30t15 20.5l50 353q2 8 8 8h5q8 0 6 -8l-63 -446q-2 -8 -8 -8h-5q-7 0 -5 8l8 61q-70 -80 -154 -80q-107 0 -130 90l-43 -309q-2 -8 -8 -8h-4q-9 0 -7 8l97 685q1 7 8 7h4q8 0 6 -8l-35 -253q-13 -99 14 -146.5t98 -47.5z" />
    <glyph glyph-name="pi" unicode="&#x3c0;" horiz-adv-x="578" 
d="M108 0q-7 0 -5 8l62 436h-113q-6 0 -5 6l1 5q1 7 9 7h517q6 0 5 -7l-1 -5q-2 -6 -7 -6h-112l-61 -436q-2 -8 -8 -8h-5q-8 0 -6 8l63 436h-259l-61 -436q-2 -8 -8 -8h-6z" />
    <glyph glyph-name="Wgrave" unicode="&#x1e80;" horiz-adv-x="805" 
d="M181 -12l-86 706q0 5 4 6l9 2q2 1 3.5 -1t1.5 -4l80 -666l260 677q2 5 7 5t6 -5l78 -676l261 667q2 5 7 3l7 -3q5 -2 2 -8l-276 -703q-1 -3 -4 -4.5t-5.5 0t-2.5 4.5l-79 678l-261 -678q-1 -3 -4 -4.5t-5.5 0t-2.5 4.5zM549 779l-151 90q-5 3 -1 9l2 3q3 5 9 3l150 -91
q5 -3 2 -7l-2 -4q-4 -6 -9 -3z" />
    <glyph glyph-name="wgrave" unicode="&#x1e81;" horiz-adv-x="637" 
d="M137 -12l-72 470q-2 9 4 10l5 1q6 1 8 -5l67 -438l187 449q2 7 8 7t8 -8l61 -449l190 440q3 5 7 4l7 -3q5 -1 2 -8l-202 -470q-4 -5 -9 -5.5t-7 5.5l-61 452l-188 -452q-3 -5 -8.5 -5.5t-6.5 5.5zM417 560l-151 90q-5 3 -1 9l2 3q3 5 9 3l150 -91q5 -3 2 -7l-2 -4
q-4 -6 -9 -3z" />
    <glyph glyph-name="Wacute" unicode="&#x1e82;" horiz-adv-x="805" 
d="M181 -12l-86 706q0 5 4 6l9 2q2 1 3.5 -1t1.5 -4l80 -666l260 677q2 5 7 5t6 -5l78 -676l261 667q2 5 7 3l7 -3q5 -2 2 -8l-276 -703q-1 -3 -4 -4.5t-5.5 0t-2.5 4.5l-79 678l-261 -678q-1 -3 -4 -4.5t-5.5 0t-2.5 4.5zM392 777q-5 -2 -8 3l-3 6q-2 4 4 7l176 91
q5 2 8 -3l3 -5q3 -6 -4 -9z" />
    <glyph glyph-name="wacute" unicode="&#x1e83;" horiz-adv-x="637" 
d="M137 -12l-72 470q-2 9 4 10l5 1q6 1 8 -5l67 -438l187 449q2 7 8 7t8 -8l61 -449l190 440q3 5 7 4l7 -3q5 -1 2 -8l-202 -470q-4 -5 -9 -5.5t-7 5.5l-61 452l-188 -452q-3 -5 -8.5 -5.5t-6.5 5.5zM301 559q-5 -2 -8 3l-3 6q-2 4 4 7l176 91q5 2 8 -3l3 -5q3 -6 -4 -9z
" />
    <glyph glyph-name="Wdieresis" unicode="&#x1e84;" horiz-adv-x="805" 
d="M181 -12l-86 706q0 5 4 6l9 2q2 1 3.5 -1t1.5 -4l80 -666l260 677q2 5 7 5t6 -5l78 -676l261 667q2 5 7 3l7 -3q5 -2 2 -8l-276 -703q-1 -3 -4 -4.5t-5.5 0t-2.5 4.5l-79 678l-261 -678q-1 -3 -4 -4.5t-5.5 0t-2.5 4.5zM568 808q-19 0 -19 19q0 12 7.5 19t17.5 7
q18 0 18 -20q0 -11 -7.5 -18t-16.5 -7zM381 808q-19 0 -19 19q0 11 7.5 18.5t17.5 7.5q19 0 19 -20q0 -11 -7.5 -18t-17.5 -7z" />
    <glyph glyph-name="wdieresis" unicode="&#x1e85;" horiz-adv-x="637" 
d="M137 -12l-72 470q-2 9 4 10l5 1q6 1 8 -5l67 -438l187 449q2 7 8 7t8 -8l61 -449l190 440q3 5 7 4l7 -3q5 -1 2 -8l-202 -470q-4 -5 -9 -5.5t-7 5.5l-61 452l-188 -452q-3 -5 -8.5 -5.5t-6.5 5.5zM450 605q-18 0 -18 19q0 10 7.5 18t16.5 8q19 0 19 -20q0 -11 -7.5 -18
t-17.5 -7zM280 605q-19 0 -19 19q0 11 7.5 18.5t17.5 7.5q18 0 18 -20q0 -25 -24 -25z" />
    <glyph glyph-name="Ygrave" unicode="&#x1ef2;" horiz-adv-x="509" 
d="M204 7l47 336l-188 345q-4 6 2 9l6 3q5 2 8 -3l182 -337l279 338q4 6 8 3l7 -4q6 -3 0 -9l-286 -344l-47 -338q-2 -6 -7 -6h-6q-6 0 -5 7zM399 779l-151 90q-5 3 -1 9l2 3q3 5 9 3l150 -91q5 -3 2 -7l-2 -4q-4 -6 -9 -3z" />
    <glyph glyph-name="ygrave" unicode="&#x1ef3;" horiz-adv-x="440" 
d="M173 10l-119 447q-2 6 3 8l6 2q6 2 8 -4l114 -433l232 435q4 6 9 3l5 -2q6 -3 3 -9l-375 -696q-3 -6 -9 -3l-4 2q-5 4 -2 10zM320 560l-151 90q-5 3 -1 9l2 3q3 5 9 3l150 -91q5 -3 2 -7l-2 -4q-4 -6 -9 -3z" />
    <glyph glyph-name="endash" unicode="&#x2013;" horiz-adv-x="510" 
d="M70 243q-8 0 -6 7l1 4q2 7 7 7h358q8 0 6 -7l-1 -4q-2 -7 -7 -7h-358z" />
    <glyph glyph-name="emdash" unicode="&#x2014;" horiz-adv-x="705" 
d="M69 243q-7 0 -5 7l1 4q2 7 7 7h553q8 0 6 -7l-1 -4q-2 -7 -8 -7h-553z" />
    <glyph glyph-name="quoteleft" unicode="&#x2018;" horiz-adv-x="198" 
d="M170 532q0 -11 -9 -19t-21 -8q-19 0 -28.5 19.5t-9.5 47.5q0 81 72 134q8 6 11 0l3 -6q3 -6 -4 -11q-62 -44 -62 -117q0 -17 5 -29q10 10 22 10q9 0 15 -6t6 -15z" />
    <glyph glyph-name="quoteright" unicode="&#x2019;" horiz-adv-x="196" 
d="M117 683q0 11 9 19t21 8q19 0 28.5 -19.5t9.5 -47.5q0 -81 -72 -134q-8 -5 -11 0l-3 6q-3 6 4 11q62 44 62 117q0 17 -5 29q-10 -10 -22 -10q-9 0 -15 6t-6 15z" />
    <glyph glyph-name="quotesinglbase" unicode="&#x201a;" horiz-adv-x="178" 
d="M23 11q0 11 9 19t21 8q19 0 28.5 -19.5t9.5 -47.5q0 -81 -72 -134q-8 -5 -11 0l-3 6q-3 6 4 11q62 44 62 117q0 17 -5 29q-10 -10 -22 -10q-9 0 -15 6t-6 15z" />
    <glyph glyph-name="quotedblleft" unicode="&#x201c;" horiz-adv-x="358" 
d="M170 532q0 -11 -9 -19t-21 -8q-19 0 -28.5 19.5t-9.5 47.5q0 81 72 134q8 6 11 0l3 -6q3 -6 -4 -11q-62 -44 -62 -117q0 -17 5 -29q10 10 22 10q9 0 15 -6t6 -15zM330 532q0 -11 -9 -19t-21 -8q-19 0 -28.5 19.5t-9.5 47.5q0 81 72 134q8 6 11 0l3 -6q3 -6 -4 -11
q-62 -44 -62 -117q0 -17 5 -29q10 10 22 10q9 0 15 -6t6 -15z" />
    <glyph glyph-name="quotedblright" unicode="&#x201d;" horiz-adv-x="356" 
d="M117 683q0 11 9 19t21 8q19 0 28.5 -19.5t9.5 -47.5q0 -81 -72 -134q-8 -5 -11 0l-3 6q-3 6 4 11q62 44 62 117q0 17 -5 29q-10 -10 -22 -10q-9 0 -15 6t-6 15zM277 683q0 11 9 19t21 8q19 0 28.5 -19.5t9.5 -47.5q0 -81 -72 -134q-8 -5 -11 0l-3 6q-3 6 4 11
q62 44 62 117q0 17 -5 29q-10 -10 -22 -10q-9 0 -15 6t-6 15z" />
    <glyph glyph-name="quotedblbase" unicode="&#x201e;" horiz-adv-x="338" 
d="M23 11q0 11 9 19t21 8q19 0 28.5 -19.5t9.5 -47.5q0 -81 -72 -134q-8 -5 -11 0l-3 6q-3 6 4 11q62 44 62 117q0 17 -5 29q-10 -10 -22 -10q-9 0 -15 6t-6 15zM183 11q0 11 9 19t21 8q19 0 28.5 -19.5t9.5 -47.5q0 -81 -72 -134q-8 -5 -11 0l-3 6q-3 6 4 11q62 44 62 117
q0 17 -5 29q-10 -10 -22 -10q-9 0 -15 6t-6 15z" />
    <glyph glyph-name="dagger" unicode="&#x2020;" horiz-adv-x="496" 
d="M166 -231l86 613h-193q-8 0 -6 7l1 4q2 7 7 7h193l42 293q0 7 7 7h5q6 0 6 -7l-41 -293h193q8 0 6 -7l-1 -4q-2 -7 -7 -7h-194l-86 -613q-2 -7 -8 -7h-4q-8 0 -6 7z" />
    <glyph glyph-name="daggerdbl" unicode="&#x2021;" horiz-adv-x="524" 
d="M41 9l1 4q1 5 7 5h166l53 382h-193q-7 0 -5 9l1 4q1 5 7 5h193l39 275q0 7 9 7h3q6 0 6 -7l-39 -275h194q8 0 6 -7l-1 -4q-2 -7 -8 -7h-193l-54 -382h167q8 0 6 -7l-1 -4q-2 -7 -8 -7h-167l-32 -231q-2 -7 -8 -7h-4q-8 0 -6 7l32 231h-166q-7 0 -5 9z" />
    <glyph glyph-name="bullet" unicode="&#x2022;" horiz-adv-x="265" 
d="M122 219q-13 0 -21.5 9.5t-8.5 22.5q0 18 12 31t29 13q14 0 23 -10t9 -24q0 -17 -13 -29.5t-30 -12.5z" />
    <glyph glyph-name="ellipsis" unicode="&#x2026;" horiz-adv-x="518" 
d="M374 18q0 11 7.5 18.5t17.5 7.5q9 0 14.5 -6t5.5 -14q0 -11 -8 -19t-19 -8q-18 0 -18 21zM200 18q0 11 7.5 18.5t17.5 7.5q9 0 14.5 -6t5.5 -14q0 -11 -8 -19t-18 -8q-8 0 -13.5 6.5t-5.5 14.5zM29 18q0 11 8 18.5t18 7.5q19 0 19 -20q0 -11 -7.5 -19t-18.5 -8
q-8 0 -13.5 6.5t-5.5 14.5z" />
    <glyph glyph-name="perthousand" unicode="&#x2030;" horiz-adv-x="927" 
d="M205 427q-47 0 -78.5 36t-31.5 87q0 67 43.5 113.5t102.5 46.5q47 0 78.5 -35.5t31.5 -86.5q0 -68 -43.5 -114.5t-102.5 -46.5zM83 4q-3 3 0 8l470 686q3 5 7 1l6 -3q5 -3 1 -8l-470 -686q-4 -5 -7 -3zM206 445q50 0 89 41.5t39 98.5q0 45 -26.5 76t-67.5 31
q-51 0 -89 -41.5t-38 -98.5q0 -45 26 -76t67 -31zM607 112q0 68 43.5 114.5t103.5 46.5q46 0 78 -36t32 -87q0 -67 -44 -113.5t-102 -46.5q-47 0 -79 35.5t-32 86.5zM312 112q0 68 43.5 114.5t103.5 46.5q46 0 78 -36t32 -87q0 -67 -44 -113.5t-102 -46.5q-47 0 -79 35.5
t-32 86.5zM625 115q0 -45 26 -76t67 -31q51 0 89 41.5t38 98.5q0 45 -25.5 76t-66.5 31q-51 0 -89.5 -41.5t-38.5 -98.5zM330 115q0 -45 26 -76t67 -31q51 0 89 41.5t38 98.5q0 45 -25.5 76t-66.5 31q-51 0 -89.5 -41.5t-38.5 -98.5z" />
    <glyph glyph-name="guilsinglleft" unicode="&#x2039;" horiz-adv-x="244" 
d="M135 62l-85 172q-2 3 1 8l133 170q3 5 9 2l4 -3q5 -4 1 -8l-129 -166l81 -167q2 -6 -3 -8l-4 -2q-6 -3 -8 2z" />
    <glyph glyph-name="guilsinglright" unicode="&#x203a;" horiz-adv-x="243" 
d="M37 60l-3 3q-4 4 -1 8l128 168l-81 165q-3 5 3 8l4 2q5 3 8 -2l85 -170q1 -4 -1 -8l-133 -172q-6 -6 -9 -2z" />
    <glyph glyph-name="fraction" unicode="&#x2044;" horiz-adv-x="140" 
d="M-149 2q-1 -2 -4.5 -2.5t-4.5 1.5l-4 3q-5 3 -1 9l472 686q3 4 8 1l5 -4q4 -4 0 -8z" />
    <glyph glyph-name="zerosuperior" unicode="&#x2070;" horiz-adv-x="309" 
d="M183 494q-42 0 -65.5 31t-23.5 86q0 90 37.5 144.5t96.5 54.5q42 0 66.5 -32t24.5 -88q0 -88 -39 -142t-97 -54zM186 512q49 0 82 49t33 130q0 49 -19.5 75.5t-56.5 26.5q-49 0 -81.5 -49.5t-32.5 -131.5q0 -48 19.5 -74t55.5 -26z" />
    <glyph glyph-name="foursuperior" unicode="&#x2074;" horiz-adv-x="305" 
d="M243 504q-7 0 -5 7l9 61h-173q-4 0 -5.5 3.5t1.5 7.5l214 223q5 3 8.5 1.5t2.5 -6.5l-30 -212h45q7 0 5 -7l-1 -5q-2 -5 -6 -5h-45l-9 -61q-2 -7 -7 -7h-4zM98 589h151l26 183z" />
    <glyph glyph-name="fivesuperior" unicode="&#x2075;" horiz-adv-x="283" 
d="M166 494q-51 0 -84 39q-4 5 2 11l3 3q7 7 9 0q26 -35 73 -35q41 0 73 29.5t32 72.5q0 63 -82 63h-77q-8 0 -6 7l15 109q2 7 8 7h144q7 0 5 -7l-1 -4q-2 -7 -7 -7h-134l-12 -87h67q98 0 98 -79q0 -52 -36 -85.5t-90 -36.5z" />
    <glyph glyph-name="sixsuperior" unicode="&#x2076;" horiz-adv-x="284" 
d="M180 494q-43 0 -67.5 30.5t-24.5 78.5q0 74 50 131.5t124 84.5q8 3 8 -4v-7q0 -5 -4 -7q-21 -7 -46.5 -22t-58 -47.5t-46.5 -69.5q47 42 96 42q35 0 59.5 -24.5t24.5 -63.5q0 -49 -33 -84t-82 -38zM182 512q37 0 66 31t29 72q0 32 -19.5 51t-49.5 19q-28 0 -53 -13.5
t-35 -27.5l-11 -13q-2 -18 -2 -26q0 -41 19.5 -67t55.5 -26z" />
    <glyph glyph-name="sevensuperior" unicode="&#x2077;" horiz-adv-x="244" 
d="M97 503l-3 2q-5 3 -1 10l170 267h-156q-7 0 -5 7l1 4q2 7 7 7h175q10 0 4 -10l-182 -285q-4 -6 -10 -2z" />
    <glyph glyph-name="eightsuperior" unicode="&#x2078;" horiz-adv-x="295" 
d="M179 494q-40 0 -67 18t-27 53q0 33 22 58t58 34q-50 17 -50 60q0 39 26.5 66t77.5 27q41 0 63.5 -20.5t22.5 -51.5q0 -29 -19.5 -51.5t-51.5 -31.5q58 -15 58 -66q0 -47 -32.5 -71t-80.5 -24zM202 668q37 1 60 20.5t23 48.5q0 25 -16.5 40t-50.5 15q-40 0 -62 -21
t-22 -52q0 -22 18 -35.5t50 -15.5zM180 512q38 0 65 19t27 56q0 52 -74 57q-43 -2 -68 -23t-25 -54q0 -28 21 -41.5t54 -13.5z" />
    <glyph glyph-name="ninesuperior" unicode="&#x2079;" horiz-adv-x="284" 
d="M126 485q-8 -3 -8 4v7q0 6 4 7q22 8 46 21.5t56 45.5t46 72q-15 -13 -23 -19.5t-28 -14.5t-42 -8q-35 0 -60 24.5t-25 63.5q0 46 34 84t82 38q42 0 66.5 -30t24.5 -77q0 -9 -2 -25q-5 -35 -21.5 -66.5t-36 -52t-43.5 -37t-40 -24.5t-30 -13zM180 619q28 0 52 13.5
t34 27.5l10 13q2 20 2 28q0 41 -18.5 66t-53.5 25q-37 0 -66 -31t-29 -72q0 -32 19.5 -51t49.5 -19z" />
    <glyph glyph-name="zeroinferior" unicode="&#x2080;" horiz-adv-x="309" 
d="M5 -2q10 74 44 116t87 42q42 0 66.5 -32t24.5 -88q0 -88 -39 -142t-97 -54q-42 0 -65.5 31t-23.5 86q0 20 3 41zM22 -2q-3 -22 -3 -40q0 -48 19.5 -74t55.5 -26q49 0 82 49t33 130q0 49 -19.5 75.5t-56.5 26.5q-43 0 -72.5 -37.5t-38.5 -103.5z" />
    <glyph glyph-name="oneinferior" unicode="&#x2081;" horiz-adv-x="160" 
d="M4 85l-4 5q-2 4 3 7l73 53q4 3 7 1t2 -7l-40 -287q0 -7 -8 -7h-3q-6 0 -6 7l38 266l-54 -39q-4 -3 -8 1z" />
    <glyph glyph-name="twoinferior" unicode="&#x2082;" horiz-adv-x="265" 
d="M-19 -150q-5 0 -6 5t3 8l133 111q64 51 64 101q0 26 -18 44.5t-49 18.5q-21 0 -39 -9t-25 -19l-7 -9q-3 -6 -8 -3l-5 4q-4 4 0 9q3 5 9 12.5t28.5 20t49.5 12.5q37 0 59 -23t22 -57q0 -58 -70 -115l-113 -93h147q7 0 5 -7l-1 -4q-2 -7 -7 -7h-172z" />
    <glyph glyph-name="threeinferior" unicode="&#x2083;" horiz-adv-x="286" 
d="M74 -160q-52 0 -90 42q-3 5 2 10l3 3q5 5 9 0q1 -1 3 -3.5t3.5 -4l4.5 -4.5t5.5 -5t6.5 -5t8 -5t9.5 -4t11.5 -3t13 -2t15 -1q33 0 63.5 21t30.5 56q0 25 -17 41t-48 16h-59q-7 0 -5 7l1 4q2 7 6 7h59q30 0 53 22t23 54q0 24 -17 38t-47 14q-24 0 -45 -9t-30 -18l-9 -9
q-3 -5 -7 -1l-3 3q-5 5 0 10q4 5 11 12t32.5 18.5t53.5 11.5q35 0 57 -18t22 -50q0 -27 -15.5 -51.5t-41.5 -34.5q45 -20 45 -66q0 -42 -35.5 -68t-81.5 -28z" />
    <glyph glyph-name="fourinferior" unicode="&#x2084;" horiz-adv-x="305" 
d="M-21 -71l214 223q5 3 8.5 1.5t2.5 -6.5l-30 -212h45q7 0 5 -7l-1 -5q-2 -5 -6 -5h-45l-9 -61q-2 -7 -7 -7h-4q-7 0 -5 7l9 61h-173q-4 0 -5.5 3.5t1.5 7.5zM7 -65h151l26 183z" />
    <glyph glyph-name="fiveinferior" unicode="&#x2085;" horiz-adv-x="283" 
d="M74 -160q-51 0 -84 39q-4 5 2 11l3 3q7 7 9 0q26 -35 73 -35q41 0 73 29.5t32 72.5q0 63 -82 63h-77q-8 0 -6 7l15 109q2 7 8 7h144q7 0 5 -7l-1 -4q-2 -7 -7 -7h-134l-12 -87h67q98 0 98 -79q0 -52 -36 -85.5t-90 -36.5z" />
    <glyph glyph-name="sixinferior" unicode="&#x2086;" horiz-adv-x="284" 
d="M89 -160q-43 0 -67.5 30.5t-24.5 78.5q0 74 50 131.5t124 84.5q8 3 8 -4v-7q0 -5 -4 -7q-21 -7 -46.5 -22t-58 -47.5t-46.5 -69.5q47 42 96 42q35 0 59.5 -24.5t24.5 -63.5q0 -49 -33 -84t-82 -38zM91 -142q37 0 66 31t29 72q0 32 -19.5 51t-49.5 19q-28 0 -53 -13.5
t-36 -27.5l-10 -13q-2 -18 -2 -26q0 -41 19.5 -67t55.5 -26z" />
    <glyph glyph-name="seveninferior" unicode="&#x2087;" horiz-adv-x="242" 
d="M14 128q-7 0 -5 7l1 4q2 7 7 7h175q10 0 4 -10l-182 -285q-4 -6 -10 -2l-3 2q-5 3 -1 10l170 267h-156z" />
    <glyph glyph-name="eightinferior" unicode="&#x2088;" horiz-adv-x="295" 
d="M-7 -89q0 32 22 56t58 36q-50 17 -50 60q0 38 27 65.5t77 27.5q41 0 63.5 -20.5t22.5 -51.5q0 -29 -19.5 -51.5t-51.5 -31.5q58 -15 58 -66q0 -47 -32.5 -71t-80.5 -24q-40 0 -67 18t-27 53zM126 138q-33 0 -58.5 -19.5t-25.5 -53.5q0 -22 18 -35.5t50 -15.5
q37 1 60 20.5t23 48.5q0 25 -16.5 40t-50.5 15zM106 -10q-37 -3 -65 -22t-28 -55q0 -28 21 -41.5t54 -13.5q38 0 65 19t27 56q0 52 -74 57z" />
    <glyph glyph-name="nineinferior" unicode="&#x2089;" horiz-adv-x="284" 
d="M1 49q7 45 39.5 76t75.5 31q48 0 72.5 -38t16.5 -94q-5 -35 -21.5 -66.5t-36 -52t-43.5 -37t-40 -24.5t-30 -13q-8 -3 -8 4v7q0 6 4 7q22 8 46 21.5t56 45.5t46 72q-15 -13 -23 -19.5t-28 -14.5t-42 -8q-39 0 -64.5 29t-19.5 74zM20 49q-5 -38 15 -61t53 -23
q28 0 52 13.5t34 27.5l10 13q7 52 -10.5 85.5t-59.5 33.5q-34 0 -61.5 -26t-32.5 -63z" />
    <glyph glyph-name="Euro" unicode="&#x20ac;" 
d="M484 382h-369q-11 -48 -11 -100h327q7 0 6 -5l-2 -7q-2 -5 -6 -5h-324q2 -112 55 -185t158 -73q57 0 101.5 20t91.5 64q4 4 8 0l4 -5q4 -4 -1 -8q-49 -46 -96 -67.5t-108 -21.5q-113 0 -171.5 78t-60.5 198h-55q-7 0 -5 6l1 6q1 5 7 5h52q0 50 11 100h-49q-7 0 -5 7l1 5
q2 6 7 6h50q32 132 116 221t197 89q109 0 185 -83q2 -5 -1 -8l-4 -5q-6 -4 -8 0q-39 41 -78.5 59.5t-92.5 18.5q-106 0 -186 -83.5t-110 -208.5h368q3 0 5 -1t1 -4l-2 -8q-1 -5 -7 -5z" />
    <glyph glyph-name="afii61289" unicode="&#x2113;" horiz-adv-x="428" 
d="M175 -10q-41 0 -65 21t-28.5 56.5t0.5 73.5t18 80l6 16q-44 -15 -68 -20q-6 -1 -6 5l-1 8q-2 6 7 8q39 8 75 21l33 105q57 175 110 260.5t117 85.5q39 0 59 -33.5t13 -87.5q-17 -125 -105 -211.5t-211 -132.5l-10 -28q-11 -35 -16 -66.5t-4 -65.5t21 -54.5t58 -20.5
q43 0 83 12t54.5 20.5t22.5 14.5q7 4 9 -1l3 -4q2 -7 -2 -10q-8 -6 -24.5 -16t-60 -23t-88.5 -13zM135 266q113 44 193.5 126t96.5 197q7 47 -7 74t-47 27q-55 0 -103.5 -81.5t-102.5 -246.5z" />
    <glyph glyph-name="uni2117" unicode="&#x2117;" horiz-adv-x="804" 
d="M82 303q0 109 53 203.5t140.5 149t185.5 54.5q118 0 198.5 -91.5t80.5 -221.5q0 -166 -114.5 -286.5t-265.5 -120.5q-118 0 -198 91.5t-80 221.5zM100 305q0 -125 75 -211t188 -86q141 0 250.5 115t109.5 272q0 124 -75.5 210.5t-188.5 86.5q-141 0 -250 -114.5
t-109 -272.5zM334 309l-19 -136q-2 -7 -7 -7h-6q-6 0 -4 7l50 359q2 7 9 7h114q45 0 73.5 -24t28.5 -72q0 -55 -37.5 -94.5t-96.5 -39.5h-105zM336 326h105q50 0 82.5 33t32.5 84q0 39 -24 59t-63 20h-105z" />
    <glyph glyph-name="trademark" unicode="&#x2122;" horiz-adv-x="743" 
d="M341 389q-4 2 -3 8l118 309q1 3 4 4.5t5.5 0t2.5 -4.5l43 -281l120 281q1 5 7 5t7 -5l31 -309q0 -7 -5 -8l-9 -2q-2 -1 -2.5 0t-1.5 4l-26 270l-120 -278q-2 -5 -7 -5t-6 5l-42 278l-103 -270q-2 -6 -9 -4zM186 389q-7 0 -5 7l40 286h-94q-5 0 -5 7v4q0 7 7 7h202
q5 0 5 -7v-4q0 -7 -7 -7h-92l-40 -286q-2 -7 -7 -7h-4z" />
    <glyph glyph-name="Omega" unicode="&#x2126;" horiz-adv-x="782" 
d="M53 7l1 4q2 7 7 7h167q-73 36 -115 108t-42 165q0 73 28 147.5t76.5 135t121 98.5t153.5 38q120 0 200 -87.5t80 -218.5q0 -120 -67 -226t-180 -160h166q8 0 6 -7l-1 -4q-2 -7 -7 -7h-214q-7 0 -5 7l1 4q2 7 6 7q120 37 198.5 146.5t78.5 239.5q0 124 -74.5 206
t-189.5 82q-97 0 -181 -58t-131 -150t-47 -191q0 -101 50.5 -175.5t135.5 -99.5q8 0 6 -7l-1 -4q-2 -7 -7 -7h-214q-8 0 -6 7z" />
    <glyph glyph-name="estimated" unicode="&#x212e;" horiz-adv-x="784" 
d="M132 148q32 -63 93.5 -101.5t136.5 -38.5q117 0 222 93q4 4 7 0l4 -6q0 -5 -1 -7q-107 -98 -234 -98q-124 0 -201.5 85t-77.5 216q0 75 28 150t77 135t121.5 97t153.5 37q120 0 199.5 -87t79.5 -219q0 -25 -3 -52v-1l-1 -4q0 -7 -7 -7h-570zM162 358h502l26 191
q-33 66 -93.5 104.5t-137.5 38.5q-76 0 -147 -37.5t-123 -103.5z" />
    <glyph glyph-name="onethird" unicode="&#x2153;" horiz-adv-x="599" 
d="M149 404q-6 0 -6 7l38 266l-54 -39q-4 -3 -8 1l-4 5q-2 4 3 7l73 53q4 3 7 1t2 -7l-40 -287q0 -7 -8 -7h-3zM40 1l-4 3q-5 3 -1 9l472 686q3 4 8 1l5 -4q4 -4 0 -8l-471 -686q-1 -2 -4.5 -2.5t-4.5 1.5zM392 -10q-52 0 -90 42q-3 5 2 10l3 3q5 5 9 0q1 -1 3 -3.5t3.5 -4
l4.5 -4.5t5.5 -5t6.5 -5t8 -5t9.5 -4t11.5 -3t13 -2t15 -1q33 0 63.5 21t30.5 56q0 25 -17 41t-48 16h-59q-7 0 -5 7l1 4q2 7 6 7h59q30 0 53 22t23 54q0 24 -17 38t-47 14q-24 0 -45 -9t-30 -18l-9 -9q-3 -5 -7 -1l-3 3q-5 5 0 10q4 5 11 12t32.5 18.5t53.5 11.5
q35 0 57 -18t22 -50q0 -27 -15.5 -51.5t-41.5 -34.5q45 -20 45 -66q0 -42 -35.5 -68t-81.5 -28z" />
    <glyph glyph-name="twothirds" unicode="&#x2154;" horiz-adv-x="659" 
d="M102 1l-4 3q-5 3 -1 9l472 686q3 4 8 1l5 -4q4 -4 0 -8l-471 -686q-1 -2 -4.5 -2.5t-4.5 1.5zM453 -10q-52 0 -90 42q-3 5 2 10l3 3q4 5 9 0q1 -1 3 -3.5t3.5 -4l4.5 -4.5t5.5 -5t6.5 -5t8 -5t9.5 -4t11.5 -3t13 -2t15 -1q33 0 63.5 21t30.5 56q0 25 -17 41t-48 16h-59
q-7 0 -5 7l1 4q2 7 6 7h59q30 0 53 22t23 54q0 24 -17 38t-47 14q-24 0 -45 -9t-30 -18l-9 -9q-3 -5 -7 -1l-3 3q-5 5 0 10q4 5 11 12t32.5 18.5t53.5 11.5q35 0 57 -18t22 -50q0 -27 -15.5 -51.5t-41.5 -34.5q45 -20 45 -66q0 -42 -35.5 -68t-81.5 -28zM85 404q-5 0 -6 5
t3 8l133 111q64 51 64 101q0 26 -18 44.5t-49 18.5q-21 0 -39 -9t-25 -19l-7 -9q-3 -6 -8 -3l-5 4q-4 4 0 9q3 5 9 12.5t28.5 20t49.5 12.5q37 0 59 -23t22 -57q0 -58 -70 -115l-113 -93h147q7 0 5 -7l-1 -4q-2 -7 -7 -7h-172z" />
    <glyph glyph-name="oneeighth" unicode="&#x215b;" horiz-adv-x="608" 
d="M313 74q4 28 25.5 49.5t53.5 29.5q-50 17 -50 60q0 39 26.5 66t77.5 27q41 0 63.5 -20.5t22.5 -51.5q0 -29 -19.5 -51.5t-51.5 -31.5q58 -15 58 -66q0 -47 -32.5 -71t-80.5 -24q-40 0 -67 18t-27 53q0 9 1 13zM445 290q-33 0 -58.5 -20.5t-25.5 -54.5q0 -22 18 -35.5
t50 -15.5q37 1 60 20.5t23 48.5q0 25 -17 41t-50 16zM333 74q-1 -4 -1 -11q0 -28 21 -42.5t54 -14.5q38 0 65 20t27 57q0 52 -74 57q-39 -2 -63.5 -20t-28.5 -46zM148 404q-6 0 -6 7l38 266l-54 -39q-4 -3 -8 1l-4 5q-2 4 3 7l73 53q4 3 7 1t2 -7l-40 -287q0 -7 -8 -7h-3z
M36 4q-5 3 -1 9l472 686q3 4 8 1l5 -4q4 -4 0 -8l-471 -686q-1 -2 -4.5 -2.5t-4.5 1.5z" />
    <glyph glyph-name="threeeighths" unicode="&#x215c;" horiz-adv-x="653" 
d="M357 74q4 28 25.5 49.5t53.5 29.5q-50 17 -50 60q0 39 26.5 66t77.5 27q41 0 63.5 -20.5t22.5 -51.5q0 -29 -19.5 -51.5t-51.5 -31.5q58 -15 58 -66q0 -47 -32.5 -71t-80.5 -24q-40 0 -67 18t-27 53q0 9 1 13zM489 288q-33 0 -58.5 -19.5t-25.5 -53.5q0 -22 18 -35.5
t50 -15.5q37 1 60 20.5t23 48.5q0 25 -16.5 40t-50.5 15zM377 74q-1 -4 -1 -11q0 -28 21 -41.5t54 -13.5q38 0 65 19t27 56q0 52 -74 57q-39 -2 -63.5 -20t-28.5 -46zM89 4q-5 3 -1 9l472 686q3 4 8 1l5 -4q4 -4 0 -8l-471 -686q-1 -2 -4.5 -2.5t-4.5 1.5zM176 394
q-52 0 -90 42q-3 5 2 10l3 3q5 5 9 0q1 -1 3 -3.5t3.5 -4l4.5 -4.5t5.5 -5t6.5 -5t8 -5t9.5 -4t11.5 -3t13 -2t15 -1q33 0 63.5 21t30.5 56q0 25 -17 41t-48 16h-59q-7 0 -5 7l1 4q2 7 6 7h59q30 0 53 22t23 54q0 24 -17 38t-47 14q-24 0 -45 -9t-30 -18l-9 -9q-3 -5 -7 -1
l-3 3q-5 5 0 10q4 5 11 12t32.5 18.5t53.5 11.5q35 0 57 -18t22 -50q0 -27 -15.5 -51.5t-41.5 -34.5q45 -20 45 -66q0 -42 -35.5 -68t-81.5 -28z" />
    <glyph glyph-name="fiveeighths" unicode="&#x215d;" horiz-adv-x="649" 
d="M353 74q4 28 25.5 49.5t53.5 29.5q-50 17 -50 60q0 39 26.5 66t77.5 27q41 0 63.5 -20.5t22.5 -51.5q0 -29 -19.5 -51.5t-51.5 -31.5q58 -15 58 -66q0 -47 -32.5 -71t-80.5 -24q-40 0 -67 18t-27 53q0 9 1 13zM485 288q-33 0 -58.5 -19.5t-25.5 -53.5q0 -22 18 -35.5
t50 -15.5q37 1 60 20.5t23 48.5q0 25 -16.5 40t-50.5 15zM373 74q-1 -4 -1 -11q0 -28 21 -41.5t54 -13.5q38 0 65 19t27 56q0 52 -74 57q-39 -2 -63.5 -20t-28.5 -46zM85 4q-5 3 -1 9l472 686q3 4 8 1l5 -4q4 -4 0 -8l-471 -686q-1 -2 -4.5 -2.5t-4.5 1.5zM176 394
q-51 0 -84 39q-4 5 2 11l3 3q7 7 9 0q26 -35 73 -35q41 0 73 29.5t32 72.5q0 63 -82 63h-77q-8 0 -6 7l15 109q2 7 8 7h144q7 0 5 -7l-1 -4q-2 -7 -7 -7h-134l-12 -87h67q98 0 98 -79q0 -52 -36 -85.5t-90 -36.5z" />
    <glyph glyph-name="seveneighths" unicode="&#x215e;" 
d="M303 74q4 28 25.5 49.5t53.5 29.5q-50 17 -50 60q0 39 26.5 66t77.5 27q41 0 63.5 -20.5t22.5 -51.5q0 -29 -19.5 -51.5t-51.5 -31.5q58 -15 58 -66q0 -47 -32.5 -71t-80.5 -24q-40 0 -67 18t-27 53q0 9 1 13zM435 290q-33 0 -58.5 -20.5t-25.5 -54.5q0 -22 18 -35.5
t50 -15.5q37 1 60 20.5t23 48.5q0 25 -17 41t-50 16zM323 74q-1 -4 -1 -11q0 -28 21 -42.5t54 -14.5q38 0 65 20t27 57q0 52 -74 57q-39 -2 -63.5 -20t-28.5 -46zM37 4q-5 3 -1 9l472 686q3 4 8 1l5 -4q4 -4 0 -8l-471 -686q-1 -2 -4.5 -2.5t-4.5 1.5zM116 403l-3 2
q-5 3 -1 10l170 267h-156q-7 0 -5 7l1 4q2 7 7 7h175q10 0 4 -10l-182 -285q-4 -6 -10 -2z" />
    <glyph glyph-name="partialdiff" unicode="&#x2202;" horiz-adv-x="560" 
d="M48 193q0 102 67.5 182.5t169.5 80.5q69 0 115 -37.5t70 -83.5q3 69 -15 130t-45 100t-63.5 71.5t-62 47.5t-49.5 25q-5 4 -2 8l3 6q3 5 9 3q23 -10 49 -26t62.5 -48.5t64.5 -71.5t48 -99.5t20 -127.5q0 -60 -15.5 -121.5t-46 -116.5t-83.5 -90t-120 -35q-74 0 -125 58.5
t-51 144.5zM282 438q-93 -2 -155 -74.5t-62 -171.5q0 -79 46 -131.5t116 -52.5q95 0 159 78t80 198l2 15q-28 62 -64 94q-52 45 -122 45z" />
    <glyph glyph-name="Delta" unicode="&#x2206;" horiz-adv-x="630" 
d="M12 0q-8 0 -10 2t3 17l370 698q2 4 5 4h2q2 0 4 -4l169 -700q5 -17 -13 -17h-530zM24 18h511l-158 664z" />
    <glyph glyph-name="product" unicode="&#x220f;" horiz-adv-x="715" 
d="M80 7l97 686q0 7 8 7h462q6 0 6 -7l-97 -686q0 -7 -8 -7h-3q-8 0 -6 7l95 675h-442l-95 -675q0 -7 -8 -7h-3q-8 0 -6 7z" />
    <glyph glyph-name="summation" unicode="&#x2211;" horiz-adv-x="505" 
d="M22 0q-6 0 -7 7.5t4 11.5l364 348l-271 316q-4 5 -1 11t10 6h366q8 0 6 -7l-1 -4q-2 -7 -8 -7h-346l260 -306q6 -6 5 -10l-1 -5q-1 -3 -7 -9l-353 -334h349q8 0 6 -7l-1 -4q-2 -7 -8 -7h-366z" />
    <glyph glyph-name="minus" unicode="&#x2212;" 
d="M130 340q-7 0 -5 7l1 4q2 7 7 7h351q7 0 5 -7l-1 -4q-2 -7 -7 -7h-351z" />
    <glyph glyph-name="uni2215" unicode="&#x2215;" horiz-adv-x="140" 
d="M-149 2q-1 -2 -4.5 -2.5t-4.5 1.5l-4 3q-5 3 -1 9l472 686q3 4 8 1l5 -4q4 -4 0 -8z" />
    <glyph glyph-name="uni2219" unicode="&#x2219;" horiz-adv-x="200" 
d="M93 238q-8 0 -13.5 6.5t-5.5 14.5q0 11 8 18.5t18 7.5q19 0 19 -20q0 -11 -7.5 -19t-18.5 -8z" />
    <glyph glyph-name="radical" unicode="&#x221a;" horiz-adv-x="606" 
d="M159 -16l-99 410q-1 6 3 7l6 2q5 2 6 -5l92 -382l360 676q3 8 11 8h101q8 0 6 -7l-1 -4q-2 -7 -7 -7h-97l-370 -698q-2 -3 -4.5 -4t-4.5 0t-2 4z" />
    <glyph glyph-name="infinity" unicode="&#x221e;" horiz-adv-x="656" 
d="M191 157q-47 0 -78 35.5t-31 86.5q0 68 44.5 114.5t104.5 46.5q37 0 65.5 -25t38.5 -64q19 41 55 65t78 24q46 0 77 -36t31 -87q0 -67 -45 -113.5t-103 -46.5q-39 0 -67.5 24.5t-37.5 63.5q-20 -40 -56 -64t-76 -24zM337 282q0 -45 26 -76t67 -31q51 0 89 41.5t38 98.5
q0 45 -25.5 76t-66.5 31q-55 0 -91.5 -44t-36.5 -96zM193 175q51 0 89 41.5t38 98.5q0 45 -25.5 76t-66.5 31q-51 0 -89.5 -41.5t-38.5 -98.5q0 -45 26 -76t67 -31z" />
    <glyph glyph-name="integral" unicode="&#x222b;" horiz-adv-x="500" 
d="M191 -72l84 606q12 87 55 131.5t105 44.5q61 0 97 -43q4 -6 0 -9l-5 -4q-5 -4 -9 0q-31 38 -85 38q-55 0 -92 -39.5t-49 -118.5l-84 -606q-12 -87 -54 -131.5t-104 -44.5q-64 0 -97 43q-4 5 0 9l5 5q4 4 9 -1q29 -38 85 -38q55 0 91 39.5t48 118.5z" />
    <glyph glyph-name="approxequal" unicode="&#x2248;" 
d="M151 345l-5 3q-5 2 -1 7q2 3 5 8.5t14 19.5t22.5 24.5t30 19t36.5 8.5q38 0 68 -50q26 -45 56 -45q25 0 48 18t34 36l11 17q2 5 6 3l5 -4q5 -4 2 -8q-2 -3 -5 -8.5t-13.5 -19t-22 -23.5t-29.5 -18.5t-37 -8.5q-40 0 -68 50q-25 44 -56 44q-24 0 -47.5 -17.5t-34.5 -34.5
l-12 -18q-3 -7 -7 -3zM128 179l-5 3q-5 2 -1 7q2 3 5 8.5t14 19.5t22.5 24.5t30 19t36.5 8.5q38 0 68 -50q26 -45 56 -45q25 0 48 18t34 36l11 17q2 5 6 3l5 -4q5 -4 2 -8q-2 -3 -5 -8.5t-13.5 -19t-22 -23.5t-29.5 -18.5t-37 -8.5q-40 0 -68 50q-25 44 -56 44
q-24 0 -47.5 -17.5t-35.5 -34.5l-11 -18q-3 -7 -7 -3z" />
    <glyph glyph-name="notequal" unicode="&#x2260;" 
d="M175 80l-5 3q-7 4 -2 9l55 84h-89q-8 0 -6 7l1 4q2 7 7 7h99l124 188h-196q-8 0 -6 7l1 4q2 7 7 7h205l43 66q2 5 10 2l4 -2q8 -4 3 -10l-38 -56h70q9 0 7 -7l-1 -4q-2 -7 -8 -7h-80l-124 -188h177q9 0 7 -7l-1 -4q-2 -7 -8 -7h-187l-61 -93q-3 -5 -8 -3z" />
    <glyph glyph-name="lessequal" unicode="&#x2264;" 
d="M133 393q-4 2 -3.5 6t4.5 6l375 205q6 3 8 -3l2 -5q2 -6 -3 -9l-360 -195l305 -187q5 -3 1 -9l-3 -5q-2 -5 -8 -2zM94 85q-7 0 -5 7l1 4q2 7 7 7h350q8 0 6 -7l-1 -4q-2 -7 -8 -7h-350z" />
    <glyph glyph-name="greaterequal" unicode="&#x2265;" 
d="M129 195q-5 -3 -8 3l-2 5q-2 6 3 9l359 188l-304 195q-5 3 -1 9l2 3q3 7 9 3l317 -205q4 -2 3.5 -6t-4.5 -6zM104 85q-8 0 -6 7l1 4q2 7 8 7h350q7 0 5 -7l-1 -4q-2 -7 -7 -7h-350z" />
    <glyph glyph-name="lozenge" unicode="&#x25ca;" horiz-adv-x="535" 
d="M223 -6l-147 335q-7 17 -6 22t12 21l242 336q2 4 5 4h2q3 0 4 -4l144 -334q8 -17 7.5 -23t-14.5 -23l-238 -334q-2 -4 -5 -4h-2q-2 0 -4 4zM232 26l234 326l-139 327l-238 -330z" />
    <glyph glyph-name="commaaccent" unicode="&#xf6c3;" horiz-adv-x="263" 
d="M148 -111q0 11 8.5 19.5t20.5 8.5q34 0 34 -48q0 -67 -48 -103q-6 -5 -9 0l-4 6q-4 6 4 11q36 27 36 78q0 7 -2 14q-6 -6 -19 -6q-9 0 -15 6t-6 14z" />
    <glyph glyph-name="uniF8FF" unicode="&#xf8ff;" horiz-adv-x="599" 
d="M50 30v640q0 30 30 30h439q30 0 30 -30v-640q0 -30 -30 -30h-439q-30 0 -30 30zM262 314q0 -12 14 -12h36q15 0 15 13v26q0 16 16.5 32t36 28.5t36 36.5t16.5 53q0 48 -35.5 79.5t-89.5 31.5q-24 0 -46.5 -6.5t-37 -15t-25.5 -17.5t-16 -15l-5 -7q-8 -12 0 -18l22 -22
q9 -6 17 0q1 1 7.5 7t9.5 9t11.5 8.5t15.5 8.5t18 5.5t22 2.5q29 0 45 -15t16 -37q0 -21 -15.5 -39t-34 -30t-34 -32.5t-15.5 -45.5v-29zM245 156q0 -20 14.5 -34t33.5 -14q20 0 34.5 14t14.5 34t-14.5 34t-34.5 14q-19 0 -33.5 -14t-14.5 -34z" />
    <glyph glyph-name="grave.cap" horiz-adv-x="272" 
d="M254 779l-151 90q-5 3 -1 9l2 3q3 5 9 3l150 -91q5 -3 2 -7l-2 -4q-4 -6 -9 -3z" />
    <glyph glyph-name="acute.cap" horiz-adv-x="272" 
d="M95 777q-5 -2 -8 3l-3 6q-2 4 4 7l176 91q5 2 8 -3l3 -5q3 -6 -4 -9z" />
    <glyph glyph-name="circumflex.cap" horiz-adv-x="336" 
d="M83 763q-4 -2 -7 1l-3 5q-3 5 3 10q2 1 3 2l127 102q5 3 8 0l101 -106q5 -5 1 -8l-4 -4q-4 -4 -7 -1l-96 101z" />
    <glyph glyph-name="caron.cap" horiz-adv-x="336" 
d="M191 771l-101 106q-4 5 -1 8l4 4q4 4 7 1l96 -101l126 102q4 2 7 -1l3 -5q3 -5 -3 -10q-2 -1 -3 -2l-127 -102q-5 -3 -8 0z" />
    <glyph glyph-name="caron.alt" horiz-adv-x="336" 
d="M171 684q0 11 8.5 19.5t20.5 8.5q34 0 34 -48q0 -67 -48 -103q-6 -5 -9 0l-4 6q-4 6 4 11q36 27 36 78q0 7 -2 14q-6 -6 -19 -6q-9 0 -15 6t-6 14z" />
    <glyph glyph-name="tilde.cap" horiz-adv-x="342" 
d="M81 802l-7 2q-6 2 -3 9q35 84 90 84q24 0 37 -17t16 -37t12.5 -37t28.5 -17q41 0 70 72q3 7 7 6l7 -2q7 -2 3 -9q-37 -84 -89 -84q-23 0 -36 17t-17 37t-14 37t-27 17q-18 0 -34.5 -16.5t-24 -30t-12.5 -26.5q-3 -7 -7 -5z" />
    <glyph glyph-name="dieresis.cap" horiz-adv-x="427" 
d="M341 808q-19 0 -19 19q0 12 7.5 19t17.5 7q18 0 18 -20q0 -11 -7.5 -18t-16.5 -7zM154 808q-19 0 -19 19q0 11 7.5 18.5t17.5 7.5q19 0 19 -20q0 -11 -7.5 -18t-17.5 -7z" />
    <glyph glyph-name="macron.cap" horiz-adv-x="373" 
d="M95 842q-8 0 -6 7l1 4q2 7 8 7h258q8 0 6 -7l-1 -4q-2 -7 -7 -7h-259z" />
    <glyph glyph-name="breve.cap" horiz-adv-x="311" 
d="M185 780q-44 0 -71.5 30.5t-27.5 76.5q0 8 5 8h6q5 0 5 -6q-1 -40 23 -65.5t62 -25.5q37 0 67.5 25.5t42.5 65.5q1 6 6 6h8q6 0 4 -8q-14 -46 -50 -76.5t-80 -30.5z" />
    <glyph glyph-name="ring.cap" horiz-adv-x="261" 
d="M157 750q-36 0 -58.5 25.5t-22.5 63.5q0 49 33 84t77 35q35 0 57.5 -26t22.5 -64q0 -49 -33 -83.5t-76 -34.5zM159 767q35 0 62.5 29t27.5 69q0 32 -17.5 54t-47.5 22q-36 0 -63 -29.5t-27 -68.5q0 -33 16.5 -54.5t48.5 -21.5z" />
    <glyph glyph-name="hungarumlaut.cap" horiz-adv-x="353" 
d="M226 757l-5 3q-4 4 0 9l120 173q4 5 8 2l5 -3q5 -4 1 -9l-120 -173q-5 -5 -9 -2zM77 757l-5 3q-5 3 -1 9l120 173q4 5 9 2l5 -3q5 -3 1 -9l-121 -173q-4 -5 -8 -2z" />
    <glyph glyph-name="dotaccent.cap" horiz-adv-x="197" 
d="M133 819q-20 0 -20 21q0 10 8.5 18.5t18.5 8.5q19 0 19 -21q0 -11 -7.5 -19t-18.5 -8z" />
    <glyph glyph-name="cedilla.cap" horiz-adv-x="247" 
d="M142 3h22l-61 -79q15 5 30 5q31 0 53.5 -17.5t22.5 -51.5q0 -41 -28.5 -68t-71.5 -27q-50 0 -76 34q-5 5 1 10l4 4q5 5 9 -1q22 -29 61 -29q33 0 57.5 21t24.5 55q0 52 -59 52q-27 0 -49 -9q-4 -2 -6.5 3t-0.5 8z" />
    <glyph glyph-name="ogonek.cap" horiz-adv-x="276" 
d="M194 1q-30 -15 -50.5 -27t-46 -32t-39 -45.5t-13.5 -54.5q0 -27 16 -44.5t45 -17.5q41 0 70 23q6 4 9 -1l4 -6q2 -5 -6 -10q-40 -24 -78 -24t-58 22t-20 57q0 57 43 98t116 78z" />
    <glyph glyph-name="commaaccent.alt" horiz-adv-x="263" 
d="M176 604q0 -11 -8.5 -19.5t-20.5 -8.5q-34 0 -34 48q0 67 48 103q6 5 9 0l4 -6q4 -6 -4 -11q-36 -27 -36 -78q0 -7 2 -14q6 6 19 6q9 0 15 -6t6 -14z" />
    <glyph glyph-name="commaaccent.cap" horiz-adv-x="263" 
d="M148 -111q0 11 8.5 19.5t20.5 8.5q34 0 34 -48q0 -67 -48 -103q-6 -5 -9 0l-4 6q-4 6 4 11q36 27 36 78q0 7 -2 14q-6 -6 -19 -6q-9 0 -15 6t-6 14z" />
    <glyph glyph-name="brokenbar.case" horiz-adv-x="204" 
d="M123 455q-7 0 -5 7l50 361q2 7 8 7h4q7 0 5 -7l-51 -361q0 -7 -7 -7h-4zM82 202q0 6 7 6h4q6 0 6 -6l-51 -361q0 -7 -7 -7h-4q-6 0 -6 7z" />
    <glyph glyph-name="zero.tf" 
d="M259 -11q-101 0 -151.5 66.5t-50.5 190.5q0 59 9 119.5t31.5 123.5t55.5 111t86.5 79t120.5 31q100 0 150.5 -66t50.5 -189q0 -206 -84 -336t-218 -130zM261 7q122 0 202 124.5t80 322.5q0 115 -46.5 176.5t-138.5 61.5q-61 0 -111 -29.5t-81 -76t-52.5 -106.5
t-30 -118.5t-8.5 -115.5q0 -116 46.5 -177.5t139.5 -61.5z" />
    <glyph glyph-name="one.tf" 
d="M286 19l93 654l-224 -156q-5 -4 -8 1l-4 8q-2 4 3 8l244 169q4 3 8 1t3 -7l-96 -678h202q7 0 6 -6l-1 -7q-2 -6 -7 -6h-448q-7 0 -5 7l1 5q2 7 6 7h227z" />
    <glyph glyph-name="two.tf" 
d="M71 19h389q7 0 5 -7l-1 -5q-2 -7 -8 -7h-419q-5 0 -6.5 4.5t2.5 7.5l333 274q75 62 116 118.5t41 127.5q0 68 -47.5 114t-133.5 46q-37 0 -70.5 -11.5t-55.5 -29.5t-34.5 -31t-19.5 -25q-3 -6 -8 -3l-7 5q-6 4 -1 10q77 103 196 103q95 0 147 -51t52 -126
q0 -54 -25.5 -104.5t-56 -82t-82.5 -74.5z" />
    <glyph glyph-name="three.tf" 
d="M324 353h-137q-8 0 -6 8l1 4q2 7 8 7h137q76 0 132 54t56 130q0 61 -42.5 98.5t-115.5 37.5q-121 0 -197 -86q-4 -6 -10 -2l-6 5q-4 3 -1 8q89 93 214 93q80 0 128.5 -42.5t48.5 -112.5q0 -66 -42.5 -119t-109.5 -73q55 -15 88.5 -56.5t33.5 -93.5q0 -103 -76.5 -163
t-182.5 -60q-129 0 -198 91q-5 6 0 10l5 4q5 4 10 -3q63 -84 183 -84q96 0 168.5 55t72.5 149q0 58 -44 99.5t-118 41.5z" />
    <glyph glyph-name="four.tf" 
d="M421 164h-395q-5 0 -6 3.5t3 7.5l481 538q3 4 7.5 2.5t3.5 -6.5l-75 -528h83q3 0 5.5 -1.5t1.5 -4.5l-1 -4q-2 -7 -8 -7h-83l-22 -157q-2 -7 -8 -7h-3q-8 0 -6 7zM53 181h370l70 495z" />
    <glyph glyph-name="five.tf" 
d="M142 440h170q106 0 161 -44.5t55 -128.5q0 -116 -77.5 -196.5t-194.5 -80.5q-132 0 -193 88q-3 7 1 10l6 4q5 4 9 -2q55 -82 176 -82q108 0 181 75.5t73 183.5q0 155 -200 155h-182q-6 0 -6 8l37 263q2 7 8 7h336q8 0 6 -6l-1 -5q-1 -6 -7 -6h-324z" />
    <glyph glyph-name="six.tf" 
d="M72 223q0 166 114 302t284 196q5 2 7 -3l2 -7q2 -6 -5 -8q-28 -9 -62.5 -25t-82.5 -47.5t-90 -71t-79.5 -98.5t-55.5 -126q107 121 238 121q84 0 139.5 -53.5t55.5 -139.5q0 -108 -77 -190.5t-184 -82.5q-100 0 -152 64t-52 169zM96 299q-7 -39 -7 -75q0 -97 48 -156.5
t138 -59.5q98 0 171 76t73 179q0 79 -50.5 127t-126.5 48q-41 0 -80.5 -13.5t-63.5 -27.5t-50.5 -40t-32 -32.5t-17.5 -23.5z" />
    <glyph glyph-name="seven.tf" 
d="M556 683h-422q-7 0 -5 7l1 5q1 5 8 5h438q10 0 6 -9l-401 -690q-4 -7 -9 -4l-6 3q-6 3 -2 9z" />
    <glyph glyph-name="eight.tf" 
d="M265 357q-67 14 -106 53t-39 96q0 79 61.5 141.5t173.5 62.5q95 0 143 -46t48 -114q0 -75 -52 -125.5t-140 -67.5q75 -14 119 -54.5t44 -103.5q0 -99 -75.5 -154t-181.5 -55q-94 0 -151 39.5t-57 120.5q0 82 60 135t153 72zM311 370q93 5 155 53t62 127q0 61 -43 102
t-130 41q-102 0 -159.5 -57.5t-57.5 -130.5q0 -59 48 -95t125 -40zM308 346q-57 -5 -109 -26.5t-90 -66.5t-38 -103q0 -71 52.5 -107.5t135.5 -36.5q97 0 168 50t71 143q0 61 -51 101t-139 46z" />
    <glyph glyph-name="nine.tf" 
d="M546 477q0 -166 -114 -301.5t-284 -195.5q-5 -2 -7 3l-2 7q-2 6 5 8q28 9 62.5 24.5t82.5 47.5t90 71t79.5 98t55.5 126q-107 -121 -238 -121q-84 0 -139.5 53.5t-55.5 139.5q0 108 77 190.5t184 82.5q100 0 152 -64t52 -169zM522 401q7 39 7 75q0 97 -48 156.5
t-138 59.5q-98 0 -171 -76t-73 -179q0 -79 50.5 -127t126.5 -48q41 0 80.5 13.5t63.5 27.5t50.5 40t32 32.5t17.5 23.5z" />
    <glyph glyph-name="zero.denom" horiz-adv-x="346" 
d="M131 -10q-42 0 -65.5 31t-23.5 86q0 90 37.5 144.5t96.5 54.5q42 0 66.5 -32t24.5 -88q0 -88 -39 -142t-97 -54zM134 8q49 0 82 49t33 130q0 49 -19.5 75.5t-56.5 26.5q-49 0 -81.5 -49.5t-32.5 -131.5q0 -48 19.5 -74t55.5 -26z" />
    <glyph glyph-name="one.denom" horiz-adv-x="205" 
d="M70 7l38 266l-54 -39q-4 -3 -8 1l-4 5q-2 4 3 7l73 53q4 3 7 1t2 -7l-40 -287q0 -7 -8 -7h-3q-6 0 -6 7z" />
    <glyph glyph-name="two.denom" horiz-adv-x="309" 
d="M26 0q-5 0 -6 5t3 8l133 111q64 51 64 101q0 26 -18 44.5t-49 18.5q-21 0 -39 -9t-25 -19l-7 -9q-3 -6 -8 -3l-5 4q-4 4 0 9q3 5 9 12.5t28.5 20t49.5 12.5q37 0 59 -23t22 -57q0 -58 -70 -115l-113 -93h147q7 0 5 -7l-1 -4q-2 -7 -7 -7h-172z" />
    <glyph glyph-name="three.denom" horiz-adv-x="331" 
d="M121 -10q-52 0 -90 42q-3 5 2 10l3 3q4 5 9 0q1 -1 3 -3.5t3.5 -4l4.5 -4.5t5.5 -5t6.5 -5t8 -5t9.5 -4t11.5 -3t13 -2t15 -1q33 0 63.5 21t30.5 56q0 25 -17 41t-48 16h-59q-7 0 -5 7l1 4q2 7 6 7h59q30 0 53 22t23 54q0 24 -17 38t-47 14q-24 0 -45 -9t-30 -18l-9 -9
q-3 -5 -7 -1l-3 3q-5 5 0 10q4 5 11 12t32.5 18.5t53.5 11.5q35 0 57 -18t22 -50q0 -27 -15.5 -51.5t-41.5 -34.5q45 -20 45 -66q0 -42 -35.5 -68t-81.5 -28z" />
    <glyph glyph-name="four.denom" horiz-adv-x="336" 
d="M16 68q-4 0 -5.5 3.5t1.5 7.5l214 223q5 3 8.5 1.5t2.5 -6.5l-30 -212h45q7 0 5 -7l-1 -5q-2 -5 -6 -5h-45l-9 -61q-2 -7 -7 -7h-4q-7 0 -5 7l9 61h-173zM40 85h151l26 183z" />
    <glyph glyph-name="five.denom" horiz-adv-x="334" 
d="M122 -10q-51 0 -84 39q-4 5 2 11l3 3q7 7 9 0q26 -35 73 -35q41 0 73 29.5t32 72.5q0 63 -82 63h-77q-8 0 -6 7l15 109q2 7 8 7h144q7 0 5 -7l-1 -4q-2 -7 -7 -7h-134l-12 -87h67q98 0 98 -79q0 -52 -36 -85.5t-90 -36.5z" />
    <glyph glyph-name="six.denom" horiz-adv-x="338" 
d="M135 -10q-43 0 -67.5 30.5t-24.5 78.5q0 74 50 131.5t124 84.5q8 3 8 -4v-7q0 -5 -4 -7q-21 -7 -46.5 -22t-58 -47.5t-46.5 -69.5q47 42 96 42q35 0 59.5 -24.5t24.5 -63.5q0 -49 -33 -84t-82 -38zM137 8q37 0 66 31t29 72q0 32 -19.5 51t-49.5 19q-28 0 -53 -13.5
t-36 -27.5l-10 -13q-2 -18 -2 -26q0 -41 19.5 -67t55.5 -26z" />
    <glyph glyph-name="seven.denom" horiz-adv-x="300" 
d="M53 11l170 267h-156q-7 0 -5 7l1 4q2 7 7 7h175q10 0 4 -10l-182 -285q-4 -6 -10 -2l-3 2q-5 3 -1 10z" />
    <glyph glyph-name="eight.denom" horiz-adv-x="335" 
d="M35 61q0 32 22 56t58 36q-50 17 -50 60q0 39 26.5 66t77.5 27q41 0 63.5 -20.5t22.5 -51.5q0 -29 -19.5 -51.5t-51.5 -31.5q58 -15 58 -66q0 -47 -32.5 -71t-80.5 -24q-40 0 -67 18t-27 53zM152 164q37 1 60 20.5t23 48.5q0 25 -16.5 40t-50.5 15q-40 0 -62 -21t-22 -52
q0 -22 18 -35.5t50 -15.5zM148 140q-37 -3 -65 -22t-28 -55q0 -28 21 -41.5t54 -13.5q38 0 65 19t27 56q0 52 -74 57z" />
    <glyph glyph-name="nine.denom" horiz-adv-x="322" 
d="M68 -8q0 6 4 7q22 8 46 21.5t56 45.5t46 72q-15 -13 -23 -19.5t-28 -14.5t-42 -8q-39 0 -64.5 29t-19.5 74q7 45 39.5 76t75.5 31q48 0 72.5 -38t16.5 -94q-5 -35 -21.5 -66.5t-36 -52t-43.5 -37t-40 -24.5t-30 -13q-8 -3 -8 4v7zM130 115q28 0 52 13.5t34 27.5l10 13
q7 52 -10.5 85.5t-59.5 33.5q-34 0 -61.5 -26t-32.5 -63q-5 -38 15 -61t53 -23z" />
    <glyph glyph-name="zero.num" horiz-adv-x="309" 
d="M169 394q-42 0 -65.5 31t-23.5 86q0 90 37.5 144.5t96.5 54.5q42 0 66.5 -32t24.5 -88q0 -88 -39 -142t-97 -54zM172 412q49 0 82 49t33 130q0 49 -19.5 75.5t-56.5 26.5q-49 0 -81.5 -49.5t-32.5 -131.5q0 -48 19.5 -74t55.5 -26z" />
    <glyph glyph-name="one.num" horiz-adv-x="161" 
d="M112 404q-6 0 -6 7l38 266l-54 -39q-4 -3 -8 1l-4 5q-2 4 3 7l73 53q4 3 7 1t2 -7l-40 -287q0 -7 -8 -7h-3z" />
    <glyph glyph-name="two.num" horiz-adv-x="267" 
d="M60 404q-5 0 -6 5t3 8l133 111q64 51 64 101q0 26 -18 44.5t-49 18.5q-21 0 -39 -9t-25 -19l-7 -9q-3 -6 -8 -3l-5 4q-4 4 0 9q3 5 9 12.5t28.5 20t49.5 12.5q37 0 59 -23t22 -57q0 -58 -70 -115l-113 -93h147q7 0 5 -7l-1 -4q-2 -7 -7 -7h-172z" />
    <glyph glyph-name="three.num" horiz-adv-x="286" 
d="M153 394q-52 0 -90 42q-3 5 2 10l3 3q4 5 9 0q1 -1 3 -3.5t3.5 -4l4.5 -4.5t5.5 -5t6.5 -5t8 -5t9.5 -4t11.5 -3t13 -2t15 -1q33 0 63.5 21t30.5 56q0 25 -17 41t-48 16h-59q-7 0 -5 7l1 4q2 7 6 7h59q30 0 53 22t23 54q0 24 -17 38t-47 14q-24 0 -45 -9t-30 -18l-9 -9
q-3 -5 -7 -1l-3 3q-5 5 0 10q4 5 11 12t32.5 18.5t53.5 11.5q35 0 57 -18t22 -50q0 -27 -15.5 -51.5t-41.5 -34.5q45 -20 45 -66q0 -42 -35.5 -68t-81.5 -28z" />
    <glyph glyph-name="four.num" horiz-adv-x="305" 
d="M60 472q-4 0 -5.5 3.5t1.5 7.5l214 223q5 3 8.5 1.5t2.5 -6.5l-30 -212h45q7 0 5 -7l-1 -5q-2 -5 -6 -5h-45l-9 -61q-2 -7 -7 -7h-4q-7 0 -5 7l9 61h-173zM84 489h151l26 183z" />
    <glyph glyph-name="five.num" horiz-adv-x="283" 
d="M152 394q-51 0 -84 39q-4 5 2 11l3 3q7 7 9 0q26 -35 73 -35q41 0 73 29.5t32 72.5q0 63 -82 63h-77q-8 0 -6 7l15 109q2 7 8 7h144q7 0 5 -7l-1 -4q-2 -7 -7 -7h-134l-12 -87h67q98 0 98 -79q0 -52 -36 -85.5t-90 -36.5z" />
    <glyph glyph-name="six.num" horiz-adv-x="284" 
d="M166 394q-43 0 -67.5 30.5t-24.5 78.5q0 74 50 131.5t124 84.5q8 3 8 -4v-7q0 -5 -4 -7q-21 -7 -46.5 -22t-58 -47.5t-46.5 -69.5q47 42 96 42q35 0 59.5 -24.5t24.5 -63.5q0 -49 -33 -84t-82 -38zM168 412q37 0 66 31t29 72q0 32 -19.5 51t-49.5 19q-28 0 -53 -13.5
t-35 -27.5l-11 -13q-2 -18 -2 -26q0 -41 19.5 -67t55.5 -26z" />
    <glyph glyph-name="seven.num" horiz-adv-x="244" 
d="M83 403l-3 2q-5 3 -1 10l170 267h-156q-7 0 -5 7l1 4q2 7 7 7h175q10 0 4 -10l-182 -285q-4 -6 -10 -2z" />
    <glyph glyph-name="eight.num" horiz-adv-x="295" 
d="M165 394q-40 0 -67 18t-27 53q0 33 22 58t58 34q-50 17 -50 60q0 39 26.5 66t77.5 27q41 0 63.5 -20.5t22.5 -51.5q0 -29 -19.5 -51.5t-51.5 -31.5q58 -15 58 -66q0 -47 -32.5 -71t-80.5 -24zM188 568q37 1 60 20.5t23 48.5q0 25 -16.5 40t-50.5 15q-40 0 -62 -21
t-22 -52q0 -22 18 -35.5t50 -15.5zM166 412q38 0 65 19t27 56q0 52 -74 57q-43 -2 -68 -23t-25 -54q0 -28 21 -41.5t54 -13.5z" />
    <glyph glyph-name="nine.num" horiz-adv-x="284" 
d="M112 385q-8 -3 -8 4v7q0 6 4 7q22 8 46 21.5t56 45.5t46 72q-15 -13 -23 -19.5t-28 -14.5t-42 -8q-39 0 -64.5 29t-19.5 74q7 45 39.5 76t75.5 31q48 0 72.5 -38t16.5 -94q-5 -35 -21.5 -66.5t-36 -52t-43.5 -37t-40 -24.5t-30 -13zM166 519q28 0 52 13.5t34 27.5l10 13
q7 52 -10.5 85.5t-59.5 33.5q-34 0 -61.5 -26t-32.5 -63q-5 -38 15 -61t53 -23z" />
    <glyph glyph-name="parenleft.case" horiz-adv-x="319" 
d="M64 239q0 110 19 206t49.5 163.5t70 116t81 72t81.5 23.5q9 0 7 -7l-1 -4q-2 -7 -8 -7q-46 0 -95 -39t-91 -108t-68.5 -178.5t-26.5 -237.5q0 -141 45.5 -237t106.5 -103q8 0 6 -7l-1 -5q-2 -5 -7 -5q-67 3 -117.5 104.5t-50.5 252.5z" />
    <glyph glyph-name="parenright.case" horiz-adv-x="319" 
d="M274 463q0 -110 -19 -206t-49.5 -163.5t-70 -116t-81 -72t-81.5 -23.5q-9 0 -7 7l1 4q2 7 8 7q46 0 95 39t91 108t68.5 178.5t26.5 237.5q0 141 -45.5 237t-106.5 103q-8 0 -6 7l1 5q2 5 7 5q67 -3 117.5 -104.5t50.5 -252.5z" />
    <glyph glyph-name="hyphen.case" horiz-adv-x="355" 
d="M74 333q-7 0 -5 7l1 4q2 7 7 7h218q6 0 4 -7l-1 -4q-2 -7 -6 -7h-218z" />
    <glyph glyph-name="bracketleft.case" horiz-adv-x="313" 
d="M55 -100h171q8 0 6 -7l-1 -4q-2 -7 -7 -7h-183q-7 0 -5 7l129 924q2 7 8 7h182q8 0 6 -7l-1 -4q-2 -7 -7 -7h-172z" />
    <glyph glyph-name="bracketright.case" horiz-adv-x="312" 
d="M-21 -100h171l126 902h-171q-7 0 -5 7l1 4q2 7 7 7h182q6 0 6 -7l-130 -924q-2 -7 -8 -7h-182q-8 0 -6 7l1 4q2 7 8 7z" />
    <glyph glyph-name="braceleft.case" horiz-adv-x="328" 
d="M92 105l21 148q6 41 -15 66t-45 25q-7 0 -6 7l1 4q2 7 7 7q22 0 51 24.5t35 66.5l20 145q18 131 70 181.5t143 50.5q8 0 6 -7l-1 -4q-2 -7 -8 -7q-79 0 -127 -47t-65 -167l-20 -145q-5 -36 -26 -61.5t-48 -38.5q55 -32 46 -100l-21 -148q-17 -121 18 -168.5t114 -47.5
q8 0 6 -7l-1 -4q-2 -7 -8 -7q-180 0 -147 234z" />
    <glyph glyph-name="bar.case" horiz-adv-x="197" 
d="M28 -160l138 983q2 7 8 7h4q7 0 5 -7l-138 -983q-2 -7 -7 -7h-4q-8 0 -6 7z" />
    <glyph glyph-name="braceright.case" horiz-adv-x="328" 
d="M167 105l21 148q5 36 26 61.5t48 38.5q-55 32 -46 100l20 145q17 120 -18 167t-114 47q-8 0 -6 7l1 4q2 7 8 7q86 0 125.5 -52.5t21.5 -179.5l-20 -145q-6 -42 16 -66.5t44 -24.5q8 0 6 -7l-1 -4q-1 -7 -7 -7q-24 0 -52.5 -25t-33.5 -66l-21 -148q-19 -132 -70.5 -183
t-141.5 -51q-8 0 -6 7l1 4q2 7 8 7q78 0 126 47.5t65 168.5z" />
    <glyph glyph-name="guilsinglleft.case" horiz-adv-x="244" 
d="M148 152l-85 172q-2 3 1 8l133 170q3 5 9 2l4 -3q5 -4 1 -8l-129 -166l81 -167q2 -6 -3 -8l-4 -2q-6 -3 -8 2z" />
    <glyph glyph-name="guilsinglright.case" horiz-adv-x="240" 
d="M47 150l-3 3q-4 4 -1 8l128 168l-81 165q-3 5 3 8l4 2q5 3 8 -2l85 -170q1 -4 -1 -8l-133 -172q-6 -6 -9 -2z" />
    <glyph glyph-name="guillemotleft.case" horiz-adv-x="387" 
d="M291 152l-85 172q-1 4 1 8l133 170q5 5 9 1l4 -4q4 -4 0 -8l-127 -165l81 -166q2 -6 -3 -8l-5 -2q-5 -2 -8 2zM147 152l-85 172q-1 4 1 8l133 170q5 5 9 1l4 -4q4 -4 0 -8l-127 -165l81 -166q2 -6 -3 -8l-5 -2q-5 -2 -8 2z" />
    <glyph glyph-name="guillemotright.case" horiz-adv-x="385" 
d="M188 154q-4 4 -1 8l128 168l-81 164q-3 5 3 8l5 2q5 2 8 -2l85 -170q1 -4 -1 -8l-133 -172q-5 -6 -9 -2zM48 151l-4 4q-4 4 -1 8l128 167l-81 164q-3 5 3 8l5 2q5 2 8 -2l85 -170q1 -4 -1 -8l-133 -172q-5 -5 -9 -1z" />
    <glyph glyph-name="endash.case" horiz-adv-x="497" 
d="M75 333q-8 0 -6 7l1 4q2 7 7 7h358q8 0 6 -7l-1 -4q-2 -7 -7 -7h-358z" />
    <glyph glyph-name="emdash.case" horiz-adv-x="692" 
d="M74 333q-7 0 -5 7l1 4q2 7 7 7h553q8 0 6 -7l-1 -4q-2 -7 -8 -7h-553z" />
    <glyph glyph-name="bullet.case" horiz-adv-x="266" 
d="M130 279q-13 0 -21.5 9.5t-8.5 22.5q0 18 12 31t29 13q14 0 23 -10t9 -24q0 -17 -13 -29.5t-30 -12.5z" />
    <glyph glyph-name="periodcentered.case" horiz-adv-x="198" 
d="M103 328q-8 0 -13.5 6.5t-5.5 14.5q0 11 8 18.5t18 7.5q19 0 19 -20q0 -11 -7.5 -19t-18.5 -8z" />
    </font>
</defs>
</svg>
